<?xml version="1.0" encoding="UTF-8"?>
<svg id="Manager" xmlns="http://www.w3.org/2000/svg" viewBox="0 0 428.84 199.25">
  <rect x="2" y="13.84" width="391.28" height="183.41" rx="8.4" ry="8.4" fill="#282844" stroke="#6e78b3"
    stroke-miterlimit="10" stroke-width="4" /><text transform="translate(22.13 51.71)" fill="#f3edf7">
    <tspan x="0" y="0" xml:space="preserve" font-family="ChangaOne, &apos;Changa One&apos;" font-size="20.33"
      letter-spacing="0em">Manager: </tspan>
    <tspan x="95.41" y="0" font-family="Lato-Regular, Lato" font-size="17.79" letter-spacing="0em">L</tspan>
    <tspan x="104.41" y="0" font-family="Lato-Regular, Lato" font-size="17.79" letter-spacing="0em">orem ipsum dolor sit
    </tspan>
    <tspan font-family="Lato-Regular, Lato" font-size="17.79" letter-spacing="0em">
      <tspan x="0" y="24">amet, consece adipiscing elit. Etiam </tspan>
    </tspan>
    <tspan font-family="Lato-Regular, Lato" font-size="17.79" letter-spacing="0em">
      <tspan x="0" y="47.99">at tellus eget dui dapibus commodo </tspan>
    </tspan>
    <tspan font-family="Lato-Regular, Lato" font-size="17.79">
      <tspan x="0" y="71.98" letter-spacing="0em">et eget ipsum. </tspan>
      <tspan x="113.65" y="71.98" letter-spacing="0em">P</tspan>
      <tspan x="124.44" y="71.98" letter-spacing="0em">ellentesque </tspan>
    </tspan>
    <tspan font-family="Lato-Regular, Lato" font-size="17.79" letter-spacing="0em">
      <tspan x="0" y="95.98">habitant morbi tristique senectus et </tspan>
    </tspan>
    <tspan font-family="Lato-Regular, Lato" font-size="17.79" letter-spacing="0em">
      <tspan x="0" y="119.97">netus et malesuada fames acet.</tspan>
    </tspan>
  </text>
  <rect x="372.77" y="49.52" width="26.2" height="22.03" transform="translate(198.72 403.37) rotate(-70.29)"
    fill="#f0b297" stroke-width="0" />
  <path d="M400.66,51.92l-2.72,7.59c-6.65,2.33-14.63,2.65-23.45.15l5.44-15.17,20.74,7.43Z" fill="#d1785e"
    stroke-width="0" />
  <path
    d="M402.42,48.79c.83.59,1.91.76,2.92.64,1.01-.12,1.95-.49,2.87-.9,2.41-1.08,4.86-2.66,5.6-5.15.25-.83.28-1.78-.17-2.54-.53-.91-1.66-1.41-2.73-1.38-1.07.02-2.07.49-2.91,1.12l-5.59,8.21Z"
    fill="#f0b297" stroke-width="0" />
  <path
    d="M380.01,40.76c-1.01-.07-1.96-.63-2.66-1.36-.7-.73-1.2-1.62-1.64-2.52-1.17-2.37-2.06-5.14-1.06-7.53.33-.8.91-1.55,1.74-1.86.99-.37,2.17-.03,2.98.66.81.7,1.28,1.7,1.54,2.71l-.9,9.89Z"
    fill="#f0b297" stroke-width="0" />
  <path
    d="M405.67,51.29c3.44-7.37,7.03-11.11,9.84-15.08,2.06-2.99,4.97-8.31,2.92-14.66-1.94-6.53-10.41-12.87-20.02-13.53-9.67-.67-16.38,2.72-17.41,8.94-.72,3.69-1.95,8.71-2.66,12.53-.59,3.17-2.58,5.86-2.52,9.18.26,5.77,5.09,17.46,11.38,19.71,5.14,1.84,16.79-3.94,18.47-7.09Z"
    fill="#f0b297" stroke-width="0" />
  <path
    d="M394.07,39.26c.02-.14.04-.27.07-.38.02-.11.04-.21.07-.31.03-.1.06-.21.12-.33.05-.12.12-.25.2-.39.15-.27.31-.54.39-.79.09-.25.1-.47.01-.64-.09-.16-.22-.2-.41-.15-.19.06-.43.21-.71.45-.28.24-.62.6-.86,1.07-.12.24-.2.5-.25.76-.05.26-.05.52-.04.77.01.25.06.48.11.7.05.22.12.42.19.6.14.36.3.65.44.88.28.45.48.64.7.46.21-.17.3-.43.23-.86-.03-.22-.11-.48-.18-.79-.03-.16-.07-.32-.09-.5-.02-.17-.02-.36,0-.54Z"
    fill="#d1785e" stroke-width="0" />
  <path
    d="M401.64,33.38c.92.11,1.82.39,2.64.81.83.42,1.58.99,2.21,1.68.63.69,0,1.36-.71.89-.7-.47-1.42-.89-2.15-1.27-.74-.38-1.49-.71-2.28-1.01-.79-.3-.64-1.21.28-1.1Z"
    fill="#1a1a1a" stroke-width="0" />
  <path
    d="M391.17,29.55c-.79-.48-1.67-.82-2.58-1-.91-.18-1.85-.2-2.78-.05-.92.15-.84,1.06,0,1.14.84.07,1.66.18,2.47.34.81.16,1.61.36,2.42.62.81.25,1.25-.55.46-1.04Z"
    fill="#1a1a1a" stroke-width="0" />
  <path
    d="M388.03,35.75l.72-2.03c.34-.98-.17-2.06-1.15-2.4h0c-.98-.34-2.06.17-2.4,1.15l-.72,2.03c-.34.98,3.21,2.23,3.56,1.25Z"
    fill="#1a1a1a" stroke-width="0" />
  <path
    d="M400.22,40.12l.74-2.02c.36-.97,1.44-1.48,2.42-1.13h0c.97.35,1.48,1.44,1.13,2.42l-.74,2.02c-.35.97-3.9-.32-3.54-1.29Z"
    fill="#1a1a1a" stroke-width="0" />
  <path
    d="M387.52,44.43c2.63,2.29,6.45,2.93,9.71,1.74.5-.18.12-.93-.37-.74-3,1.1-6.48.39-8.87-1.69-.17-.15-.46-.05-.58.12-.14.21-.05.43.12.58h0Z"
    fill="#a33939" stroke-width="0" />
  <path
    d="M420.09,88.46c1.63,2.58,4.23,7.61,3.76,9.64-.47,2.03-11.61,56.46-12.35,59.98-1.48,7.05-20.44-7.52-19.68-12.2.76-4.67,3.25-39.8,3.25-39.8l17.73-22.25s5.56,1.91,7.28,4.63Z"
    fill="#8b9fbe" stroke-width="0" />
  <path
    d="M334.81,157.35c-.61-.22-1.02-.37-1.19-.43-3.07-1.15-11.31-7.11-11.89-9.66,9.76-16.47,11.5-27.88,13.18-38.92.95-6.21,4.16-19.25,4.16-19.25-.41-2.77,4.39-20.64,8.01-27.42l26.17-1.41,9.4,6.93,2.12.76,11.66.62,19.32,17.71c-1.51,7.54-9.16,24.39-11.23,26.27,0,0-6.21,12.3-9.76,17.64-6.01,9.03-12.22,18.37-15.05,37.13v.08c-1.07.79-7.13,1.6-9.77,1.1-8.46-1.61-34.05-10.76-35.14-11.15Z"
    fill="#cfd7e9" stroke-width="0" />
  <polygon
    points="384.23 78.72 389.58 76.29 389.53 68.99 384.1 66.48 378.31 64.97 373.63 70.58 376.22 75.85 348.3 134.18 354.24 149.8 368.75 141.51 384.23 78.72"
    fill="#6e78b3" stroke-width="0" />
  <polygon points="397.64 63.12 384.1 66.48 387.81 68.73 385.07 86.49 401.75 73.52 397.64 63.12" fill="#e7ebf4"
    stroke-width="0" />
  <polygon points="375.77 55.28 384.1 66.48 379.8 65.86 370.64 81.32 365.99 60.7 375.77 55.28" fill="#e7ebf4"
    stroke-width="0" />
  <path
    d="M342.57,60.35c-2.9.95-8.1,3.19-9.03,5.06-.93,1.87-20.68,41.28-26.02,52.12-4.71,10.61,15.88,18.13,18.23,15.57,2.35-2.56,24.96-43.26,24.96-43.26l.44-28.45s-5.51-2.06-8.57-1.05Z"
    fill="#8b9fbe" stroke-width="0" />
  <path
    d="M418.59,86.87l-17.86-15.92-24.15,47.21-22.86,61.25c6.05,8.33,21.5,11.74,23.85,10.27,2.36-1.47,4.65-16.2,5.26-18.97,6.41-29.31,22.46-57.29,22.46-57.29,0,0,12.1-19.3,13.3-26.53Z"
    fill="#8b9fbe" stroke-width="0" />
  <path
    d="M358.04,111.03l10.37-51.67-23.18.73c-3.67,6.35-7.31,29.17-7.31,29.17,0,0-3.47,31.94-17.89,57.91-1.06,2.34-9.26,16.37-8.69,18.47.57,2.09,16.63,12.2,25.42,10.04l21.28-64.64Z"
    fill="#8b9fbe" stroke-width="0" />
  <path
    d="M410.98,32.71c-.75-.33-1.46-.79-2.03-1.35-1.54-1.5-3.35-2.77-3.79-4.74-.58-2.64,1.8-5.16.06-6.45-2.76-2.05-9.96-1.36-12.14-3.93-.46-.54-.78-1.18-.96-1.83-.99.7-2.26,1.18-3.46,1.58-2.17.72-4.58,1.57-5.41,3.54-.51,1.21-.31,2.6-.4,3.92-.17,2.5-4.43,8.65-4.43,8.65-.34-1.16-1.01-5.3-.97-6.94.05-1.9.97-3.63,1.17-5.51.22-2.02-.42-4.12-.13-6.12.33-2.29,1.95-4.28,4.17-5.26.24-1.08.58-2.14,1.07-3.13,1.04-2.12,2.88-3.97,5.33-4.64,2.18-.59,4.84-.06,6.5,1.48,4.49-1.73,9.49-2.97,13.93-.85,4,1.9,6.21,5.95,9.49,8.83,1.92,1.68,4.22,2.96,6.18,4.6,1.96,1.64,3.65,3.84,3.67,6.18,0,1.19-.57,2.35-1.47,3.13.49.7.74,1.56.66,2.35-.18,1.75-1.5,3.13-2.89,4.27-1.39,1.14-5.83,1.73-6.7,3.24-.99,1.71-7.61,9.98-7.61,9.98l1.32-10.62c-.4-.08-.79-.21-1.17-.37Z"
    fill="#a0864a" stroke-width="0" />
  <path
    d="M404.47,159.57c.7-1.3.85-16.16-3.92-20-4.77-3.83-54.61-27.77-54.61-27.77,0,0-4.29,3.53-4.62,7.35,0,0,33.61,26.63,38.1,29.99,4.5,3.37,24.35,11.73,25.04,10.43Z"
    fill="#f0b297" stroke-width="0" />
  <path d="M347.92,113.29s-8.93-7.93-9.47-8.52l-5.43,15.17,10.76.2,4.14-6.85Z" fill="#f0b297" stroke-width="0" />
  <path
    d="M354.86,112.69l-8.81,14.16s30.73,23.08,43.86,31.14c13.13,8.06,21.03,4.87,21.56-.41.53-5.28-1-13.93-9.02-19.23-8.02-5.3-47.59-25.65-47.59-25.65Z"
    fill="#8b9fbe" stroke-width="0" />
  <path
    d="M312.38,127.2c.55-1.37,10.6-15.42,16.6-14.22,6,1.2,61.04,30.6,61.04,30.6,0,0-5.45,7.06-7.89,7.16,0,0-29.52-9.33-40.34-11.77-5.48-1.24-29.96-10.4-29.41-11.77Z"
    fill="#f0b297" stroke-width="0" />
  <path
    d="M378.05,148.2c2.54,2.84,5.98,4.57,9.04,6.75,1.25.89,2.79,1.8,4.11,1.19.74-.34,1.22-1.1,1.65-1.82,1.41-2.32.52-6.68,2.2-9.77,1.18-2.17,3.05-7,1.83-7.28-3.23-.75-10.08,2.43-13.92,2.91-.55.07-1.07.29-1.51.65-1.71,1.4-5.54,4.96-3.39,7.37Z"
    fill="#f0b297" stroke-width="0" />
  <path
    d="M393.56,146.31c3.26,1.26,5.55,1.91,8.37,2.23,1.77.2,4.07-.57,10.03-1.75,2.22-.44.22-2.68-2.04-2.48-3.37.29-2.79.39-6.79.27-3.25-.1-5.51-2.27-8.53-2.87-2.04-.4-2.99,3.86-1.04,4.61Z"
    fill="#f0b297" stroke-width="0" />
  <path
    d="M392.46,150.09c4.75,1.34,6.17,2.4,9.39,2.7,2.45.22,3.88-.31,7.97-.39,2.8-.05,2.26-3.31-.54-3.26-4.19.08-5.67.15-5.67.15-4.15-.3-7.74-2.62-11.78-3.41-2.72-.53-2.04,3.46.63,4.21Z"
    fill="#f0b297" stroke-width="0" />
  <path
    d="M391.14,152.95c3.66,2.16,7.29,3.82,9.27,4.18.92.17,5.07,0,6.21,0,1.75.01,3.36-.67,3.36-.67.95-.53.54-2.14-.62-2.27-1.35-.16-5.89-.15-8.77-.67-4.09-.73-5.6-3.61-9.52-4.8-2.64-.8-2.32,2.81.08,4.23Z"
    fill="#f0b297" stroke-width="0" />
  <path
    d="M388.56,155.9c3.27,1.8,4.59,2.01,6.09,2.6.7.27,3.43.74,5.04,1.26.87.28,3.41.69,3.41.69.84-.36.72-1.64-.18-1.92-1.04-.32-3.02-.86-5.21-1.71-3.12-1.2-5.52-3.72-8.43-5.32-1.96-1.08-2.68,3.32-.72,4.4Z"
    fill="#f0b297" stroke-width="0" />
  <path
    d="M392.89,144.99c2.44-2.32,3.97-3.95,5.48-3.96,1.63-.01,3.83-.05,4.86-.27,1.03-.22,2.35-1.15,2.81-2.14.92-2-3.36-1.97-6.38-2.46-2.4-.39-3.88,0-5.21.59-1.65.73-7.33,3.42-7.33,3.42l5.77,4.81Z"
    fill="#f0b297" stroke-width="0" />
  <path
    d="M374.03,150.87l9.01-14.66s-49.5-24.1-53.7-26.22c-4.2-2.12-13.55,1.03-16.56,6.5-3.01,5.47-3.95,10.45,1.56,13.87,5.51,3.43,59.69,20.51,59.69,20.51Z"
    fill="#8b9fbe" stroke-width="0" />
</svg>