<?xml version="1.0" encoding="UTF-8"?>
<svg id="Manager" xmlns="http://www.w3.org/2000/svg" viewBox="0 0 428.25 215.31">
  <rect x="34.98" y="2" width="391.28" height="183.41" rx="8.4" ry="8.4" fill="#282844" stroke="#6e78b3"
    stroke-miterlimit="10" stroke-width="4" /><text transform="translate(130.1 39.87)" fill="#f3edf7">
    <tspan x="0" y="0" xml:space="preserve" font-family="ChangaOne, &apos;Changa One&apos;" font-size="20.33"
      letter-spacing="0em">Manager: </tspan>
    <tspan x="95.41" y="0" font-family="Lato-Regular, Lato" font-size="17.79" letter-spacing="0em">L</tspan>
    <tspan x="104.41" y="0" font-family="Lato-Regular, Lato" font-size="17.79" letter-spacing="0em">orem ipsum dolor sit
    </tspan>
    <tspan font-family="Lato-Regular, Lato" font-size="17.79" letter-spacing="0em">
      <tspan x="0" y="24">amet, consece adipiscing elit. Etiam </tspan>
    </tspan>
    <tspan font-family="Lato-Regular, Lato" font-size="17.79" letter-spacing="0em">
      <tspan x="0" y="47.99">at tellus eget dui dapibus commodo </tspan>
    </tspan>
    <tspan font-family="Lato-Regular, Lato" font-size="17.79">
      <tspan x="0" y="71.98" letter-spacing="0em">et eget ipsum. </tspan>
      <tspan x="113.65" y="71.98" letter-spacing="0em">P</tspan>
      <tspan x="124.44" y="71.98" letter-spacing="0em">ellentesque </tspan>
    </tspan>
    <tspan font-family="Lato-Regular, Lato" font-size="17.79" letter-spacing="0em">
      <tspan x="0" y="95.98">habitant morbi tristique senectus et </tspan>
    </tspan>
    <tspan font-family="Lato-Regular, Lato" font-size="17.79" letter-spacing="0em">
      <tspan x="0" y="119.97">netus et malesuada fames acet.</tspan>
    </tspan>
  </text>
  <rect x="62.41" y="71.78" width="26.69" height="22.44" transform="translate(-24.42 133.92) rotate(-74.56)"
    fill="#f0b297" stroke-width="0" />
  <path d="M90.12,73.12l-2.19,7.91c-6.58,2.87-14.66,3.8-23.81,1.94l4.37-15.82,21.63,5.97Z" fill="#d1785e"
    stroke-width="0" />
  <path
    d="M91.67,69.81c.89.54,2,.62,3.01.43,1.01-.19,1.95-.65,2.84-1.13,2.37-1.28,4.73-3.07,5.3-5.65.19-.86.15-1.82-.36-2.57-.61-.89-1.79-1.3-2.87-1.2-1.08.1-2.06.66-2.87,1.36l-5.05,8.77Z"
    fill="#f0b297" stroke-width="0" />
  <path
    d="M68.29,63.35c-1.04,0-2.03-.49-2.8-1.18-.77-.69-1.34-1.55-1.86-2.43-1.37-2.32-2.48-5.07-1.65-7.57.28-.84.81-1.64,1.63-2.02.98-.45,2.21-.2,3.08.45.88.65,1.43,1.62,1.77,2.64l-.17,10.12Z"
    fill="#f0b297" stroke-width="0" />
  <path
    d="M95.16,72.1c2.94-7.75,6.29-11.82,8.85-16.06,1.87-3.19,4.42-8.82,1.85-15.11-2.47-6.48-11.55-12.29-21.36-12.22-9.87.05-16.43,4-17,10.4-.45,3.8-1.32,9-1.75,12.93-.36,3.27-2.18,6.15-1.86,9.51.71,5.84,6.49,17.35,13.05,19.16,5.36,1.48,16.76-5.28,18.23-8.61Z"
    fill="#f0b297" stroke-width="0" />
  <path
    d="M82.47,60.76c.01-.15.02-.28.04-.39.02-.12.03-.22.05-.32.02-.1.05-.22.09-.35.04-.13.11-.27.17-.41.13-.28.27-.58.34-.83.07-.26.06-.48-.04-.65-.1-.16-.24-.19-.42-.12-.18.07-.42.24-.69.51-.27.27-.58.65-.79,1.16-.1.25-.17.52-.19.79-.03.27-.01.53.02.78.03.25.09.49.16.7.07.22.16.42.24.59.17.35.35.64.51.86.32.43.53.61.74.42.2-.19.27-.46.17-.89-.05-.22-.14-.48-.24-.79-.05-.16-.09-.32-.13-.5-.03-.17-.04-.36-.03-.55Z"
    fill="#d1785e" stroke-width="0" />
  <path
    d="M89.71,54.21c.94.04,1.87.26,2.74.62.87.37,1.68.89,2.38,1.54.69.65.11,1.38-.65.96-.75-.42-1.51-.79-2.28-1.12-.78-.33-1.57-.61-2.39-.85-.82-.25-.74-1.18.2-1.14Z"
    fill="#1a1a1a" stroke-width="0" />
  <path
    d="M78.78,51.12c-.84-.43-1.76-.71-2.69-.82-.94-.11-1.9-.06-2.83.16-.92.23-.77,1.14.09,1.15.86,0,1.7.06,2.54.15.84.1,1.67.25,2.5.44.84.19,1.23-.66.39-1.09Z"
    fill="#1a1a1a" stroke-width="0" />
  <path
    d="M76.06,57.66l.57-2.12c.28-1.02-.33-2.08-1.35-2.35h0c-1.02-.28-2.08.33-2.35,1.35l-.57,2.12c-.28,1.02,3.43,2.02,3.71,1Z"
    fill="#1a1a1a" stroke-width="0" />
  <path
    d="M88.78,61.17l.6-2.11c.29-1.02,1.35-1.61,2.37-1.33h0c1.02.29,1.61,1.35,1.33,2.37l-.6,2.11c-.29,1.02-3.98-.03-3.7-1.04Z"
    fill="#1a1a1a" stroke-width="0" />
  <path
    d="M76.2,66.51c2.85,2.13,6.78,2.49,10,1.03.5-.23.06-.95-.44-.73-2.96,1.34-6.55.89-9.14-1.04-.19-.14-.47-.02-.58.16-.13.22-.02.44.16.58h0Z"
    fill="#a33939" stroke-width="0" />
  <path
    d="M112.63,108.76c1.85,2.49,4.87,7.41,4.55,9.51-.32,2.1-7.51,58.23-7.99,61.86-.97,7.28-21.33-6.09-20.91-10.9.42-4.8.28-40.68.28-40.68l16.32-23.95s5.8,1.52,7.75,4.15Z"
    fill="#8b9fbe" stroke-width="0" />
  <path
    d="M31.23,185.21c-.64-.18-1.07-.3-1.24-.35-3.21-.93-12.03-6.36-12.82-8.91,8.67-17.47,9.57-29.19,10.44-40.53.49-6.38,2.77-19.87,2.77-19.87-.62-2.78,2.89-21.3,6.05-28.46l26.48-3.42,10.08,6.32,2.22.61,11.89-.25,20.97,16.52c-.96,7.77-7.46,25.47-9.42,27.53,0,0-5.37,12.97-8.57,18.66-5.42,9.63-11.02,19.59-12.47,38.85v.09c-1.02.88-7.11,2.17-9.83,1.86-8.72-.99-35.4-8.35-36.54-8.66Z"
    fill="#cfd7e9" stroke-width="0" />
  <polygon
    points="75.46 101.59 80.71 98.72 80.11 91.3 74.4 89.17 68.4 88.07 64.08 94.12 67.11 99.29 43.17 160.65 50.39 176.07 64.51 166.55 75.46 101.59"
    fill="#6e78b3" stroke-width="0" />
  <polygon points="87.9 84.73 74.4 89.17 78.34 91.17 76.9 109.42 92.87 94.98 87.9 84.73" fill="#e7ebf4"
    stroke-width="0" />
  <polygon points="65.09 78.43 74.4 89.17 69.99 88.87 61.86 105.26 55.57 84.67 65.09 78.43" fill="#e7ebf4"
    stroke-width="0" />
  <path
    d="M31.75,86.09c-2.87,1.19-7.98,3.86-8.79,5.82-.8,1.97-17.87,43.5-22.48,54.92-3.98,11.14,17.5,17.21,19.7,14.44,2.19-2.77,22.07-45.83,22.07-45.83l-1.72-28.93s-5.75-1.67-8.78-.42Z"
    fill="#8b9fbe" stroke-width="0" />
  <path
    d="M110.99,107.26l-19.35-14.82-20.95,49.78-18.57,63.95c6.78,8,22.73,10.3,25.01,8.62,2.28-1.68,3.49-16.81,3.9-19.67,4.29-30.26,18.47-59.9,18.47-59.9,0,0,10.82-20.53,11.49-27.96Z"
    fill="#8b9fbe" stroke-width="0" />
  <path
    d="M51.32,136.4l6.61-53.27-23.49,2.5c-3.24,6.72-5.21,30.18-5.21,30.18,0,0-1.1,32.71-13.78,60.18-.9,2.45-8.16,17.33-7.43,19.42.73,2.08,17.82,11.13,26.58,8.27l16.71-67.28Z"
    fill="#8b9fbe" stroke-width="0" />
  <path
    d="M99.14,52.82c-.79-.27-1.54-.7-2.16-1.22-1.67-1.4-3.62-2.56-4.21-4.53-.79-2.64,1.44-5.38-.43-6.55-2.96-1.87-10.22-.63-12.63-3.07-.51-.52-.89-1.14-1.11-1.79-.96.78-2.21,1.37-3.4,1.86-2.15.89-4.53,1.94-5.23,4-.43,1.27-.11,2.67-.1,4.01.02,2.56-3.84,9.13-3.84,9.13-.44-1.16-1.43-5.31-1.51-6.97-.1-1.93.71-3.76.77-5.69.07-2.07-.74-4.15-.59-6.21.16-2.35,1.66-4.5,3.84-5.66.16-1.12.43-2.22.85-3.27.9-2.23,2.62-4.25,5.06-5.12,2.17-.76,4.92-.43,6.72,1.01,4.43-2.09,9.41-3.74,14.09-1.93,4.21,1.63,6.76,5.58,10.31,8.25,2.08,1.56,4.51,2.69,6.63,4.21,2.12,1.52,4,3.62,4.19,6,.1,1.2-.4,2.43-1.25,3.29.55.67.87,1.52.85,2.33-.05,1.79-1.29,3.29-2.61,4.55-1.32,1.26-5.79,2.2-6.56,3.8-.87,1.81-6.97,10.72-6.97,10.72l.53-10.89c-.41-.05-.82-.15-1.22-.29Z"
    fill="#a0864a" stroke-width="0" />
  <path
    d="M102.16,182.18c.61-1.37-.36-16.48-5.5-20.02-5.13-3.53-57.58-24.07-57.58-24.07,0,0-4.09,3.91-4.13,7.81,0,0,36.16,24.5,40.98,27.58,4.82,3.08,25.62,10.06,26.23,8.69Z"
    fill="#f0b297" stroke-width="0" />
  <path d="M41.2,139.46s-9.67-7.38-10.27-7.93l-4.37,15.82,10.95-.61,3.69-7.27Z" fill="#f0b297" stroke-width="0" />
  <path
    d="M48.21,138.33l-7.87,15.05s32.97,21.12,46.92,28.31c13.95,7.19,21.73,3.35,21.87-2.05.14-5.4-2.07-14.08-10.62-18.85-8.55-4.78-50.29-22.45-50.29-22.45Z"
    fill="#8b9fbe" stroke-width="0" />
  <path
    d="M6.16,156.29c.45-1.43,9.6-16.47,15.78-15.7,6.18.76,64.33,26.45,64.33,26.45,0,0-5,7.58-7.47,7.87,0,0-30.7-7.24-41.87-8.9-5.66-.84-31.22-8.29-30.77-9.72Z"
    fill="#f0b297" stroke-width="0" />
  <path
    d="M74.46,172.64c2.79,2.7,6.42,4.19,9.69,6.17,1.33.81,2.97,1.62,4.27.9.73-.41,1.15-1.21,1.54-1.98,1.25-2.46.02-6.82,1.5-10.09,1.03-2.29,2.57-7.34,1.3-7.54-3.34-.52-10.06,3.24-13.92,4.01-.56.11-1.07.38-1.49.78-1.64,1.55-5.25,5.46-2.89,7.75Z"
    fill="#f0b297" stroke-width="0" />
  <path
    d="M90.07,169.54c3.41,1.03,5.78,1.52,8.68,1.63,1.81.07,4.09-.89,10.05-2.54,2.22-.61.02-2.73-2.26-2.37-3.41.55-2.8.61-6.87.79-3.3.15-5.77-1.89-8.89-2.27-2.1-.25-2.74,4.14-.71,4.76Z"
    fill="#f0b297" stroke-width="0" />
  <path
    d="M89.24,173.47c4.92,1,6.45,1.97,9.74,2.03,2.51.04,3.92-.61,8.06-1,2.84-.27,2.05-3.54-.79-3.27-4.25.4-5.75.58-5.75.58-4.24.01-8.07-2.07-12.23-2.57-2.8-.33-1.81,3.67.96,4.23Z"
    fill="#f0b297" stroke-width="0" />
  <path
    d="M88.12,176.47c3.88,1.91,7.7,3.32,9.73,3.54.94.1,5.16-.38,6.31-.46,1.78-.12,3.36-.94,3.36-.94.93-.62.38-2.21-.8-2.26-1.39-.06-5.99.29-8.96-.01-4.21-.43-5.96-3.24-10.03-4.15-2.74-.61-2.15,3.03.4,4.29Z"
    fill="#f0b297" stroke-width="0" />
  <path
    d="M85.72,179.66c3.46,1.58,4.81,1.7,6.39,2.18.73.22,3.54.49,5.21.89.9.22,3.52.44,3.52.44.82-.43.61-1.72-.33-1.93-1.09-.25-3.13-.64-5.43-1.34-3.26-.99-5.89-3.36-8.97-4.77-2.07-.95-2.47,3.57-.4,4.52Z"
    fill="#f0b297" stroke-width="0" />
  <path
    d="M89.29,168.25c2.3-2.54,3.73-4.32,5.26-4.44,1.66-.13,3.89-.34,4.92-.64,1.03-.31,2.3-1.34,2.69-2.39.78-2.1-3.56-1.75-6.67-2.01-2.47-.21-3.94.3-5.24,1-1.62.87-7.19,4.03-7.19,4.03l6.23,4.45Z"
    fill="#f0b297" stroke-width="0" />
  <path
    d="M70.58,175.66l8.04-15.58s-52.11-20.72-56.54-22.55c-4.43-1.83-13.68,2.07-16.33,7.86-2.65,5.79-3.22,10.91,2.64,13.97,5.86,3.06,62.19,16.3,62.19,16.3Z"
    fill="#8b9fbe" stroke-width="0" />
</svg>