<?xml version="1.0" encoding="UTF-8"?>
<svg id="Layer_1" xmlns="http://www.w3.org/2000/svg" viewBox="0 0 105.03 163.32">
  <rect x="59.16" y="37.3" width="23.5" height="19.76" transform="translate(2.57 98.02) rotate(-70.29)" fill="#f0b297"
    stroke-width="0" />
  <path d="M84.18,39.45l-2.44,6.8c-5.97,2.09-13.13,2.37-21.04.14l4.88-13.61,18.6,6.67Z" fill="#d1785e"
    stroke-width="0" />
  <path
    d="M85.76,36.65c.74.53,1.71.68,2.62.57.9-.1,1.75-.44,2.57-.81,2.16-.97,4.36-2.39,5.03-4.62.22-.75.25-1.59-.15-2.28-.48-.82-1.49-1.26-2.45-1.24-.96.02-1.86.44-2.61,1l-5.01,7.37Z"
    fill="#f0b297" stroke-width="0" />
  <path
    d="M65.65,29.44c-.91-.06-1.75-.56-2.39-1.22-.63-.65-1.07-1.45-1.47-2.26-1.05-2.12-1.85-4.61-.95-6.76.3-.72.82-1.39,1.56-1.67.89-.33,1.95-.03,2.68.6.73.62,1.15,1.52,1.38,2.43l-.81,8.87Z"
    fill="#f0b297" stroke-width="0" />
  <path
    d="M88.66,38.89c3.09-6.62,6.3-9.97,8.82-13.52,1.85-2.68,4.46-7.46,2.61-13.15-1.74-5.86-9.34-11.55-17.96-12.14-8.67-.6-14.69,2.44-15.62,8.02-.64,3.31-1.75,7.82-2.38,11.24-.53,2.85-2.32,5.25-2.26,8.23.24,5.18,4.56,15.66,10.21,17.68,4.61,1.65,15.06-3.54,16.57-6.36Z"
    fill="#f0b297" stroke-width="0" />
  <path
    d="M78.27,28.09c.02-.13.04-.24.06-.34.02-.1.04-.19.06-.28.02-.09.06-.19.11-.3.05-.11.11-.23.18-.35.13-.24.27-.49.35-.71.08-.22.09-.42,0-.57-.08-.15-.2-.18-.37-.13-.17.05-.38.19-.64.41-.25.22-.55.54-.77.96-.11.21-.18.45-.22.68-.04.23-.04.46-.03.69.01.22.05.43.1.63.05.2.11.38.17.53.13.32.27.58.39.79.25.4.43.57.63.41.19-.15.27-.38.2-.77-.03-.2-.1-.43-.16-.71-.03-.14-.06-.29-.08-.45-.01-.15-.02-.32,0-.48Z"
    fill="#d1785e" stroke-width="0" />
  <path
    d="M85.06,22.82c.82.1,1.63.35,2.37.73.74.38,1.42.89,1.99,1.51.56.62,0,1.22-.63.8-.63-.42-1.27-.8-1.93-1.14-.66-.34-1.34-.64-2.04-.91-.71-.27-.57-1.08.25-.99Z"
    fill="#1a1a1a" stroke-width="0" />
  <path
    d="M75.66,19.38c-.71-.43-1.5-.73-2.31-.89-.82-.16-1.66-.18-2.49-.05-.83.14-.75.95,0,1.02.76.06,1.49.16,2.22.3.73.14,1.45.33,2.17.55.72.22,1.12-.5.42-.93Z"
    fill="#1a1a1a" stroke-width="0" />
  <path
    d="M72.84,24.95l.64-1.82c.31-.88-.16-1.85-1.03-2.16h0c-.88-.31-1.85.16-2.16,1.03l-.64,1.82c-.31.88,2.88,2,3.19,1.12Z"
    fill="#1a1a1a" stroke-width="0" />
  <path
    d="M83.78,28.87l.66-1.82c.32-.87,1.29-1.33,2.17-1.01h0c.87.32,1.33,1.29,1.01,2.17l-.66,1.82c-.32.87-3.5-.28-3.18-1.16Z"
    fill="#1a1a1a" stroke-width="0" />
  <path
    d="M80.94,34.31c-2.35-2.07-5.77-2.67-8.7-1.62-.45.16-.12.83.33.67,2.69-.96,5.82-.31,7.95,1.57.15.13.41.05.52-.1.13-.18.05-.39-.1-.52h0Z"
    fill="#a33939" stroke-width="0" />
  <path
    d="M101.6,72.23c1.46,2.31,3.79,6.83,3.38,8.65-.42,1.82-10.41,50.65-11.08,53.8-1.33,6.33-18.33-6.75-17.65-10.94.68-4.19,2.91-35.7,2.91-35.7l15.9-19.96s4.99,1.71,6.53,4.15Z"
    fill="#8b9fbe" stroke-width="0" />
  <path
    d="M25.1,134.03c-.55-.2-.92-.33-1.07-.39-2.76-1.03-10.14-6.38-10.67-8.67,8.76-14.77,10.32-25.01,11.83-34.91.85-5.57,3.73-17.26,3.73-17.26-.36-2.48,3.94-18.52,7.18-24.6l23.48-1.27,8.43,6.21,1.91.68,10.46.56,17.33,15.89c-1.36,6.76-8.22,21.88-10.08,23.56,0,0-5.57,11.04-8.75,15.82-5.39,8.1-10.96,16.48-13.5,33.3v.07c-.96.71-6.4,1.44-8.76.99-7.59-1.44-30.54-9.65-31.52-10Z"
    fill="#cfd7e9" stroke-width="0" />
  <polygon
    points="69.43 63.5 74.24 61.32 74.19 54.76 69.32 52.51 64.12 51.16 59.93 56.19 62.25 60.92 37.2 113.24 42.53 127.26 55.55 119.82 69.43 63.5"
    fill="#6e78b3" stroke-width="0" />
  <polygon points="81.46 49.5 69.32 52.51 72.64 54.53 70.18 70.46 85.15 58.83 81.46 49.5" fill="#e7ebf4"
    stroke-width="0" />
  <polygon points="61.85 42.47 69.32 52.51 65.46 51.96 57.25 65.82 53.08 47.33 61.85 42.47" fill="#e7ebf4"
    stroke-width="0" />
  <path
    d="M32.07,47.01c-2.6.86-7.27,2.86-8.1,4.54-.83,1.67-18.55,37.03-23.34,46.76-4.22,9.52,14.24,16.26,16.35,13.97,2.11-2.29,22.39-38.8,22.39-38.8l.39-25.52s-4.94-1.85-7.68-.94Z"
    fill="#8b9fbe" stroke-width="0" />
  <path
    d="M100.26,70.8l-16.02-14.28-21.66,42.35-20.51,54.94c5.43,7.47,19.29,10.54,21.4,9.21,2.11-1.32,4.17-14.54,4.72-17.02,5.75-26.29,20.15-51.39,20.15-51.39,0,0,10.85-17.31,11.93-23.8Z"
    fill="#8b9fbe" stroke-width="0" />
  <path
    d="M45.95,92.48l9.3-46.35-20.79.65c-3.29,5.69-6.55,26.17-6.55,26.17,0,0-3.11,28.65-16.05,51.95-.95,2.1-8.31,14.69-7.8,16.56.51,1.88,14.92,10.94,22.8,9.01l19.09-57.98Z"
    fill="#8b9fbe" stroke-width="0" />
  <path
    d="M87.59,136.02c.62-1.16.76-14.5-3.52-17.94-4.28-3.44-48.99-24.92-48.99-24.92,0,0-3.85,3.17-4.14,6.59,0,0,30.15,23.89,34.18,26.91,4.03,3.02,21.84,10.52,22.47,9.36Z"
    fill="#f0b297" stroke-width="0" />
  <path d="M36.86,94.5s-8.01-7.12-8.5-7.64l-4.88,13.6,9.65.18,3.72-6.14Z" fill="#f0b297" stroke-width="0" />
  <path
    d="M43.09,93.97l-7.9,12.7s27.57,20.71,39.34,27.94c11.78,7.23,18.86,4.37,19.34-.37.48-4.74-.89-12.5-8.09-17.25-7.2-4.76-42.69-23.01-42.69-23.01Z"
    fill="#8b9fbe" stroke-width="0" />
  <path
    d="M4.98,106.98c.49-1.23,9.51-13.83,14.89-12.75,5.38,1.08,54.75,27.45,54.75,27.45,0,0-4.89,6.33-7.07,6.42,0,0-26.48-8.37-36.19-10.56-4.92-1.11-26.87-9.33-26.38-10.56Z"
    fill="#f0b297" stroke-width="0" />
  <path
    d="M63.89,125.82c2.27,2.55,5.36,4.1,8.11,6.05,1.12.8,2.5,1.62,3.69,1.07.67-.31,1.09-.99,1.48-1.63,1.26-2.08.47-5.99,1.97-8.76,1.06-1.94,2.74-6.28,1.64-6.53-2.9-.67-9.04,2.18-12.49,2.61-.5.06-.96.26-1.36.58-1.54,1.25-4.97,4.45-3.04,6.61Z"
    fill="#f0b297" stroke-width="0" />
  <path
    d="M77.8,124.12c2.93,1.13,4.98,1.71,7.51,2,1.59.18,3.65-.51,8.99-1.57,1.99-.39.2-2.4-1.83-2.23-3.03.26-2.5.35-6.09.24-2.91-.09-4.94-2.04-7.66-2.58-1.83-.36-2.68,3.46-.93,4.13Z"
    fill="#f0b297" stroke-width="0" />
  <path
    d="M76.82,127.52c4.26,1.2,5.53,2.16,8.42,2.42,2.2.2,3.48-.28,7.15-.35,2.52-.05,2.03-2.97-.48-2.93-3.75.07-5.09.13-5.09.13-3.72-.27-6.95-2.35-10.57-3.06-2.44-.48-1.83,3.1.57,3.78Z"
    fill="#f0b297" stroke-width="0" />
  <path
    d="M75.63,130.08c3.28,1.93,6.54,3.42,8.31,3.75.82.15,4.55,0,5.57,0,1.57.01,3.01-.6,3.01-.6.86-.48.48-1.92-.56-2.04-1.21-.14-5.28-.14-7.87-.6-3.67-.65-5.02-3.24-8.54-4.3-2.37-.72-2.08,2.52.07,3.79Z"
    fill="#f0b297" stroke-width="0" />
  <path
    d="M73.32,132.73c2.94,1.61,4.11,1.81,5.46,2.33.63.24,3.07.66,4.52,1.13.78.25,3.06.62,3.06.62.75-.33.64-1.47-.16-1.72-.94-.29-2.71-.77-4.68-1.53-2.8-1.08-4.95-3.34-7.56-4.77-1.76-.97-2.41,2.97-.64,3.94Z"
    fill="#f0b297" stroke-width="0" />
  <path
    d="M77.2,122.94c2.19-2.08,3.56-3.55,4.91-3.55,1.46,0,3.44-.04,4.36-.24.92-.2,2.11-1.03,2.52-1.92.83-1.79-3.01-1.77-5.72-2.2-2.16-.35-3.48,0-4.67.53-1.48.66-6.58,3.07-6.58,3.07l5.18,4.32Z"
    fill="#f0b297" stroke-width="0" />
  <path
    d="M60.29,128.22l8.08-13.15s-44.4-21.62-48.17-23.52c-3.77-1.9-12.15.92-14.86,5.83-2.7,4.91-3.55,9.37,1.4,12.45,4.95,3.08,53.54,18.39,53.54,18.39Z"
    fill="#8b9fbe" stroke-width="0" />
</svg>