<?xml version="1.0" encoding="UTF-8" standalone="no"?><!DOCTYPE svg PUBLIC "-//W3C//DTD SVG 1.1//EN" "http://www.w3.org/Graphics/SVG/1.1/DTD/svg11.dtd"><svg width="100%" height="100%" viewBox="0 0 1360 499" version="1.1" xmlns="http://www.w3.org/2000/svg" xmlns:xlink="http://www.w3.org/1999/xlink" xml:space="preserve" xmlns:serif="http://www.serif.com/" style="fill-rule:evenodd;clip-rule:evenodd;stroke-linejoin:round;stroke-miterlimit:2;"><g id="Layer_4"><path d="M1335.42,177.5l-0,160c-0,54.583 -44.167,98.75 -98.75,98.75l-1114.17,0c-54.583,0 -98.75,-44.167 -98.75,-98.75l0,-160c0,-54.583 44.167,-98.75 98.75,-98.75l1114.17,0c54.583,0 98.75,44.167 98.75,98.75Z" style="fill:url(#_Linear1);fill-rule:nonzero;"/><path d="M1318.33,179.167l0,157.083c0,45.763 -37.153,82.917 -82.916,82.917l-1111.25,-0c-45.763,-0 -82.917,-37.154 -82.917,-82.917l-0,-157.083c-0,-45.763 37.154,-82.917 82.917,-82.917l1111.25,0c45.763,0 82.916,37.154 82.916,82.917Z" style="fill:#55cf21;"/></g><defs><linearGradient id="_Linear1" x1="0" y1="0" x2="1" y2="0" gradientUnits="userSpaceOnUse" gradientTransform="matrix(-165,-842.917,842.917,-165,780.833,774.583)"><stop offset="0" style="stop-color:#bdf8c7;stop-opacity:1"/><stop offset="1" style="stop-color:#d9ffde;stop-opacity:1"/></linearGradient></defs></svg>