<?xml version="1.0" encoding="UTF-8"?><svg id="Logo" xmlns="http://www.w3.org/2000/svg" xmlns:xlink="http://www.w3.org/1999/xlink" viewBox="0 0 463.68 141.59"><defs><linearGradient id="linear-gradient" x1="246.96" y1="47.24" x2="406.5" y2="47.24" gradientTransform="translate(-105.64 69.31)" gradientUnits="userSpaceOnUse"><stop offset="0" stop-color="#fa6b49"/><stop offset="1" stop-color="#feb749"/></linearGradient></defs><path d="M26.37,91.55H2.82L7.1,21.13h29.41l8.79,35.83h.79l8.79-35.83h29.41l4.28,70.43h-23.55l-1.35-34.14h-.79l-8.56,34.14h-17.24l-8.68-34.14h-.68l-1.35,34.14Z" fill="#f3edf7" stroke-width="0"/><path d="M97.02,91.55V21.13h22.54v70.43h-22.54Z" fill="#f3edf7" stroke-width="0"/><path d="M180.96,39.16h-16.34v52.4h-22.54v-52.4h-16.34v-18.03h55.21v18.03Z" fill="#f3edf7" stroke-width="0"/><path d="M187.16,91.55V21.13h22.54v70.43h-22.54Z" fill="#f3edf7" stroke-width="0"/><path d="M257.02,70.82v-3.04h-5.75v-17.24h27.16v37.63c-8.94,3.38-18.18,5.07-27.72,5.07-12.85,0-21.67-3.12-26.48-9.35-2.48-3.23-4.21-7.02-5.18-11.38-.98-4.36-1.46-9.75-1.46-16.17s.51-11.79,1.52-16.11c1.01-4.32,2.83-8.09,5.47-11.32,4.96-6.31,14.54-9.47,28.73-9.47,2.93,0,6.74.3,11.44.9,4.69.6,8.13,1.28,10.31,2.03l-3.38,17.24c-6.08-1.05-11.59-1.58-16.51-1.58s-8.38.38-10.37,1.13c-1.99.75-2.99,2.25-2.99,4.51v31.89h7.44c2.7,0,4.68-.28,5.92-.84,1.24-.56,1.86-1.86,1.86-3.89Z" fill="#f3edf7" stroke-width="0"/><path d="M305.36,91.55h-23.78l18.25-70.43h34.82l18.25,70.43h-23.78l-2.59-11.16h-18.59l-2.59,11.16ZM316.63,42.76l-4.62,19.72h10.37l-4.51-19.72h-1.24Z" fill="#f3edf7" stroke-width="0"/><path d="M403.39,39.16h-16.34v52.4h-22.54v-52.4h-16.34v-18.03h55.21v18.03Z" fill="#f3edf7" stroke-width="0"/><path d="M454.66,64.96h-22.54v8.56h27.61v18.03h-50.14V21.13h49.58l-2.82,18.03h-24.23v9.46h22.54v16.34Z" fill="#f3edf7" stroke-width="0"/><rect x="141.32" y="96.47" width="159.54" height="40.16" rx="9.9" ry="9.9" transform="translate(-7.75 16.06) rotate(-4.09)" fill="url(#linear-gradient)" stroke-width="0"/><path d="M161.77,120.42c-.23-3.2.2-5.58,1.3-7.14,1.09-1.56,3.21-2.45,6.33-2.67s5.34.36,6.65,1.74,2.07,3.68,2.3,6.88c.11,1.59.08,2.94-.09,4.04-.17,1.1-.54,2.08-1.1,2.93-.56.85-1.37,1.5-2.43,1.95s-2.39.74-4.01.85-2.97.02-4.09-.27-2.01-.83-2.68-1.59c-.68-.76-1.18-1.68-1.51-2.75-.33-1.07-.55-2.4-.67-3.99ZM167.6,117.07l.52,7.31,2.33-.17c.77-.05,1.32-.18,1.65-.39.33-.2.48-.62.43-1.26l-.52-7.31-2.36.17c-.75.05-1.29.18-1.62.39-.33.2-.48.62-.43,1.26Z" fill="#f3edf7" stroke-width="0"/><path d="M196.87,126.73l-4.75-5.93c-.16-.19-.29-.64-.38-1.33h-.11s.54,7.59.54,7.59l-5.62.4-1.25-17.56,5.28-.38,4.75,5.93c.16.2.29.64.38,1.33h.11s-.54-7.6-.54-7.6l5.62-.4,1.25,17.56-5.28.38Z" fill="#f3edf7" stroke-width="0"/><path d="M221.82,124.94l-11.24.8-1.25-17.56,5.62-.4.93,13.07,5.62-.4.32,4.5Z" fill="#f3edf7" stroke-width="0"/><path d="M228.99,124.43l-1.25-17.56,5.62-.4,1.25,17.56-5.62.4Z" fill="#f3edf7" stroke-width="0"/><path d="M253.35,122.69l-4.75-5.93c-.17-.19-.29-.64-.38-1.33h-.11s.54,7.6.54,7.6l-5.62.4-1.25-17.56,5.28-.38,4.75,5.93c.16.2.29.64.38,1.33h.11s-.54-7.59-.54-7.59l5.62-.4,1.25,17.56-5.28.38Z" fill="#f3edf7" stroke-width="0"/><path d="M277.83,114.27l-5.62.4.15,2.14,6.88-.49.32,4.49-12.5.89-1.25-17.56,12.36-.88-.38,4.54-6.04.43.17,2.36,5.62-.4.29,4.07Z" fill="#f3edf7" stroke-width="0"/></svg>