<?xml version="1.0" encoding="UTF-8"?>
<svg id="Timeline" xmlns="http://www.w3.org/2000/svg" xmlns:xlink="http://www.w3.org/1999/xlink"
  viewBox="0 0 359.53 58.4">
  <defs>
    <linearGradient id="Timeline_linear-gradient" x1="-563.96" y1="13.17" x2="-496.06" y2="13.17"
      gradientTransform="translate(-350.57) rotate(-180) scale(1 -1)" gradientUnits="userSpaceOnUse">
      <stop offset="0" stop-color="#43466e" />
      <stop offset="1" stop-color="#585e81" />
    </linearGradient>
    <linearGradient id="Timeline_linear-gradient-2" x1="3.23" y1="32.51" x2="358.64" y2="32.51"
      gradientTransform="matrix(1,0,0,1,0,0)" xlink:href="#Timeline_linear-gradient" />
    <clipPath id="Timeline_clippath">
      <path
        d="M346.14,25.01c-3.27,0-6.04,2.09-7.07,5.01h-20.36c-.73-.91-1.85-1.51-3.11-1.51s-2.37.6-3.11,1.51h-22.93c-.73-.91-1.85-1.51-3.11-1.51s-2.37.6-3.11,1.51h-19.78c-1.03-2.92-3.8-5.01-7.07-5.01s-6.04,2.09-7.07,5.01h-21.8c-.73-.91-1.85-1.51-3.11-1.51s-2.37.6-3.11,1.51h-22.93c-.73-.91-1.85-1.51-3.11-1.51s-2.37.6-3.11,1.51h-20.15c-1.03-2.92-3.8-5.01-7.07-5.01s-6.04,2.09-7.07,5.01h-21.52c-.73-.91-1.85-1.51-3.11-1.51s-2.37.6-3.11,1.51h-22.93c-.73-.91-1.85-1.51-3.11-1.51s-2.37.6-3.11,1.51h-22.93c-.73-.91-1.85-1.51-3.11-1.51s-2.37.6-3.11,1.51h-22.93c-.73-.91-1.85-1.51-3.11-1.51s-2.37.6-3.11,1.51h-20.03c-1.03-2.92-3.8-5.01-7.07-5.01-4.14,0-7.5,3.36-7.5,7.5s3.36,7.5,7.5,7.5c3.27,0,6.04-2.09,7.07-5.01h20.03c.73.91,1.85,1.51,3.11,1.51s2.37-.6,3.11-1.51h22.93c.73.91,1.85,1.51,3.11,1.51s2.37-.6,3.11-1.51h22.93c.73.91,1.85,1.51,3.11,1.51s2.37-.6,3.11-1.51h22.93c.73.91,1.85,1.51,3.11,1.51s2.37-.6,3.11-1.51h21.52c1.03,2.92,3.8,5.01,7.07,5.01s6.04-2.09,7.07-5.01h20.15c.73.91,1.85,1.51,3.11,1.51s2.37-.6,3.11-1.51h22.93c.73.91,1.85,1.51,3.11,1.51s2.37-.6,3.11-1.51h21.8c1.03,2.92,3.8,5.01,7.07,5.01s6.04-2.09,7.07-5.01h19.78c.73.91,1.85,1.51,3.11,1.51s2.37-.6,3.11-1.51h22.93c.73.91,1.85,1.51,3.11,1.51s2.37-.6,3.11-1.51h20.36c1.03,2.92,3.8,5.01,7.07,5.01,4.14,0,7.5-3.36,7.5-7.5s-3.36-7.5-7.5-7.5Z"
        fill="none" stroke-width="0" />
    </clipPath>
  </defs>
  <polygon points="213.38 25.44 205.06 .89 180.64 .89 178.23 .89 153.81 .89 145.49 25.44 213.38 25.44"
    fill="url(#Timeline_linear-gradient)" stroke="#6e78b3" stroke-miterlimit="10" stroke-width="1.78" /><text
    transform="translate(164.77 9.96)" fill="#edfdeb" font-family="ChangaOne, &apos;Changa One&apos;" font-size="8.99">
    <tspan x="0" y="0" letter-spacing=".02em">P</tspan>
    <tspan x="5.49" y="0">roject</tspan>
    <tspan x="-3.25" y="7.19">Timeline</tspan>
  </text>
  <path
    d="M346.14,20.01c-4.86,0-9.07,2.79-11.14,6.84h-13.31c-1.52-1.63-3.68-2.66-6.08-2.66s-4.56,1.03-6.08,2.66h-16.98c-1.52-1.63-3.68-2.66-6.08-2.66s-4.56,1.03-6.08,2.66h-12.74c-2.07-4.06-6.27-6.84-11.14-6.84s-9.07,2.79-11.14,6.84h-14.76c-1.52-1.63-3.68-2.66-6.08-2.66s-4.56,1.03-6.08,2.66h-16.98c-1.52-1.63-3.68-2.66-6.08-2.66s-4.56,1.03-6.08,2.66h-13.1c-2.07-4.06-6.27-6.84-11.14-6.84s-9.07,2.79-11.14,6.84h-14.47c-1.52-1.63-3.68-2.66-6.08-2.66s-4.56,1.03-6.08,2.66h-16.98c-1.52-1.63-3.68-2.66-6.08-2.66s-4.56,1.03-6.08,2.66h-16.98c-1.52-1.63-3.68-2.66-6.08-2.66s-4.56,1.03-6.08,2.66h-16.98c-1.52-1.63-3.68-2.66-6.08-2.66s-4.56,1.03-6.08,2.66h-12.98c-2.07-4.06-6.27-6.84-11.14-6.84-6.9,0-12.5,5.6-12.5,12.5s5.6,12.5,12.5,12.5c4.86,0,9.07-2.78,11.14-6.84h12.98c1.52,1.63,3.68,2.66,6.08,2.66s4.56-1.03,6.08-2.66h16.98c1.52,1.63,3.68,2.66,6.08,2.66s4.56-1.03,6.08-2.66h16.98c1.52,1.63,3.68,2.66,6.08,2.66s4.56-1.03,6.08-2.66h16.98c1.52,1.63,3.68,2.66,6.08,2.66s4.56-1.03,6.08-2.66h14.47c2.07,4.06,6.27,6.84,11.14,6.84s9.07-2.78,11.14-6.84h13.1c1.52,1.63,3.68,2.66,6.08,2.66s4.56-1.03,6.08-2.66h16.98c1.52,1.63,3.68,2.66,6.08,2.66s4.56-1.03,6.08-2.66h14.76c2.07,4.06,6.27,6.84,11.14,6.84s9.07-2.78,11.14-6.84h12.74c1.52,1.63,3.68,2.66,6.08,2.66s4.56-1.03,6.08-2.66h16.98c1.52,1.63,3.68,2.66,6.08,2.66s4.56-1.03,6.08-2.66h13.31c2.07,4.06,6.27,6.84,11.14,6.84,6.9,0,12.5-5.6,12.5-12.5s-5.6-12.5-12.5-12.5Z"
    fill="#fff" stroke-width="0" />
  <path
    d="M346.14,20.01c-4.86,0-9.07,2.79-11.14,6.84h-13.31c-1.52-1.63-3.68-2.66-6.08-2.66s-4.56,1.03-6.08,2.66h-16.98c-1.52-1.63-3.68-2.66-6.08-2.66s-4.56,1.03-6.08,2.66h-12.74c-2.07-4.06-6.27-6.84-11.14-6.84s-9.07,2.79-11.14,6.84h-14.76c-1.52-1.63-3.68-2.66-6.08-2.66s-4.56,1.03-6.08,2.66h-16.98c-1.52-1.63-3.68-2.66-6.08-2.66s-4.56,1.03-6.08,2.66h-13.1c-2.07-4.06-6.27-6.84-11.14-6.84s-9.07,2.79-11.14,6.84h-14.47c-1.52-1.63-3.68-2.66-6.08-2.66s-4.56,1.03-6.08,2.66h-16.98c-1.52-1.63-3.68-2.66-6.08-2.66s-4.56,1.03-6.08,2.66h-16.98c-1.52-1.63-3.68-2.66-6.08-2.66s-4.56,1.03-6.08,2.66h-16.98c-1.52-1.63-3.68-2.66-6.08-2.66s-4.56,1.03-6.08,2.66h-12.98c-2.07-4.06-6.27-6.84-11.14-6.84-6.9,0-12.5,5.6-12.5,12.5s5.6,12.5,12.5,12.5c4.86,0,9.07-2.78,11.14-6.84h12.98c1.52,1.63,3.68,2.66,6.08,2.66s4.56-1.03,6.08-2.66h16.98c1.52,1.63,3.68,2.66,6.08,2.66s4.56-1.03,6.08-2.66h16.98c1.52,1.63,3.68,2.66,6.08,2.66s4.56-1.03,6.08-2.66h16.98c1.52,1.63,3.68,2.66,6.08,2.66s4.56-1.03,6.08-2.66h14.47c2.07,4.06,6.27,6.84,11.14,6.84s9.07-2.78,11.14-6.84h13.1c1.52,1.63,3.68,2.66,6.08,2.66s4.56-1.03,6.08-2.66h16.98c1.52,1.63,3.68,2.66,6.08,2.66s4.56-1.03,6.08-2.66h14.76c2.07,4.06,6.27,6.84,11.14,6.84s9.07-2.78,11.14-6.84h12.74c1.52,1.63,3.68,2.66,6.08,2.66s4.56-1.03,6.08-2.66h16.98c1.52,1.63,3.68,2.66,6.08,2.66s4.56-1.03,6.08-2.66h13.31c2.07,4.06,6.27,6.84,11.14,6.84,6.9,0,12.5-5.6,12.5-12.5s-5.6-12.5-12.5-12.5Z"
    fill="url(#Timeline_linear-gradient-2)" stroke="#6e78b3" stroke-miterlimit="10" stroke-width="1.78" />
  <path
    d="M346.14,25.01c-3.27,0-6.04,2.09-7.07,5.01h-20.36c-.73-.91-1.85-1.51-3.11-1.51s-2.37.6-3.11,1.51h-22.93c-.73-.91-1.85-1.51-3.11-1.51s-2.37.6-3.11,1.51h-19.78c-1.03-2.92-3.8-5.01-7.07-5.01s-6.04,2.09-7.07,5.01h-21.8c-.73-.91-1.85-1.51-3.11-1.51s-2.37.6-3.11,1.51h-22.93c-.73-.91-1.85-1.51-3.11-1.51s-2.37.6-3.11,1.51h-20.15c-1.03-2.92-3.8-5.01-7.07-5.01s-6.04,2.09-7.07,5.01h-21.52c-.73-.91-1.85-1.51-3.11-1.51s-2.37.6-3.11,1.51h-22.93c-.73-.91-1.85-1.51-3.11-1.51s-2.37.6-3.11,1.51h-22.93c-.73-.91-1.85-1.51-3.11-1.51s-2.37.6-3.11,1.51h-22.93c-.73-.91-1.85-1.51-3.11-1.51s-2.37.6-3.11,1.51h-20.03c-1.03-2.92-3.8-5.01-7.07-5.01-4.14,0-7.5,3.36-7.5,7.5s3.36,7.5,7.5,7.5c3.27,0,6.04-2.09,7.07-5.01h20.03c.73.91,1.85,1.51,3.11,1.51s2.37-.6,3.11-1.51h22.93c.73.91,1.85,1.51,3.11,1.51s2.37-.6,3.11-1.51h22.93c.73.91,1.85,1.51,3.11,1.51s2.37-.6,3.11-1.51h22.93c.73.91,1.85,1.51,3.11,1.51s2.37-.6,3.11-1.51h21.52c1.03,2.92,3.8,5.01,7.07,5.01s6.04-2.09,7.07-5.01h20.15c.73.91,1.85,1.51,3.11,1.51s2.37-.6,3.11-1.51h22.93c.73.91,1.85,1.51,3.11,1.51s2.37-.6,3.11-1.51h21.8c1.03,2.92,3.8,5.01,7.07,5.01s6.04-2.09,7.07-5.01h19.78c.73.91,1.85,1.51,3.11,1.51s2.37-.6,3.11-1.51h22.93c.73.91,1.85,1.51,3.11,1.51s2.37-.6,3.11-1.51h20.36c1.03,2.92,3.8,5.01,7.07,5.01,4.14,0,7.5-3.36,7.5-7.5s-3.36-7.5-7.5-7.5Z"
    fill="#282844" stroke-width="0" /><text transform="translate(0 57.03)" fill="#f3edf7"
    font-family="ChangaOne, &apos;Changa One&apos;" font-size="7">
    <tspan x="0" y="0">Initiation</tspan>
  </text><text transform="translate(149.71 57.14)" fill="#f3edf7" font-family="ChangaOne, &apos;Changa One&apos;"
    font-size="7">
    <tspan x="0" y="0">Planning</tspan>
  </text><text transform="translate(241.42 57.03)" fill="#f3edf7" font-family="ChangaOne, &apos;Changa One&apos;"
    font-size="7">
    <tspan x="0" y="0">Execution</tspan>
  </text><text transform="translate(335.33 57.03)" fill="#f3edf7" font-family="ChangaOne, &apos;Changa One&apos;"
    font-size="7">
    <tspan x="0" y="0">Closing</tspan>
  </text>
  <g id="Loading">
    <g clip-path="url(#Timeline_clippath)">
      <path id="Timeline_progress-bar-track" d="M8.23,32.51h349.33s-349.33,0-349.33,0Z" fill="#fff" opacity="0"
        stroke-width="0" />
      <rect id="Timeline_progress-bar" x="3.23" y="23.63" width="350.41" height="17.76" fill="#d076ff"
        stroke-width="0" />
    </g>
  </g>
</svg>