<?xml version="1.0" encoding="UTF-8"?>
<svg id="RiskLogs" xmlns="http://www.w3.org/2000/svg"
  xmlns:xlink="http://www.w3.org/1999/xlink" viewBox="0 0 300.39 421.15">
  <defs>
    <linearGradient id="RiskLogs_bg" x1="866.67" y1="16.88" x2="999.75" y2="16.88"
      gradientTransform="translate(1079.69) rotate(-180) scale(1 -1)" gradientUnits="userSpaceOnUse">
      <stop offset="0" stop-color="#43466e" />
      <stop offset="1" stop-color="#585e81" />
    </linearGradient>
    <linearGradient id="RiskLogs_bg-2" x1="160.21" y1="457.25" x2="139.56" y2="-22.89"
      gradientTransform="matrix(1,0,0,1,0,0)" xlink:href="#RiskLogs_bg" />
  </defs>
  <polygon points="213.03 30.76 197.76 3 148.84 3 144.13 3 95.68 3 79.95 30.76 213.03 30.76" fill="url(#RiskLogs_bg)"
    fill-opacity=".6" stroke="#6e78b3" stroke-miterlimit="10" stroke-width="6" /><text
    transform="translate(105.02 22.78) scale(1.19 1)" fill="#edfdeb" font-family="ChangaOne, &apos;Changa One&apos;"
    font-size="17.44" letter-spacing=".02em">
    <tspan x="0" y="0">Risk Log</tspan>
  </text>
  <rect x="3" y="30.76" width="294.39" height="387.39" rx="19.65" ry="19.65" fill="url(#RiskLogs_bg-2)"
    fill-opacity=".6" stroke="#6e78b3" stroke-miterlimit="10" stroke-width="6" />
  <path
    d="M289.5,44.69c0,.48-.46.86-1.02.86h-2.19c-.27,0-.53-.09-.72-.25l-1.59-1.34-1.59,1.34c-.19.16-.45.25-.72.25h-2.19c-.56,0-1.02-.39-1.02-.86,0-.23.11-.44.3-.6l3.9-3.29c.73-.61,1.91-.61,2.64,0l3.9,3.29c.19.16.3.38.3.6h0Z"
    fill="#6e78b3" stroke-width="0" />
  <path
    d="M282.27,44.84l1.82-1.54,1.82,1.54c.13.11.3.17.49.17h2.2c.61,0,.92-.63.49-.99l-3.91-3.29c-.6-.51-1.58-.51-2.18,0l-3.91,3.29c-.43.37-.13.99.49.99h2.2c.18,0,.36-.06.49-.17Z"
    fill="#6e78b3" stroke-width="0" />
  <path
    d="M278.23,404.53c0-.48.46-.86,1.02-.86h2.19c.27,0,.53.09.72.25l1.59,1.34,1.59-1.34c.19-.16.45-.25.72-.25h2.19c.56,0,1.02.39,1.02.86,0,.23-.11.44-.3.6l-3.9,3.29c-.73.61-1.91.61-2.64,0l-3.9-3.29c-.19-.16-.3-.38-.3-.6h0Z"
    fill="#6e78b3" stroke-width="0" />
  <path
    d="M285.69,404.39l-1.82,1.54-1.82-1.54c-.13-.11-.3-.17-.49-.17h-2.2c-.61,0-.92.63-.49.99l3.91,3.29c.6.51,1.58.51,2.18,0l3.91-3.29c.43-.37.13-.99-.49-.99h-2.2c-.18,0-.36.06-.49.17Z"
    fill="#6e78b3" stroke-width="0" />
</svg>