<?xml version="1.0" encoding="UTF-8" standalone="no"?><!DOCTYPE svg PUBLIC "-//W3C//DTD SVG 1.1//EN" "http://www.w3.org/Graphics/SVG/1.1/DTD/svg11.dtd"><svg width="100%" height="100%" viewBox="0 0 843 1211" version="1.1" xmlns="http://www.w3.org/2000/svg" xmlns:xlink="http://www.w3.org/1999/xlink" xml:space="preserve" xmlns:serif="http://www.serif.com/" style="fill-rule:evenodd;clip-rule:evenodd;stroke-miterlimit:10;"><g transform="matrix(5.55556,0,0,5.55556,0,0)"><g id="Objectives"><g opacity="0.6"><g transform="matrix(-79.0683,0,0,-79.0683,119.038,8.96127)"><path d="M0,-0.102l0.077,0.204l0.84,0l0.083,-0.204l-1,-0Z" style="fill:url(#_Linear1);fill-rule:nonzero;"/></g></g><g transform="matrix(1,0,0,1,119.038,0.8914)"><path d="M0,16.141l-6.103,-16.141l-66.397,0l-6.568,16.141l79.068,0Z" style="fill:none;fill-rule:nonzero;stroke:#6e78b3;stroke-width:1.78px;"/></g><g transform="matrix(1e-07,32.9839,-32.9839,1e-07,4.4874,144.17)"><path d="M0.123,0.125l0.754,-0l0.123,-0.25l-1,0l0.123,0.25Z" style="fill:url(#_Linear2);fill-rule:nonzero;"/></g><g transform="matrix(1,0,0,1,8.5938,177.154)"><path d="M0,-32.984l-8.214,4.044l0,24.896l8.214,4.044l0,-32.984Z" style="fill:none;fill-rule:nonzero;stroke:#8b9fbe;stroke-width:0.76px;"/></g><g transform="matrix(-1e-07,-32.9839,-32.9839,1e-07,4.4874,85.6562)"><path d="M0.877,0.125l-0.754,-0l-0.123,-0.25l1,0l-0.123,0.25Z" style="fill:url(#_Linear3);fill-rule:nonzero;"/></g><g transform="matrix(1,0,0,1,8.5938,52.6722)"><path d="M0,32.984l-8.214,-4.044l0,-24.896l8.214,-4.044l0,32.984Z" style="fill:none;fill-rule:nonzero;stroke:#8b9fbe;stroke-width:0.76px;"/></g><g opacity="0.61"><g transform="matrix(141.821,0,0,-141.821,8.59381,116.865)"><path d="M0,-0.599l0,1.198c0,0.058 0.047,0.105 0.105,0.105l0.79,-0c0.058,-0 0.105,-0.047 0.105,-0.105l0,-1.198c0,-0.058 -0.047,-0.105 -0.105,-0.105l-0.79,0c-0.058,0 -0.105,0.047 -0.105,0.105Z" style="fill:url(#_Linear4);fill-rule:nonzero;"/></g></g><g transform="matrix(10,0,0,10,53.7842,12.2349)"><path d="M0.02,-0.312c0,-0.114 0.021,-0.197 0.064,-0.249c0.043,-0.053 0.12,-0.079 0.231,-0.079c0.111,-0 0.188,0.026 0.231,0.079c0.043,0.052 0.064,0.135 0.064,0.249c-0,0.057 -0.005,0.104 -0.014,0.143c-0.009,0.039 -0.024,0.072 -0.046,0.101c-0.022,0.029 -0.052,0.05 -0.091,0.063c-0.039,0.013 -0.087,0.02 -0.144,0.02c-0.057,-0 -0.105,-0.007 -0.144,-0.02c-0.039,-0.013 -0.069,-0.034 -0.091,-0.063c-0.022,-0.029 -0.038,-0.062 -0.047,-0.101c-0.009,-0.039 -0.013,-0.086 -0.013,-0.143Zm0.215,-0.104l-0,0.26l0.083,-0c0.027,-0 0.047,-0.003 0.059,-0.009c0.013,-0.007 0.019,-0.021 0.019,-0.044l-0,-0.26l-0.084,-0c-0.027,-0 -0.046,0.003 -0.059,0.01c-0.012,0.006 -0.018,0.02 -0.018,0.043Z" style="fill:#edfdeb;fill-rule:nonzero;"/></g><g transform="matrix(10,0,0,10,60.2942,12.2349)"><path d="M0.05,-0.025l0,-0.625l0.2,-0.015l0,0.166c0.025,-0.011 0.058,-0.016 0.099,-0.016c0.041,0 0.077,0.008 0.106,0.023c0.029,0.015 0.052,0.036 0.067,0.063c0.029,0.05 0.043,0.11 0.043,0.179c0,0.094 -0.022,0.162 -0.065,0.203c-0.043,0.041 -0.109,0.062 -0.197,0.062c-0.088,-0 -0.172,-0.013 -0.253,-0.04Zm0.2,-0.307l0,0.201l0.031,-0c0.024,-0 0.041,-0.002 0.052,-0.007c0.011,-0.005 0.017,-0.017 0.017,-0.035l0,-0.196l-0.031,0c-0.015,0 -0.026,0.001 -0.035,0.002c-0.009,0.001 -0.016,0.005 -0.023,0.011c-0.007,0.005 -0.01,0.013 -0.011,0.024Z" style="fill:#edfdeb;fill-rule:nonzero;"/></g><g transform="matrix(10,0,0,10,66.4542,12.2349)"><path d="M-0.05,0.165l0,-0.13l0.052,-0.01c0.021,-0.004 0.034,-0.01 0.039,-0.017c0.006,-0.007 0.009,-0.014 0.009,-0.023l0,-0.46l0.2,-0.025l0,0.5c0,0.054 -0.013,0.095 -0.04,0.123c-0.027,0.028 -0.065,0.042 -0.115,0.042l-0.145,0Zm0.111,-0.697c-0.015,-0.011 -0.022,-0.032 -0.022,-0.062c0,-0.03 0.007,-0.051 0.022,-0.063c0.015,-0.012 0.045,-0.018 0.089,-0.018c0.045,-0 0.074,0.006 0.089,0.018c0.015,0.012 0.023,0.033 0.023,0.063c0,0.03 -0.008,0.051 -0.023,0.062c-0.015,0.011 -0.044,0.017 -0.089,0.017c-0.044,0 -0.074,-0.006 -0.089,-0.017Z" style="fill:#edfdeb;fill-rule:nonzero;"/></g><g transform="matrix(10,0,0,10,69.6642,12.2349)"><path d="M0.245,-0.17l0,0.035c0.02,0.002 0.04,0.003 0.06,0.003c0.062,0 0.125,-0.01 0.188,-0.03l0.024,0.147c-0.075,0.02 -0.149,0.03 -0.222,0.03c-0.093,0 -0.161,-0.022 -0.203,-0.065c-0.041,-0.044 -0.062,-0.111 -0.062,-0.2c-0,-0.089 0.021,-0.156 0.062,-0.199c0.042,-0.044 0.109,-0.066 0.202,-0.066c0.093,0 0.158,0.013 0.193,0.038c0.035,0.025 0.053,0.073 0.053,0.142c0,0.059 -0.021,0.101 -0.064,0.127c-0.042,0.025 -0.119,0.038 -0.231,0.038Zm-0,-0.157l-0,0.041l0.041,0c0.024,0 0.041,-0.002 0.052,-0.007c0.011,-0.005 0.017,-0.017 0.017,-0.035l-0,-0.041l-0.041,0c-0.024,0 -0.042,0.003 -0.053,0.008c-0.011,0.005 -0.016,0.016 -0.016,0.034Z" style="fill:#edfdeb;fill-rule:nonzero;"/></g><g transform="matrix(10,0,0,10,75.5242,12.2349)"><path d="M0.417,-0.15l0.012,0.144c-0.035,0.014 -0.079,0.021 -0.134,0.021c-0.093,-0 -0.161,-0.022 -0.203,-0.065c-0.041,-0.044 -0.062,-0.111 -0.062,-0.2c0,-0.089 0.021,-0.156 0.062,-0.199c0.042,-0.044 0.11,-0.066 0.203,-0.066c0.058,0 0.103,0.007 0.134,0.021l-0.024,0.136c-0.035,-0.007 -0.063,-0.011 -0.084,-0.011c-0.051,0 -0.076,0.018 -0.076,0.053l0,0.179c0.019,0.004 0.044,0.006 0.074,0.006c0.031,0 0.063,-0.006 0.098,-0.019Z" style="fill:#edfdeb;fill-rule:nonzero;"/></g><g transform="matrix(10,0,0,10,80.3242,12.2349)"><path d="M0.02,-0.371l0,-0.129l0.05,0l0,-0.08l0.2,-0.05l0,0.13l0.069,0l0,0.129l-0.069,0l0,0.228c0.017,0.003 0.037,0.006 0.059,0.007l-0.009,0.147c-0.091,-0 -0.151,-0.005 -0.178,-0.015c-0.034,-0.012 -0.055,-0.028 -0.064,-0.048c-0.005,-0.012 -0.008,-0.026 -0.008,-0.042l0,-0.277l-0.05,0Z" style="fill:#edfdeb;fill-rule:nonzero;"/></g><g transform="matrix(10,0,0,10,84.1742,12.2349)"><path d="M0.05,-0l0,-0.475l0.2,-0.025l0,0.5l-0.2,-0Zm0.011,-0.532c-0.015,-0.011 -0.022,-0.032 -0.022,-0.062c0,-0.03 0.007,-0.051 0.022,-0.063c0.015,-0.012 0.045,-0.018 0.089,-0.018c0.045,-0 0.074,0.006 0.089,0.018c0.015,0.012 0.023,0.033 0.023,0.063c0,0.03 -0.008,0.051 -0.023,0.062c-0.015,0.011 -0.044,0.017 -0.089,0.017c-0.044,0 -0.074,-0.006 -0.089,-0.017Z" style="fill:#edfdeb;fill-rule:nonzero;"/></g><g transform="matrix(10,0,0,10,87.3842,12.2349)"><path d="M0.125,-0l-0.125,-0.5l0.2,0l0.055,0.325l0.01,-0l0.055,-0.325l0.2,0l-0.125,0.5l-0.27,-0Z" style="fill:#edfdeb;fill-rule:nonzero;"/></g><g transform="matrix(10,0,0,10,92.7942,12.2349)"><path d="M0.245,-0.17l0,0.035c0.02,0.002 0.04,0.003 0.06,0.003c0.062,0 0.125,-0.01 0.188,-0.03l0.024,0.147c-0.075,0.02 -0.149,0.03 -0.222,0.03c-0.093,0 -0.161,-0.022 -0.203,-0.065c-0.041,-0.044 -0.062,-0.111 -0.062,-0.2c-0,-0.089 0.021,-0.156 0.062,-0.199c0.042,-0.044 0.109,-0.066 0.202,-0.066c0.093,0 0.158,0.013 0.193,0.038c0.035,0.025 0.053,0.073 0.053,0.142c0,0.059 -0.021,0.101 -0.064,0.127c-0.042,0.025 -0.119,0.038 -0.231,0.038Zm-0,-0.157l-0,0.041l0.041,0c0.024,0 0.041,-0.002 0.052,-0.007c0.011,-0.005 0.017,-0.017 0.017,-0.035l-0,-0.041l-0.041,0c-0.024,0 -0.042,0.003 -0.053,0.008c-0.011,0.005 -0.016,0.016 -0.016,0.034Z" style="fill:#edfdeb;fill-rule:nonzero;"/></g><g transform="matrix(10,0,0,10,98.6542,12.2349)"><path d="M0.097,-0.48c0.043,-0.023 0.102,-0.035 0.177,-0.035c0.075,0 0.143,0.01 0.206,0.031l-0.023,0.136c-0.052,-0.015 -0.104,-0.022 -0.156,-0.022c-0.016,0 -0.039,0.001 -0.068,0.004l-0,0.032c0.108,-0 0.181,0.016 0.22,0.048c0.019,0.016 0.033,0.034 0.041,0.053c0.008,0.019 0.012,0.042 0.012,0.069c0,0.027 -0.003,0.051 -0.01,0.072c-0.006,0.021 -0.016,0.038 -0.029,0.051c-0.013,0.013 -0.026,0.023 -0.04,0.031c-0.014,0.008 -0.032,0.014 -0.055,0.017c-0.035,0.005 -0.076,0.008 -0.123,0.008c-0.083,-0 -0.157,-0.01 -0.224,-0.029l0.025,-0.142c0.056,0.017 0.117,0.026 0.182,0.026c0.03,-0 0.057,-0.001 0.082,-0.004l0,-0.032c-0.107,-0 -0.18,-0.014 -0.221,-0.042c-0.04,-0.028 -0.06,-0.074 -0.06,-0.139c0,-0.065 0.021,-0.11 0.064,-0.133Z" style="fill:#edfdeb;fill-rule:nonzero;"/></g><g transform="matrix(1,0,0,1,8.5938,31.8633)"><path d="M0,170.005l0,-170.005c0,-8.191 6.64,-14.831 14.831,-14.831l112.159,-0c8.191,-0 14.831,6.64 14.831,14.831l0,170.005c0,8.191 -6.64,14.831 -14.831,14.831l-112.159,0c-8.191,0 -14.831,-6.64 -14.831,-14.831Z" style="fill:none;fill-rule:nonzero;stroke:#6e78b3;stroke-width:2.39px;"/></g><g transform="matrix(1,0,0,1,14.1659,33.717)"><path d="M0,167.006l0,-167.006c0,-5.746 4.658,-10.404 10.404,-10.404l109.869,0c5.746,0 10.404,4.658 10.404,10.404l0,167.007c0,5.745 -4.658,10.403 -10.404,10.403l-109.869,0c-5.746,0 -10.404,-4.658 -10.404,-10.404" style="fill:#40406b;fill-rule:nonzero;"/></g><g transform="matrix(1,0,0,1,135.046,24.799)"><path d="M0,184.842l-111.083,0c-4.641,0 -8.404,-3.763 -8.404,-8.404l-0,-168.034c-0,-4.641 3.763,-8.404 8.404,-8.404l111.083,-0c4.641,-0 8.404,3.763 8.404,8.404l0,168.034c0,4.641 -3.763,8.404 -8.404,8.404" style="fill:#282844;fill-rule:nonzero;"/></g><g transform="matrix(1,0,0,1,62.8184,81.8166)"><path d="M0,3.831c-0.173,0.366 -0.546,0.623 -0.975,0.623c-0.181,-0 -0.362,-0.047 -0.523,-0.136l-0.06,-0.034l-0.036,0.06c-0.144,0.239 -0.368,0.406 -0.627,0.479l0.744,1.781l0.897,-1.054l1.347,0.117l-0.767,-1.836Zm-5.037,0l-0.767,1.836l1.347,-0.118l0.896,1.055l0.744,-1.781c-0.259,-0.074 -0.483,-0.24 -0.626,-0.479l-0.036,-0.06l-0.061,0.034c-0.16,0.089 -0.341,0.136 -0.523,0.136c-0.428,0 -0.801,-0.257 -0.974,-0.623m2.519,-6.604c-0.127,0 -0.254,0.062 -0.329,0.186l-0.145,0.242c-0.063,0.105 -0.166,0.175 -0.283,0.207c-0.001,0 -0.002,0.001 -0.003,0.001c-0.119,0.033 -0.244,0.023 -0.352,-0.037l-0.247,-0.137c-0.253,-0.14 -0.565,0.04 -0.57,0.329l-0.005,0.286c-0.002,0.121 -0.056,0.233 -0.141,0.319c-0.001,0 -0.002,0.001 -0.003,0.002c-0.085,0.086 -0.198,0.139 -0.319,0.142l-0.286,0.004c-0.289,0.005 -0.469,0.317 -0.329,0.571l0.138,0.247c0.059,0.107 0.069,0.232 0.037,0.349c-0.002,0.002 -0.002,0.004 -0.003,0.006c-0.031,0.116 -0.101,0.219 -0.204,0.281l-0.243,0.146c-0.249,0.149 -0.249,0.509 0,0.658l0.243,0.146c0.103,0.062 0.173,0.164 0.204,0.28c0.001,0.003 0.001,0.005 0.002,0.007c0.032,0.118 0.023,0.243 -0.036,0.349l-0.138,0.247c-0.14,0.254 0.04,0.565 0.329,0.57l0.286,0.005c0.121,0.002 0.233,0.056 0.319,0.142l0.002,0.003c0.086,0.085 0.14,0.197 0.142,0.318l0.005,0.286c0.005,0.29 0.316,0.47 0.57,0.329l0.247,-0.138c0.107,-0.059 0.231,-0.068 0.349,-0.036c0.002,0.001 0.005,0.001 0.007,0.002c0.116,0.031 0.218,0.101 0.28,0.204l0.146,0.243c0.149,0.249 0.509,0.249 0.658,0l0.146,-0.243c0.062,-0.103 0.165,-0.173 0.281,-0.204c0.002,-0.001 0.004,-0.001 0.006,-0.002c0.117,-0.032 0.242,-0.023 0.349,0.036l0.247,0.138c0.254,0.141 0.566,-0.039 0.571,-0.329l0.005,-0.286c0.002,-0.121 0.055,-0.233 0.141,-0.318l0.002,-0.003c0.086,-0.086 0.198,-0.14 0.319,-0.142l0.286,-0.005c0.29,-0.005 0.47,-0.316 0.329,-0.57l-0.137,-0.247c-0.059,-0.107 -0.069,-0.231 -0.037,-0.349c0.001,-0.002 0.001,-0.004 0.002,-0.007c0.032,-0.116 0.102,-0.218 0.205,-0.28l0.243,-0.146c0.249,-0.15 0.249,-0.509 0.001,-0.658l-0.243,-0.146c-0.104,-0.062 -0.174,-0.165 -0.205,-0.281c-0.001,-0.002 -0.001,-0.004 -0.002,-0.006c-0.032,-0.117 -0.023,-0.242 0.036,-0.349l0.138,-0.247c0.141,-0.253 -0.039,-0.566 -0.329,-0.571l-0.286,-0.004c-0.121,-0.003 -0.233,-0.056 -0.319,-0.142l-0.003,-0.002c-0.085,-0.086 -0.139,-0.198 -0.141,-0.319l-0.004,-0.286c-0.005,-0.29 -0.318,-0.47 -0.571,-0.329l-0.248,0.137c-0.106,0.059 -0.231,0.069 -0.348,0.037c-0.002,-0.001 -0.004,-0.001 -0.006,-0.002c-0.117,-0.032 -0.219,-0.101 -0.281,-0.205l-0.146,-0.243c-0.075,-0.124 -0.202,-0.186 -0.329,-0.186" style="fill:#edfdeb;fill-rule:nonzero;"/></g><g transform="matrix(1,0,0,1,27.35,54.5004)"><path d="M0,0.587l0,-0.586c0,-2.909 2.358,-5.267 5.266,-5.267l93.777,0c2.908,0 5.266,2.358 5.266,5.266l-0,0.588c-0,2.908 -2.358,5.265 -5.266,5.265l-93.777,0c-2.908,0 -5.266,-2.357 -5.266,-5.266Z" style="fill:#40406b;fill-rule:nonzero;stroke:#5a6591;stroke-width:0.5px;"/></g><g><clipPath id="_clip5"><path d="M32.9,50.128c-2.577,0 -4.667,2.089 -4.667,4.667c0,2.576 2.09,4.666 4.667,4.666l93.209,0c2.577,0 4.666,-2.09 4.666,-4.666c-0,-2.578 -2.089,-4.667 -4.666,-4.667l-93.209,0Z" clip-rule="nonzero"/></clipPath><g clip-path="url(#_clip5)"><g transform="matrix(-1,0,0,1,90.647,-108.308)"><rect x="28.233" y="158.278" width="34.181" height="9.649" style="fill:#ea5a3d;"/></g><g transform="matrix(-1,0,0,1,159.009,-108.308)"><rect x="62.414" y="158.278" width="34.181" height="9.649" style="fill:#f9bd00;"/></g><g transform="matrix(-1,0,0,1,227.369,-108.308)"><rect x="96.594" y="158.278" width="34.181" height="9.649" style="fill:#3fa400;"/></g></g></g><g transform="matrix(6,0,0,6,31.0029,56.8355)"><path d="M0.45,-0l-0.4,-0l0,-0.625l0.2,0l0,0.465l0.2,-0l0,0.16Z" style="fill:#ba3a25;fill-rule:nonzero;"/></g><g transform="matrix(6,0,0,6,33.8589,56.8355)"><path d="M0.245,-0.17l0,0.035c0.02,0.002 0.04,0.003 0.06,0.003c0.062,0 0.125,-0.01 0.188,-0.03l0.024,0.147c-0.075,0.02 -0.149,0.03 -0.222,0.03c-0.093,0 -0.161,-0.022 -0.203,-0.065c-0.041,-0.044 -0.062,-0.111 -0.062,-0.2c-0,-0.089 0.021,-0.156 0.062,-0.199c0.042,-0.044 0.109,-0.066 0.202,-0.066c0.093,0 0.158,0.013 0.193,0.038c0.035,0.025 0.053,0.073 0.053,0.142c0,0.059 -0.021,0.101 -0.064,0.127c-0.042,0.025 -0.119,0.038 -0.231,0.038Zm-0,-0.157l-0,0.041l0.041,0c0.024,0 0.041,-0.002 0.052,-0.007c0.011,-0.005 0.017,-0.017 0.017,-0.035l-0,-0.041l-0.041,0c-0.024,0 -0.042,0.003 -0.053,0.008c-0.011,0.005 -0.016,0.016 -0.016,0.034Z" style="fill:#ba3a25;fill-rule:nonzero;"/></g><g transform="matrix(6,0,0,6,37.3749,56.8355)"><path d="M0.097,-0.48c0.043,-0.023 0.102,-0.035 0.177,-0.035c0.075,0 0.143,0.01 0.206,0.031l-0.023,0.136c-0.052,-0.015 -0.104,-0.022 -0.156,-0.022c-0.016,0 -0.039,0.001 -0.068,0.004l-0,0.032c0.108,-0 0.181,0.016 0.22,0.048c0.019,0.016 0.033,0.034 0.041,0.053c0.008,0.019 0.012,0.042 0.012,0.069c0,0.027 -0.003,0.051 -0.01,0.072c-0.006,0.021 -0.016,0.038 -0.029,0.051c-0.013,0.013 -0.026,0.023 -0.04,0.031c-0.014,0.008 -0.032,0.014 -0.055,0.017c-0.035,0.005 -0.076,0.008 -0.123,0.008c-0.083,-0 -0.157,-0.01 -0.224,-0.029l0.025,-0.142c0.056,0.017 0.117,0.026 0.182,0.026c0.03,-0 0.057,-0.001 0.082,-0.004l0,-0.032c-0.107,-0 -0.18,-0.014 -0.221,-0.042c-0.04,-0.028 -0.06,-0.074 -0.06,-0.139c0,-0.065 0.021,-0.11 0.064,-0.133Z" style="fill:#ba3a25;fill-rule:nonzero;"/></g><g transform="matrix(6,0,0,6,40.6569,56.8355)"><path d="M0.097,-0.48c0.043,-0.023 0.102,-0.035 0.177,-0.035c0.075,0 0.143,0.01 0.206,0.031l-0.023,0.136c-0.052,-0.015 -0.104,-0.022 -0.156,-0.022c-0.016,0 -0.039,0.001 -0.068,0.004l-0,0.032c0.108,-0 0.181,0.016 0.22,0.048c0.019,0.016 0.033,0.034 0.041,0.053c0.008,0.019 0.012,0.042 0.012,0.069c0,0.027 -0.003,0.051 -0.01,0.072c-0.006,0.021 -0.016,0.038 -0.029,0.051c-0.013,0.013 -0.026,0.023 -0.04,0.031c-0.014,0.008 -0.032,0.014 -0.055,0.017c-0.035,0.005 -0.076,0.008 -0.123,0.008c-0.083,-0 -0.157,-0.01 -0.224,-0.029l0.025,-0.142c0.056,0.017 0.117,0.026 0.182,0.026c0.03,-0 0.057,-0.001 0.082,-0.004l0,-0.032c-0.107,-0 -0.18,-0.014 -0.221,-0.042c-0.04,-0.028 -0.06,-0.074 -0.06,-0.139c0,-0.065 0.021,-0.11 0.064,-0.133Z" style="fill:#ba3a25;fill-rule:nonzero;"/></g><g transform="matrix(6,0,0,6,113.137,56.8355)"><path d="M0.234,-0l-0.209,-0l0.038,-0.625l0.261,0l0.078,0.318l0.007,0l0.078,-0.318l0.261,0l0.038,0.625l-0.209,-0l-0.012,-0.303l-0.007,0l-0.076,0.303l-0.153,-0l-0.077,-0.303l-0.006,0l-0.012,0.303Z" style="fill:#2f7700;fill-rule:nonzero;"/></g><g transform="matrix(6,0,0,6,118.129,56.8355)"><path d="M0.092,-0.05c-0.041,-0.044 -0.062,-0.111 -0.062,-0.2c0,-0.089 0.021,-0.156 0.062,-0.199c0.042,-0.044 0.11,-0.066 0.203,-0.066c0.093,0 0.161,0.022 0.202,0.066c0.042,0.043 0.063,0.11 0.063,0.199c0,0.089 -0.021,0.156 -0.063,0.2c-0.041,0.043 -0.109,0.065 -0.202,0.065c-0.093,-0 -0.161,-0.022 -0.203,-0.065Zm0.153,-0.277l-0,0.196l0.031,0c0.024,0 0.041,-0.002 0.052,-0.007c0.011,-0.005 0.017,-0.017 0.017,-0.035l0,-0.196l-0.031,0c-0.024,0 -0.042,0.003 -0.053,0.008c-0.011,0.005 -0.016,0.016 -0.016,0.034Z" style="fill:#2f7700;fill-rule:nonzero;"/></g><g transform="matrix(6,0,0,6,121.795,56.8355)"><path d="M0.05,-0.5l0.1,0l0.055,0.056c0.039,-0.036 0.089,-0.06 0.148,-0.071l0.012,0.189c-0.016,0.001 -0.037,0.005 -0.063,0.012c-0.025,0.007 -0.043,0.017 -0.052,0.028l0,0.286l-0.2,-0l0,-0.5Z" style="fill:#2f7700;fill-rule:nonzero;"/></g><g transform="matrix(6,0,0,6,124.171,56.8355)"><path d="M0.245,-0.17l0,0.035c0.02,0.002 0.04,0.003 0.06,0.003c0.062,0 0.125,-0.01 0.188,-0.03l0.024,0.147c-0.075,0.02 -0.149,0.03 -0.222,0.03c-0.093,0 -0.161,-0.022 -0.203,-0.065c-0.041,-0.044 -0.062,-0.111 -0.062,-0.2c-0,-0.089 0.021,-0.156 0.062,-0.199c0.042,-0.044 0.109,-0.066 0.202,-0.066c0.093,0 0.158,0.013 0.193,0.038c0.035,0.025 0.053,0.073 0.053,0.142c0,0.059 -0.021,0.101 -0.064,0.127c-0.042,0.025 -0.119,0.038 -0.231,0.038Zm-0,-0.157l-0,0.041l0.041,0c0.024,0 0.041,-0.002 0.052,-0.007c0.011,-0.005 0.017,-0.017 0.017,-0.035l-0,-0.041l-0.041,0c-0.024,0 -0.042,0.003 -0.053,0.008c-0.011,0.005 -0.016,0.016 -0.016,0.034Z" style="fill:#2f7700;fill-rule:nonzero;"/></g><g opacity="0"><g transform="matrix(1,0,0,1,27.35,54.751)"><clipPath id="_clip6"><rect x="0" y="-0.125" width="104.216" height="0.25" clip-rule="nonzero"/></clipPath><g clip-path="url(#_clip6)"><path d="M0,0l104.216,0l-104.216,0Z" style="fill:none;fill-rule:nonzero;stroke:#131321;stroke-width:0.25px;"/></g></g></g><g transform="matrix(1,0,0,1,27.35,100.094)"><path d="M0,0.587l0,-0.586c0,-2.909 2.358,-5.267 5.266,-5.267l93.777,0c2.908,0 5.266,2.358 5.266,5.266l-0,0.588c-0,2.908 -2.358,5.265 -5.266,5.265l-93.777,0c-2.908,0 -5.266,-2.357 -5.266,-5.266Z" style="fill:#40406b;fill-rule:nonzero;stroke:#5a6591;stroke-width:0.5px;"/></g><g><clipPath id="_clip7"><path d="M32.9,95.722c-2.577,0 -4.667,2.089 -4.667,4.667c0,2.576 2.09,4.666 4.667,4.666l93.209,0c2.577,0 4.666,-2.09 4.666,-4.666c-0,-2.578 -2.089,-4.667 -4.666,-4.667l-93.209,0Z" clip-rule="nonzero"/></clipPath><g clip-path="url(#_clip7)"><g transform="matrix(-1,0,0,1,90.647,-17.12)"><rect x="28.233" y="112.684" width="34.181" height="9.649" style="fill:#ea5a3d;"/></g><g transform="matrix(-1,0,0,1,159.009,-17.12)"><rect x="62.414" y="112.684" width="34.181" height="9.649" style="fill:#f9bd00;"/></g><g transform="matrix(-1,0,0,1,227.369,-17.12)"><rect x="96.594" y="112.684" width="34.181" height="9.649" style="fill:#3fa400;"/></g></g></g><g transform="matrix(6,0,0,6,31.0029,102.43)"><path d="M0.45,-0l-0.4,-0l0,-0.625l0.2,0l0,0.465l0.2,-0l0,0.16Z" style="fill:#ba3a25;fill-rule:nonzero;"/></g><g transform="matrix(6,0,0,6,33.8589,102.43)"><path d="M0.092,-0.05c-0.041,-0.044 -0.062,-0.111 -0.062,-0.2c0,-0.089 0.021,-0.156 0.062,-0.199c0.042,-0.044 0.11,-0.066 0.203,-0.066c0.093,0 0.161,0.022 0.202,0.066c0.042,0.043 0.063,0.11 0.063,0.199c0,0.089 -0.021,0.156 -0.063,0.2c-0.041,0.043 -0.109,0.065 -0.202,0.065c-0.093,-0 -0.161,-0.022 -0.203,-0.065Zm0.153,-0.277l-0,0.196l0.031,0c0.024,0 0.041,-0.002 0.052,-0.007c0.011,-0.005 0.017,-0.017 0.017,-0.035l0,-0.196l-0.031,0c-0.024,0 -0.042,0.003 -0.053,0.008c-0.011,0.005 -0.016,0.016 -0.016,0.034Z" style="fill:#ba3a25;fill-rule:nonzero;"/></g><g transform="matrix(6,0,0,6,37.5249,102.43)"><path d="M0.114,-0l-0.1,-0.5l0.196,0l0.041,0.297l0.011,0l0.063,-0.297l0.15,0l0.056,0.297l0.011,0l0.048,-0.297l0.196,0l-0.1,0.5l-0.246,-0l-0.039,-0.215l-0.008,0l-0.043,0.215l-0.236,-0Z" style="fill:#ba3a25;fill-rule:nonzero;"/></g><g transform="matrix(6,0,0,6,42.4509,102.43)"><path d="M0.245,-0.17l0,0.035c0.02,0.002 0.04,0.003 0.06,0.003c0.062,0 0.125,-0.01 0.188,-0.03l0.024,0.147c-0.075,0.02 -0.149,0.03 -0.222,0.03c-0.093,0 -0.161,-0.022 -0.203,-0.065c-0.041,-0.044 -0.062,-0.111 -0.062,-0.2c-0,-0.089 0.021,-0.156 0.062,-0.199c0.042,-0.044 0.109,-0.066 0.202,-0.066c0.093,0 0.158,0.013 0.193,0.038c0.035,0.025 0.053,0.073 0.053,0.142c0,0.059 -0.021,0.101 -0.064,0.127c-0.042,0.025 -0.119,0.038 -0.231,0.038Zm-0,-0.157l-0,0.041l0.041,0c0.024,0 0.041,-0.002 0.052,-0.007c0.011,-0.005 0.017,-0.017 0.017,-0.035l-0,-0.041l-0.041,0c-0.024,0 -0.042,0.003 -0.053,0.008c-0.011,0.005 -0.016,0.016 -0.016,0.034Z" style="fill:#ba3a25;fill-rule:nonzero;"/></g><g transform="matrix(6,0,0,6,45.9669,102.43)"><path d="M0.05,-0.5l0.1,0l0.055,0.056c0.039,-0.036 0.089,-0.06 0.148,-0.071l0.012,0.189c-0.016,0.001 -0.037,0.005 -0.063,0.012c-0.025,0.007 -0.043,0.017 -0.052,0.028l0,0.286l-0.2,-0l0,-0.5Z" style="fill:#ba3a25;fill-rule:nonzero;"/></g><g transform="matrix(6,0,0,6,108.655,102.43)"><path d="M0.4,-0l0,-0.221l-0.15,0l0,0.221l-0.2,-0l0,-0.625l0.2,0l0,0.221l0.15,0l0,-0.221l0.2,0l-0,0.625l-0.2,-0Z" style="fill:#2f7700;fill-rule:nonzero;"/></g><g transform="matrix(6,0,0,6,112.681,102.43)"><path d="M0.05,-0l0,-0.475l0.2,-0.025l0,0.5l-0.2,-0Zm0.011,-0.532c-0.015,-0.011 -0.022,-0.032 -0.022,-0.062c0,-0.03 0.007,-0.051 0.022,-0.063c0.015,-0.012 0.045,-0.018 0.089,-0.018c0.045,-0 0.074,0.006 0.089,0.018c0.015,0.012 0.023,0.033 0.023,0.063c0,0.03 -0.008,0.051 -0.023,0.062c-0.015,0.011 -0.044,0.017 -0.089,0.017c-0.044,0 -0.074,-0.006 -0.089,-0.017Z" style="fill:#2f7700;fill-rule:nonzero;"/></g><g transform="matrix(6,0,0,6,114.607,102.43)"><path d="M0.023,0.135l0.026,-0.149c0.057,0.019 0.123,0.029 0.199,0.029c0.023,-0 0.039,-0.001 0.048,-0.002l0,-0.035c-0.059,-0 -0.098,-0.002 -0.117,-0.007c-0.018,-0.005 -0.03,-0.01 -0.036,-0.015c-0.005,-0.005 -0.009,-0.01 -0.01,-0.013c-0.001,-0.003 -0.001,-0.008 -0.001,-0.014l0.03,-0.086c-0.048,-0.009 -0.085,-0.027 -0.11,-0.054c-0.025,-0.027 -0.037,-0.07 -0.037,-0.128c0,-0.059 0.02,-0.103 0.059,-0.132c0.039,-0.029 0.103,-0.044 0.192,-0.044c0.032,0 0.06,0.002 0.085,0.006l0.087,-0.067l0.105,0.101l-0.057,0.067c0.009,0.023 0.013,0.053 0.013,0.09c-0,0.053 -0.013,0.092 -0.04,0.118c-0.026,0.025 -0.073,0.041 -0.14,0.046l-0.004,0.024c0.072,0.004 0.123,0.015 0.152,0.033c0.03,0.017 0.045,0.05 0.045,0.097c-0,0.081 -0.039,0.131 -0.117,0.15c-0.039,0.01 -0.091,0.015 -0.157,0.015c-0.065,0 -0.137,-0.01 -0.215,-0.03Zm0.18,-0.475l-0,0.065l0.031,0c0.024,0 0.041,-0.002 0.052,-0.007c0.011,-0.005 0.017,-0.017 0.017,-0.035l-0,-0.065l-0.031,0c-0.024,0 -0.042,0.003 -0.053,0.008c-0.011,0.005 -0.016,0.016 -0.016,0.034Z" style="fill:#2f7700;fill-rule:nonzero;"/></g><g transform="matrix(6,0,0,6,117.949,102.43)"><path d="M0.25,-0.308l0,0.308l-0.2,-0l0,-0.65l0.2,-0.015l0,0.183c0.043,-0.022 0.09,-0.033 0.142,-0.033c0.052,0 0.091,0.01 0.118,0.031c0.027,0.02 0.04,0.048 0.04,0.084l0,0.4l-0.2,-0l0,-0.35l-0.031,-0c-0.024,-0 -0.042,0.003 -0.053,0.008c-0.011,0.005 -0.016,0.016 -0.016,0.034Z" style="fill:#2f7700;fill-rule:nonzero;"/></g><g transform="matrix(6,0,0,6,121.645,102.43)"><path d="M0.245,-0.17l0,0.035c0.02,0.002 0.04,0.003 0.06,0.003c0.062,0 0.125,-0.01 0.188,-0.03l0.024,0.147c-0.075,0.02 -0.149,0.03 -0.222,0.03c-0.093,0 -0.161,-0.022 -0.203,-0.065c-0.041,-0.044 -0.062,-0.111 -0.062,-0.2c-0,-0.089 0.021,-0.156 0.062,-0.199c0.042,-0.044 0.109,-0.066 0.202,-0.066c0.093,0 0.158,0.013 0.193,0.038c0.035,0.025 0.053,0.073 0.053,0.142c0,0.059 -0.021,0.101 -0.064,0.127c-0.042,0.025 -0.119,0.038 -0.231,0.038Zm-0,-0.157l-0,0.041l0.041,0c0.024,0 0.041,-0.002 0.052,-0.007c0.011,-0.005 0.017,-0.017 0.017,-0.035l-0,-0.041l-0.041,0c-0.024,0 -0.042,0.003 -0.053,0.008c-0.011,0.005 -0.016,0.016 -0.016,0.034Z" style="fill:#2f7700;fill-rule:nonzero;"/></g><g transform="matrix(6,0,0,6,125.161,102.43)"><path d="M0.05,-0.5l0.1,0l0.055,0.056c0.039,-0.036 0.089,-0.06 0.148,-0.071l0.012,0.189c-0.016,0.001 -0.037,0.005 -0.063,0.012c-0.025,0.007 -0.043,0.017 -0.052,0.028l0,0.286l-0.2,-0l0,-0.5Z" style="fill:#2f7700;fill-rule:nonzero;"/></g><g opacity="0"><g transform="matrix(1,0,0,1,27.35,100.345)"><clipPath id="_clip8"><rect x="0" y="-0.125" width="104.216" height="0.25" clip-rule="nonzero"/></clipPath><g clip-path="url(#_clip8)"><path d="M0,0l104.216,0l-104.216,0Z" style="fill:none;fill-rule:nonzero;stroke:#131321;stroke-width:0.25px;"/></g></g></g><g transform="matrix(1,0,0,1,27.35,145.732)"><path d="M0,0.586l0,-0.586c0,-2.909 2.358,-5.266 5.266,-5.266l93.777,-0c2.908,-0 5.266,2.357 5.266,5.265l-0,0.588c-0,2.908 -2.358,5.265 -5.266,5.265l-93.777,-0c-2.908,-0 -5.266,-2.357 -5.266,-5.266Z" style="fill:#40406b;fill-rule:nonzero;stroke:#5a6591;stroke-width:0.5px;"/></g><g><clipPath id="_clip9"><path d="M32.9,141.358c-2.577,0 -4.667,2.089 -4.667,4.667c0,2.576 2.09,4.665 4.667,4.665l93.209,0c2.577,0 4.666,-2.089 4.666,-4.665c-0,-2.578 -2.089,-4.667 -4.666,-4.667l-93.209,0Z" clip-rule="nonzero"/></clipPath><g clip-path="url(#_clip9)"><g transform="matrix(-1,0,0,1,90.647,74.152)"><rect x="28.233" y="67.048" width="34.181" height="9.649" style="fill:#ea5a3d;"/></g><g transform="matrix(-1,0,0,1,159.009,74.152)"><rect x="62.414" y="67.048" width="34.181" height="9.649" style="fill:#f9bd00;"/></g><g transform="matrix(-1,0,0,1,227.369,74.152)"><rect x="96.594" y="67.048" width="34.181" height="9.649" style="fill:#3fa400;"/></g></g></g><g transform="matrix(6,0,0,6,31.0029,148.066)"><path d="M0.45,-0l-0.4,-0l0,-0.625l0.2,0l0,0.465l0.2,-0l0,0.16Z" style="fill:#ba3a25;fill-rule:nonzero;"/></g><g transform="matrix(6,0,0,6,33.8589,148.066)"><path d="M0.092,-0.05c-0.041,-0.044 -0.062,-0.111 -0.062,-0.2c0,-0.089 0.021,-0.156 0.062,-0.199c0.042,-0.044 0.11,-0.066 0.203,-0.066c0.093,0 0.161,0.022 0.202,0.066c0.042,0.043 0.063,0.11 0.063,0.199c0,0.089 -0.021,0.156 -0.063,0.2c-0.041,0.043 -0.109,0.065 -0.202,0.065c-0.093,-0 -0.161,-0.022 -0.203,-0.065Zm0.153,-0.277l-0,0.196l0.031,0c0.024,0 0.041,-0.002 0.052,-0.007c0.011,-0.005 0.017,-0.017 0.017,-0.035l0,-0.196l-0.031,0c-0.024,0 -0.042,0.003 -0.053,0.008c-0.011,0.005 -0.016,0.016 -0.016,0.034Z" style="fill:#ba3a25;fill-rule:nonzero;"/></g><g transform="matrix(6,0,0,6,37.5249,148.066)"><path d="M0.15,-0.5l0.05,0.05c0.062,-0.043 0.129,-0.065 0.2,-0.065c0.047,0 0.083,0.01 0.11,0.031c0.027,0.02 0.04,0.048 0.04,0.084l0,0.4l-0.2,-0l0,-0.35l-0.031,-0c-0.023,-0 -0.04,0.003 -0.052,0.008c-0.011,0.005 -0.017,0.015 -0.017,0.03l-0,0.312l-0.2,-0l-0,-0.5l0.1,-0Z" style="fill:#ba3a25;fill-rule:nonzero;"/></g><g transform="matrix(6,0,0,6,41.2209,148.066)"><path d="M0.023,0.135l0.026,-0.149c0.057,0.019 0.123,0.029 0.199,0.029c0.023,-0 0.039,-0.001 0.048,-0.002l0,-0.035c-0.059,-0 -0.098,-0.002 -0.117,-0.007c-0.018,-0.005 -0.03,-0.01 -0.036,-0.015c-0.005,-0.005 -0.009,-0.01 -0.01,-0.013c-0.001,-0.003 -0.001,-0.008 -0.001,-0.014l0.03,-0.086c-0.048,-0.009 -0.085,-0.027 -0.11,-0.054c-0.025,-0.027 -0.037,-0.07 -0.037,-0.128c0,-0.059 0.02,-0.103 0.059,-0.132c0.039,-0.029 0.103,-0.044 0.192,-0.044c0.032,0 0.06,0.002 0.085,0.006l0.087,-0.067l0.105,0.101l-0.057,0.067c0.009,0.023 0.013,0.053 0.013,0.09c-0,0.053 -0.013,0.092 -0.04,0.118c-0.026,0.025 -0.073,0.041 -0.14,0.046l-0.004,0.024c0.072,0.004 0.123,0.015 0.152,0.033c0.03,0.017 0.045,0.05 0.045,0.097c-0,0.081 -0.039,0.131 -0.117,0.15c-0.039,0.01 -0.091,0.015 -0.157,0.015c-0.065,0 -0.137,-0.01 -0.215,-0.03Zm0.18,-0.475l-0,0.065l0.031,0c0.024,0 0.041,-0.002 0.052,-0.007c0.011,-0.005 0.017,-0.017 0.017,-0.035l-0,-0.065l-0.031,0c-0.024,0 -0.042,0.003 -0.053,0.008c-0.011,0.005 -0.016,0.016 -0.016,0.034Z" style="fill:#ba3a25;fill-rule:nonzero;"/></g><g transform="matrix(6,0,0,6,44.5629,148.066)"><path d="M0.245,-0.17l0,0.035c0.02,0.002 0.04,0.003 0.06,0.003c0.062,0 0.125,-0.01 0.188,-0.03l0.024,0.147c-0.075,0.02 -0.149,0.03 -0.222,0.03c-0.093,0 -0.161,-0.022 -0.203,-0.065c-0.041,-0.044 -0.062,-0.111 -0.062,-0.2c-0,-0.089 0.021,-0.156 0.062,-0.199c0.042,-0.044 0.109,-0.066 0.202,-0.066c0.093,0 0.158,0.013 0.193,0.038c0.035,0.025 0.053,0.073 0.053,0.142c0,0.059 -0.021,0.101 -0.064,0.127c-0.042,0.025 -0.119,0.038 -0.231,0.038Zm-0,-0.157l-0,0.041l0.041,0c0.024,0 0.041,-0.002 0.052,-0.007c0.011,-0.005 0.017,-0.017 0.017,-0.035l-0,-0.041l-0.041,0c-0.024,0 -0.042,0.003 -0.053,0.008c-0.011,0.005 -0.016,0.016 -0.016,0.034Z" style="fill:#ba3a25;fill-rule:nonzero;"/></g><g transform="matrix(6,0,0,6,48.0789,148.066)"><path d="M0.05,-0.5l0.1,0l0.055,0.056c0.039,-0.036 0.089,-0.06 0.148,-0.071l0.012,0.189c-0.016,0.001 -0.037,0.005 -0.063,0.012c-0.025,0.007 -0.043,0.017 -0.052,0.028l0,0.286l-0.2,-0l0,-0.5Z" style="fill:#ba3a25;fill-rule:nonzero;"/></g><g transform="matrix(6,0,0,6,105.949,148.066)"><path d="M0.025,-0.011l0.028,-0.165c0.061,0.015 0.116,0.023 0.165,0.023c0.049,0 0.089,-0.002 0.119,-0.006l0,-0.05l-0.09,-0.008c-0.081,-0.007 -0.137,-0.027 -0.168,-0.058c-0.03,-0.032 -0.045,-0.079 -0.045,-0.141c-0,-0.085 0.018,-0.144 0.055,-0.176c0.037,-0.032 0.1,-0.048 0.189,-0.048c0.089,0 0.169,0.008 0.24,0.025l-0.025,0.16c-0.062,-0.01 -0.112,-0.015 -0.149,-0.015c-0.037,0 -0.069,0.002 -0.095,0.005l0,0.049l0.072,0.007c0.087,0.009 0.148,0.03 0.181,0.063c0.033,0.033 0.05,0.078 0.05,0.137c0,0.042 -0.006,0.078 -0.017,0.107c-0.011,0.029 -0.025,0.051 -0.041,0.066c-0.015,0.015 -0.037,0.026 -0.066,0.034c-0.029,0.008 -0.054,0.013 -0.076,0.014c-0.021,0.002 -0.05,0.003 -0.086,0.003c-0.087,0 -0.167,-0.009 -0.241,-0.026Z" style="fill:#2f7700;fill-rule:nonzero;"/></g><g transform="matrix(6,0,0,6,109.537,148.066)"><path d="M0.25,-0.308l0,0.308l-0.2,-0l0,-0.65l0.2,-0.015l0,0.183c0.043,-0.022 0.09,-0.033 0.142,-0.033c0.052,0 0.091,0.01 0.118,0.031c0.027,0.02 0.04,0.048 0.04,0.084l0,0.4l-0.2,-0l0,-0.35l-0.031,-0c-0.024,-0 -0.042,0.003 -0.053,0.008c-0.011,0.005 -0.016,0.016 -0.016,0.034Z" style="fill:#2f7700;fill-rule:nonzero;"/></g><g transform="matrix(6,0,0,6,113.233,148.066)"><path d="M0.092,-0.05c-0.041,-0.044 -0.062,-0.111 -0.062,-0.2c0,-0.089 0.021,-0.156 0.062,-0.199c0.042,-0.044 0.11,-0.066 0.203,-0.066c0.093,0 0.161,0.022 0.202,0.066c0.042,0.043 0.063,0.11 0.063,0.199c0,0.089 -0.021,0.156 -0.063,0.2c-0.041,0.043 -0.109,0.065 -0.202,0.065c-0.093,-0 -0.161,-0.022 -0.203,-0.065Zm0.153,-0.277l-0,0.196l0.031,0c0.024,0 0.041,-0.002 0.052,-0.007c0.011,-0.005 0.017,-0.017 0.017,-0.035l0,-0.196l-0.031,0c-0.024,0 -0.042,0.003 -0.053,0.008c-0.011,0.005 -0.016,0.016 -0.016,0.034Z" style="fill:#2f7700;fill-rule:nonzero;"/></g><g transform="matrix(6,0,0,6,116.899,148.066)"><path d="M0.05,-0.5l0.1,0l0.055,0.056c0.039,-0.036 0.089,-0.06 0.148,-0.071l0.012,0.189c-0.016,0.001 -0.037,0.005 -0.063,0.012c-0.025,0.007 -0.043,0.017 -0.052,0.028l0,0.286l-0.2,-0l0,-0.5Z" style="fill:#2f7700;fill-rule:nonzero;"/></g><g transform="matrix(6,0,0,6,119.275,148.066)"><path d="M0.02,-0.371l0,-0.129l0.05,0l0,-0.08l0.2,-0.05l0,0.13l0.069,0l0,0.129l-0.069,0l0,0.228c0.017,0.003 0.037,0.006 0.059,0.007l-0.009,0.147c-0.091,-0 -0.151,-0.005 -0.178,-0.015c-0.034,-0.012 -0.055,-0.028 -0.064,-0.048c-0.005,-0.012 -0.008,-0.026 -0.008,-0.042l0,-0.277l-0.05,0Z" style="fill:#2f7700;fill-rule:nonzero;"/></g><g transform="matrix(6,0,0,6,121.585,148.066)"><path d="M0.245,-0.17l0,0.035c0.02,0.002 0.04,0.003 0.06,0.003c0.062,0 0.125,-0.01 0.188,-0.03l0.024,0.147c-0.075,0.02 -0.149,0.03 -0.222,0.03c-0.093,0 -0.161,-0.022 -0.203,-0.065c-0.041,-0.044 -0.062,-0.111 -0.062,-0.2c-0,-0.089 0.021,-0.156 0.062,-0.199c0.042,-0.044 0.109,-0.066 0.202,-0.066c0.093,0 0.158,0.013 0.193,0.038c0.035,0.025 0.053,0.073 0.053,0.142c0,0.059 -0.021,0.101 -0.064,0.127c-0.042,0.025 -0.119,0.038 -0.231,0.038Zm-0,-0.157l-0,0.041l0.041,0c0.024,0 0.041,-0.002 0.052,-0.007c0.011,-0.005 0.017,-0.017 0.017,-0.035l-0,-0.041l-0.041,0c-0.024,0 -0.042,0.003 -0.053,0.008c-0.011,0.005 -0.016,0.016 -0.016,0.034Z" style="fill:#2f7700;fill-rule:nonzero;"/></g><g transform="matrix(6,0,0,6,125.101,148.066)"><path d="M0.05,-0.5l0.1,0l0.055,0.056c0.039,-0.036 0.089,-0.06 0.148,-0.071l0.012,0.189c-0.016,0.001 -0.037,0.005 -0.063,0.012c-0.025,0.007 -0.043,0.017 -0.052,0.028l0,0.286l-0.2,-0l0,-0.5Z" style="fill:#2f7700;fill-rule:nonzero;"/></g><g opacity="0"><g transform="matrix(1,0,0,1,27.35,145.596)"><clipPath id="_clip10"><rect x="0" y="-0.125" width="104.309" height="0.25" clip-rule="nonzero"/></clipPath><g clip-path="url(#_clip10)"><path d="M0,0l104.309,0l-104.309,0Z" style="fill:none;fill-rule:nonzero;stroke:#131321;stroke-width:0.25px;"/></g></g></g><g transform="matrix(1,0,0,1,27.35,191.352)"><path d="M0,0.587l0,-0.586c0,-2.909 2.358,-5.267 5.266,-5.267l93.777,0c2.908,0 5.266,2.358 5.266,5.266l-0,0.588c-0,2.908 -2.358,5.265 -5.266,5.265l-93.777,0c-2.908,0 -5.266,-2.357 -5.266,-5.266Z" style="fill:#40406b;fill-rule:nonzero;stroke:#5a6591;stroke-width:0.5px;"/></g><g><clipPath id="_clip11"><path d="M32.9,186.979c-2.577,0 -4.667,2.09 -4.667,4.667c0,2.577 2.09,4.666 4.667,4.666l93.209,0c2.577,0 4.666,-2.089 4.666,-4.666c-0,-2.577 -2.089,-4.667 -4.666,-4.667l-93.209,0Z" clip-rule="nonzero"/></clipPath><g clip-path="url(#_clip11)"><g transform="matrix(-1,0,0,1,90.647,165.396)"><rect x="28.233" y="21.426" width="34.181" height="9.649" style="fill:#ea5a3d;"/></g><g transform="matrix(-1,0,0,1,159.009,165.396)"><rect x="62.414" y="21.426" width="34.181" height="9.649" style="fill:#f9bd00;"/></g><g transform="matrix(-1,0,0,1,227.369,165.396)"><rect x="96.594" y="21.426" width="34.181" height="9.649" style="fill:#3fa400;"/></g></g></g><g transform="matrix(6,0,0,6,31.0029,193.687)"><path d="M0.45,-0.236l-0.2,0l0,0.076l0.245,0l0,0.16l-0.445,0l0,-0.625l0.44,0l-0.025,0.16l-0.215,-0l0,0.084l0.2,-0l0,0.145Z" style="fill:#ba3a25;fill-rule:nonzero;"/></g><g transform="matrix(6,0,0,6,34.1829,193.687)"><path d="M0.213,-0.5l0.056,0.124l0.006,0l0.052,-0.124l0.208,0l-0.125,0.256l0.13,0.244l-0.208,-0l-0.062,-0.135l-0.005,0l-0.057,0.135l-0.208,-0l0.13,-0.258l-0.125,-0.242l0.208,0Z" style="fill:#ba3a25;fill-rule:nonzero;"/></g><g transform="matrix(6,0,0,6,37.4229,193.687)"><path d="M0.05,-0.5l0.1,0l0.037,0.05c0.029,-0.043 0.084,-0.065 0.163,-0.065c0.041,0 0.076,0.008 0.105,0.023c0.029,0.015 0.052,0.036 0.067,0.063c0.029,0.05 0.043,0.11 0.043,0.179c0,0.085 -0.018,0.149 -0.055,0.192c-0.015,0.017 -0.034,0.031 -0.059,0.042c-0.025,0.011 -0.053,0.016 -0.086,0.016l-0.115,-0l0,0.15l-0.2,0.015l0,-0.665Zm0.2,0.168l0,0.201l0.031,-0c0.024,-0 0.041,-0.002 0.052,-0.007c0.011,-0.005 0.017,-0.017 0.017,-0.035l0,-0.196l-0.031,0c-0.015,0 -0.026,0.001 -0.035,0.002c-0.009,0.001 -0.016,0.005 -0.023,0.011c-0.007,0.005 -0.01,0.013 -0.011,0.024Z" style="fill:#ba3a25;fill-rule:nonzero;"/></g><g transform="matrix(6,0,0,6,40.9929,193.687)"><path d="M0.245,-0.17l0,0.035c0.02,0.002 0.04,0.003 0.06,0.003c0.062,0 0.125,-0.01 0.188,-0.03l0.024,0.147c-0.075,0.02 -0.149,0.03 -0.222,0.03c-0.093,0 -0.161,-0.022 -0.203,-0.065c-0.041,-0.044 -0.062,-0.111 -0.062,-0.2c-0,-0.089 0.021,-0.156 0.062,-0.199c0.042,-0.044 0.109,-0.066 0.202,-0.066c0.093,0 0.158,0.013 0.193,0.038c0.035,0.025 0.053,0.073 0.053,0.142c0,0.059 -0.021,0.101 -0.064,0.127c-0.042,0.025 -0.119,0.038 -0.231,0.038Zm-0,-0.157l-0,0.041l0.041,0c0.024,0 0.041,-0.002 0.052,-0.007c0.011,-0.005 0.017,-0.017 0.017,-0.035l-0,-0.041l-0.041,0c-0.024,0 -0.042,0.003 -0.053,0.008c-0.011,0.005 -0.016,0.016 -0.016,0.034Z" style="fill:#ba3a25;fill-rule:nonzero;"/></g><g transform="matrix(6,0,0,6,44.3829,193.687)"><path d="M0.15,-0.5l0.05,0.05c0.062,-0.043 0.129,-0.065 0.2,-0.065c0.047,0 0.083,0.01 0.11,0.031c0.027,0.02 0.04,0.048 0.04,0.084l0,0.4l-0.2,-0l0,-0.35l-0.031,-0c-0.023,-0 -0.04,0.003 -0.052,0.008c-0.011,0.005 -0.017,0.015 -0.017,0.03l-0,0.312l-0.2,-0l-0,-0.5l0.1,-0Z" style="fill:#ba3a25;fill-rule:nonzero;"/></g><g transform="matrix(6,0,0,6,47.9529,193.687)"><path d="M0.097,-0.48c0.043,-0.023 0.102,-0.035 0.177,-0.035c0.075,0 0.143,0.01 0.206,0.031l-0.023,0.136c-0.052,-0.015 -0.104,-0.022 -0.156,-0.022c-0.016,0 -0.039,0.001 -0.068,0.004l-0,0.032c0.108,-0 0.181,0.016 0.22,0.048c0.019,0.016 0.033,0.034 0.041,0.053c0.008,0.019 0.012,0.042 0.012,0.069c0,0.027 -0.003,0.051 -0.01,0.072c-0.006,0.021 -0.016,0.038 -0.029,0.051c-0.013,0.013 -0.026,0.023 -0.04,0.031c-0.014,0.008 -0.032,0.014 -0.055,0.017c-0.035,0.005 -0.076,0.008 -0.123,0.008c-0.083,-0 -0.157,-0.01 -0.224,-0.029l0.025,-0.142c0.056,0.017 0.117,0.026 0.182,0.026c0.03,-0 0.057,-0.001 0.082,-0.004l0,-0.032c-0.107,-0 -0.18,-0.014 -0.221,-0.042c-0.04,-0.028 -0.06,-0.074 -0.06,-0.139c0,-0.065 0.021,-0.11 0.064,-0.133Z" style="fill:#ba3a25;fill-rule:nonzero;"/></g><g transform="matrix(6,0,0,6,51.1089,193.687)"><path d="M0.05,-0l0,-0.475l0.2,-0.025l0,0.5l-0.2,-0Zm0.011,-0.532c-0.015,-0.011 -0.022,-0.032 -0.022,-0.062c0,-0.03 0.007,-0.051 0.022,-0.063c0.015,-0.012 0.045,-0.018 0.089,-0.018c0.045,-0 0.074,0.006 0.089,0.018c0.015,0.012 0.023,0.033 0.023,0.063c0,0.03 -0.008,0.051 -0.023,0.062c-0.015,0.011 -0.044,0.017 -0.089,0.017c-0.044,0 -0.074,-0.006 -0.089,-0.017Z" style="fill:#ba3a25;fill-rule:nonzero;"/></g><g transform="matrix(6,0,0,6,52.9089,193.687)"><path d="M0.125,-0l-0.125,-0.5l0.2,0l0.055,0.325l0.01,-0l0.055,-0.325l0.2,0l-0.125,0.5l-0.27,-0Z" style="fill:#ba3a25;fill-rule:nonzero;"/></g><g transform="matrix(6,0,0,6,56.0289,193.687)"><path d="M0.245,-0.17l0,0.035c0.02,0.002 0.04,0.003 0.06,0.003c0.062,0 0.125,-0.01 0.188,-0.03l0.024,0.147c-0.075,0.02 -0.149,0.03 -0.222,0.03c-0.093,0 -0.161,-0.022 -0.203,-0.065c-0.041,-0.044 -0.062,-0.111 -0.062,-0.2c-0,-0.089 0.021,-0.156 0.062,-0.199c0.042,-0.044 0.109,-0.066 0.202,-0.066c0.093,0 0.158,0.013 0.193,0.038c0.035,0.025 0.053,0.073 0.053,0.142c0,0.059 -0.021,0.101 -0.064,0.127c-0.042,0.025 -0.119,0.038 -0.231,0.038Zm-0,-0.157l-0,0.041l0.041,0c0.024,0 0.041,-0.002 0.052,-0.007c0.011,-0.005 0.017,-0.017 0.017,-0.035l-0,-0.041l-0.041,0c-0.024,0 -0.042,0.003 -0.053,0.008c-0.011,0.005 -0.016,0.016 -0.016,0.034Z" style="fill:#ba3a25;fill-rule:nonzero;"/></g><g transform="matrix(6,0,0,6,104.479,193.687)"><path d="M0.465,-0.179l0.015,0.168c-0.042,0.017 -0.095,0.026 -0.158,0.026c-0.063,-0 -0.114,-0.007 -0.153,-0.02c-0.038,-0.013 -0.068,-0.034 -0.09,-0.063c-0.022,-0.029 -0.037,-0.062 -0.046,-0.101c-0.009,-0.039 -0.013,-0.086 -0.013,-0.143c-0,-0.057 0.004,-0.104 0.013,-0.143c0.009,-0.039 0.024,-0.073 0.046,-0.102c0.043,-0.055 0.121,-0.083 0.235,-0.083c0.025,0 0.055,0.003 0.089,0.008c0.035,0.005 0.06,0.011 0.077,0.018l-0.03,0.153c-0.043,-0.009 -0.083,-0.014 -0.119,-0.014c-0.036,-0 -0.061,0.003 -0.075,0.01c-0.014,0.007 -0.021,0.02 -0.021,0.04l-0,0.262c0.026,0.005 0.052,0.008 0.079,0.008c0.057,-0 0.107,-0.008 0.151,-0.024Z" style="fill:#2f7700;fill-rule:nonzero;"/></g><g transform="matrix(6,0,0,6,107.539,193.687)"><path d="M0.25,-0.308l0,0.308l-0.2,-0l0,-0.65l0.2,-0.015l0,0.183c0.043,-0.022 0.09,-0.033 0.142,-0.033c0.052,0 0.091,0.01 0.118,0.031c0.027,0.02 0.04,0.048 0.04,0.084l0,0.4l-0.2,-0l0,-0.35l-0.031,-0c-0.024,-0 -0.042,0.003 -0.053,0.008c-0.011,0.005 -0.016,0.016 -0.016,0.034Z" style="fill:#2f7700;fill-rule:nonzero;"/></g><g transform="matrix(6,0,0,6,111.169,193.687)"><path d="M0.245,-0.17l0,0.035c0.02,0.002 0.04,0.003 0.06,0.003c0.062,0 0.125,-0.01 0.188,-0.03l0.024,0.147c-0.075,0.02 -0.149,0.03 -0.222,0.03c-0.093,0 -0.161,-0.022 -0.203,-0.065c-0.041,-0.044 -0.062,-0.111 -0.062,-0.2c-0,-0.089 0.021,-0.156 0.062,-0.199c0.042,-0.044 0.109,-0.066 0.202,-0.066c0.093,0 0.158,0.013 0.193,0.038c0.035,0.025 0.053,0.073 0.053,0.142c0,0.059 -0.021,0.101 -0.064,0.127c-0.042,0.025 -0.119,0.038 -0.231,0.038Zm-0,-0.157l-0,0.041l0.041,0c0.024,0 0.041,-0.002 0.052,-0.007c0.011,-0.005 0.017,-0.017 0.017,-0.035l-0,-0.041l-0.041,0c-0.024,0 -0.042,0.003 -0.053,0.008c-0.011,0.005 -0.016,0.016 -0.016,0.034Z" style="fill:#2f7700;fill-rule:nonzero;"/></g><g transform="matrix(6,0,0,6,114.619,193.687)"><path d="M0.287,-0.515c0.16,0 0.24,0.055 0.24,0.165l0,0.35l-0.1,-0l-0.057,-0.057c-0.019,0.023 -0.046,0.04 -0.079,0.053c-0.033,0.013 -0.065,0.019 -0.095,0.019c-0.029,-0 -0.053,-0.002 -0.071,-0.007c-0.018,-0.005 -0.036,-0.013 -0.053,-0.024c-0.038,-0.024 -0.057,-0.069 -0.057,-0.134c-0,-0.12 0.091,-0.18 0.272,-0.18l0.04,-0l0,-0.036c-0.021,-0.001 -0.039,-0.002 -0.053,-0.002c-0.075,-0 -0.14,0.009 -0.194,0.027l-0.024,-0.143c0.067,-0.021 0.144,-0.031 0.231,-0.031Zm-0.07,0.343l-0,0.041l0.041,-0c0.029,-0 0.048,-0.003 0.056,-0.01c0.009,-0.007 0.013,-0.015 0.013,-0.026l0,-0.047l-0.041,-0c-0.024,-0 -0.042,0.003 -0.053,0.008c-0.011,0.005 -0.016,0.016 -0.016,0.034Z" style="fill:#2f7700;fill-rule:nonzero;"/></g><g transform="matrix(6,0,0,6,118.081,193.687)"><path d="M0.05,-0.5l0.1,0l0.037,0.05c0.029,-0.043 0.084,-0.065 0.163,-0.065c0.041,0 0.076,0.008 0.105,0.023c0.029,0.015 0.052,0.036 0.067,0.063c0.029,0.05 0.043,0.11 0.043,0.179c0,0.085 -0.018,0.149 -0.055,0.192c-0.015,0.017 -0.034,0.031 -0.059,0.042c-0.025,0.011 -0.053,0.016 -0.086,0.016l-0.115,-0l0,0.15l-0.2,0.015l0,-0.665Zm0.2,0.168l0,0.201l0.031,-0c0.024,-0 0.041,-0.002 0.052,-0.007c0.011,-0.005 0.017,-0.017 0.017,-0.035l0,-0.196l-0.031,0c-0.015,0 -0.026,0.001 -0.035,0.002c-0.009,0.001 -0.016,0.005 -0.023,0.011c-0.007,0.005 -0.01,0.013 -0.011,0.024Z" style="fill:#2f7700;fill-rule:nonzero;"/></g><g transform="matrix(6,0,0,6,121.711,193.687)"><path d="M0.245,-0.17l0,0.035c0.02,0.002 0.04,0.003 0.06,0.003c0.062,0 0.125,-0.01 0.188,-0.03l0.024,0.147c-0.075,0.02 -0.149,0.03 -0.222,0.03c-0.093,0 -0.161,-0.022 -0.203,-0.065c-0.041,-0.044 -0.062,-0.111 -0.062,-0.2c-0,-0.089 0.021,-0.156 0.062,-0.199c0.042,-0.044 0.109,-0.066 0.202,-0.066c0.093,0 0.158,0.013 0.193,0.038c0.035,0.025 0.053,0.073 0.053,0.142c0,0.059 -0.021,0.101 -0.064,0.127c-0.042,0.025 -0.119,0.038 -0.231,0.038Zm-0,-0.157l-0,0.041l0.041,0c0.024,0 0.041,-0.002 0.052,-0.007c0.011,-0.005 0.017,-0.017 0.017,-0.035l-0,-0.041l-0.041,0c-0.024,0 -0.042,0.003 -0.053,0.008c-0.011,0.005 -0.016,0.016 -0.016,0.034Z" style="fill:#2f7700;fill-rule:nonzero;"/></g><g transform="matrix(6,0,0,6,125.161,193.687)"><path d="M0.05,-0.5l0.1,0l0.055,0.056c0.039,-0.036 0.089,-0.06 0.148,-0.071l0.012,0.189c-0.016,0.001 -0.037,0.005 -0.063,0.012c-0.025,0.007 -0.043,0.017 -0.052,0.028l0,0.286l-0.2,-0l0,-0.5Z" style="fill:#2f7700;fill-rule:nonzero;"/></g><g transform="matrix(10,0,0,10,70.8716,41.1538)"><path d="M0.025,-0.011l0.028,-0.165c0.061,0.015 0.116,0.023 0.165,0.023c0.049,0 0.089,-0.002 0.119,-0.006l0,-0.05l-0.09,-0.008c-0.081,-0.007 -0.137,-0.027 -0.168,-0.058c-0.03,-0.032 -0.045,-0.079 -0.045,-0.141c-0,-0.085 0.018,-0.144 0.055,-0.176c0.037,-0.032 0.1,-0.048 0.189,-0.048c0.089,0 0.169,0.008 0.24,0.025l-0.025,0.16c-0.062,-0.01 -0.112,-0.015 -0.149,-0.015c-0.037,0 -0.069,0.002 -0.095,0.005l0,0.049l0.072,0.007c0.087,0.009 0.148,0.03 0.181,0.063c0.033,0.033 0.05,0.078 0.05,0.137c0,0.042 -0.006,0.078 -0.017,0.107c-0.011,0.029 -0.025,0.051 -0.041,0.066c-0.015,0.015 -0.037,0.026 -0.066,0.034c-0.029,0.008 -0.054,0.013 -0.076,0.014c-0.021,0.002 -0.05,0.003 -0.086,0.003c-0.087,0 -0.167,-0.009 -0.241,-0.026Z" style="fill:#edfdeb;fill-rule:nonzero;"/></g><g transform="matrix(10,0,0,10,76.8516,41.1538)"><path d="M0.417,-0.15l0.012,0.144c-0.035,0.014 -0.079,0.021 -0.134,0.021c-0.093,-0 -0.161,-0.022 -0.203,-0.065c-0.041,-0.044 -0.062,-0.111 -0.062,-0.2c0,-0.089 0.021,-0.156 0.062,-0.199c0.042,-0.044 0.11,-0.066 0.203,-0.066c0.058,0 0.103,0.007 0.134,0.021l-0.024,0.136c-0.035,-0.007 -0.063,-0.011 -0.084,-0.011c-0.051,0 -0.076,0.018 -0.076,0.053l0,0.179c0.019,0.004 0.044,0.006 0.074,0.006c0.031,0 0.063,-0.006 0.098,-0.019Z" style="fill:#edfdeb;fill-rule:nonzero;"/></g><g transform="matrix(10,0,0,10,81.6516,41.1538)"><path d="M0.092,-0.05c-0.041,-0.044 -0.062,-0.111 -0.062,-0.2c0,-0.089 0.021,-0.156 0.062,-0.199c0.042,-0.044 0.11,-0.066 0.203,-0.066c0.093,0 0.161,0.022 0.202,0.066c0.042,0.043 0.063,0.11 0.063,0.199c0,0.089 -0.021,0.156 -0.063,0.2c-0.041,0.043 -0.109,0.065 -0.202,0.065c-0.093,-0 -0.161,-0.022 -0.203,-0.065Zm0.153,-0.277l-0,0.196l0.031,0c0.024,0 0.041,-0.002 0.052,-0.007c0.011,-0.005 0.017,-0.017 0.017,-0.035l0,-0.196l-0.031,0c-0.024,0 -0.042,0.003 -0.053,0.008c-0.011,0.005 -0.016,0.016 -0.016,0.034Z" style="fill:#edfdeb;fill-rule:nonzero;"/></g><g transform="matrix(10,0,0,10,87.7616,41.1538)"><path d="M0.05,-0.5l0.1,0l0.037,0.05c0.029,-0.043 0.084,-0.065 0.163,-0.065c0.041,0 0.076,0.008 0.105,0.023c0.029,0.015 0.052,0.036 0.067,0.063c0.029,0.05 0.043,0.11 0.043,0.179c0,0.085 -0.018,0.149 -0.055,0.192c-0.015,0.017 -0.034,0.031 -0.059,0.042c-0.025,0.011 -0.053,0.016 -0.086,0.016l-0.115,-0l0,0.15l-0.2,0.015l0,-0.665Zm0.2,0.168l0,0.201l0.031,-0c0.024,-0 0.041,-0.002 0.052,-0.007c0.011,-0.005 0.017,-0.017 0.017,-0.035l0,-0.196l-0.031,0c-0.015,0 -0.026,0.001 -0.035,0.002c-0.009,0.001 -0.016,0.005 -0.023,0.011c-0.007,0.005 -0.01,0.013 -0.011,0.024Z" style="fill:#edfdeb;fill-rule:nonzero;"/></g><g transform="matrix(10,0,0,10,93.9216,41.1538)"><path d="M0.245,-0.17l0,0.035c0.02,0.002 0.04,0.003 0.06,0.003c0.062,0 0.125,-0.01 0.188,-0.03l0.024,0.147c-0.075,0.02 -0.149,0.03 -0.222,0.03c-0.093,0 -0.161,-0.022 -0.203,-0.065c-0.041,-0.044 -0.062,-0.111 -0.062,-0.2c-0,-0.089 0.021,-0.156 0.062,-0.199c0.042,-0.044 0.109,-0.066 0.202,-0.066c0.093,0 0.158,0.013 0.193,0.038c0.035,0.025 0.053,0.073 0.053,0.142c0,0.059 -0.021,0.101 -0.064,0.127c-0.042,0.025 -0.119,0.038 -0.231,0.038Zm-0,-0.157l-0,0.041l0.041,0c0.024,0 0.041,-0.002 0.052,-0.007c0.011,-0.005 0.017,-0.017 0.017,-0.035l-0,-0.041l-0.041,0c-0.024,0 -0.042,0.003 -0.053,0.008c-0.011,0.005 -0.016,0.016 -0.016,0.034Z" style="fill:#edfdeb;fill-rule:nonzero;"/></g><g transform="matrix(10,0,0,10,66.7568,86.77)"><path d="M0.385,-0.023l-0.085,0.023c-0.112,-0 -0.187,-0.029 -0.226,-0.086c-0.02,-0.029 -0.034,-0.061 -0.042,-0.096c-0.008,-0.036 -0.012,-0.079 -0.012,-0.13c0,-0.114 0.021,-0.197 0.064,-0.249c0.043,-0.053 0.119,-0.079 0.23,-0.079c0.111,-0 0.188,0.026 0.231,0.079c0.043,0.053 0.065,0.136 0.065,0.249c-0,0.085 -0.018,0.153 -0.053,0.205l0.072,0.042l-0.052,0.115l-0.192,-0.035l0,-0.038Zm-0.15,-0.133l0.083,-0c0.027,-0 0.047,-0.003 0.059,-0.009c0.013,-0.007 0.019,-0.021 0.019,-0.044l0,-0.26l-0.084,-0c-0.027,-0 -0.046,0.003 -0.059,0.01c-0.012,0.006 -0.018,0.02 -0.018,0.043l0,0.26Z" style="fill:#edfdeb;fill-rule:nonzero;"/></g><g transform="matrix(10,0,0,10,73.2668,86.77)"><path d="M0.24,-0.5l0,0.369l0.031,0c0.024,0 0.041,-0.002 0.052,-0.007c0.011,-0.005 0.017,-0.017 0.017,-0.035l0,-0.327l0.2,0l0,0.5l-0.1,-0l-0.058,-0.057c-0.04,0.048 -0.097,0.072 -0.171,0.072c-0.059,-0 -0.103,-0.013 -0.13,-0.038c-0.027,-0.025 -0.041,-0.068 -0.041,-0.127l-0,-0.35l0.2,0Z" style="fill:#edfdeb;fill-rule:nonzero;"/></g><g transform="matrix(10,0,0,10,79.3768,86.77)"><path d="M0.287,-0.515c0.16,0 0.24,0.055 0.24,0.165l0,0.35l-0.1,-0l-0.057,-0.057c-0.019,0.023 -0.046,0.04 -0.079,0.053c-0.033,0.013 -0.065,0.019 -0.095,0.019c-0.029,-0 -0.053,-0.002 -0.071,-0.007c-0.018,-0.005 -0.036,-0.013 -0.053,-0.024c-0.038,-0.024 -0.057,-0.069 -0.057,-0.134c-0,-0.12 0.091,-0.18 0.272,-0.18l0.04,-0l0,-0.036c-0.021,-0.001 -0.039,-0.002 -0.053,-0.002c-0.075,-0 -0.14,0.009 -0.194,0.027l-0.024,-0.143c0.067,-0.021 0.144,-0.031 0.231,-0.031Zm-0.07,0.343l-0,0.041l0.041,-0c0.029,-0 0.048,-0.003 0.056,-0.01c0.009,-0.007 0.013,-0.015 0.013,-0.026l0,-0.047l-0.041,-0c-0.024,-0 -0.042,0.003 -0.053,0.008c-0.011,0.005 -0.016,0.016 -0.016,0.034Z" style="fill:#edfdeb;fill-rule:nonzero;"/></g><g transform="matrix(10,0,0,10,85.2568,86.77)"><path d="M0.25,-0.665l0,0.522c0.021,0.004 0.038,0.006 0.049,0.007l-0.009,0.147c-0.085,0 -0.142,-0.005 -0.169,-0.015c-0.034,-0.013 -0.055,-0.029 -0.063,-0.048c-0.005,-0.012 -0.008,-0.026 -0.008,-0.042l0,-0.556l0.2,-0.015Z" style="fill:#edfdeb;fill-rule:nonzero;"/></g><g transform="matrix(10,0,0,10,88.5568,86.77)"><path d="M0.05,-0l0,-0.475l0.2,-0.025l0,0.5l-0.2,-0Zm0.011,-0.532c-0.015,-0.011 -0.022,-0.032 -0.022,-0.062c0,-0.03 0.007,-0.051 0.022,-0.063c0.015,-0.012 0.045,-0.018 0.089,-0.018c0.045,-0 0.074,0.006 0.089,0.018c0.015,0.012 0.023,0.033 0.023,0.063c0,0.03 -0.008,0.051 -0.023,0.062c-0.015,0.011 -0.044,0.017 -0.089,0.017c-0.044,0 -0.074,-0.006 -0.089,-0.017Z" style="fill:#edfdeb;fill-rule:nonzero;"/></g><g transform="matrix(10,0,0,10,91.7668,86.77)"><path d="M0.02,-0.371l0,-0.129l0.05,0l0,-0.08l0.2,-0.05l0,0.13l0.069,0l0,0.129l-0.069,0l0,0.228c0.017,0.003 0.037,0.006 0.059,0.007l-0.009,0.147c-0.091,-0 -0.151,-0.005 -0.178,-0.015c-0.034,-0.012 -0.055,-0.028 -0.064,-0.048c-0.005,-0.012 -0.008,-0.026 -0.008,-0.042l0,-0.277l-0.05,0Z" style="fill:#edfdeb;fill-rule:nonzero;"/></g><g transform="matrix(10,0,0,10,95.6168,86.77)"><path d="M0.112,-0.052l-0.112,-0.448l0.2,0l0.055,0.325l0.01,-0l0.055,-0.325l0.2,0l-0.125,0.5c-0.019,0.065 -0.042,0.109 -0.07,0.131c-0.028,0.023 -0.068,0.034 -0.121,0.034l-0.194,0l-0,-0.13l0.094,-0.018c0.048,-0.011 0.079,-0.023 0.094,-0.036c0.008,-0.007 0.015,-0.016 0.02,-0.027l-0.001,-0.006l-0.105,-0Z" style="fill:#edfdeb;fill-rule:nonzero;"/></g><g transform="matrix(10,0,0,10,74.356,132.387)"><path d="M0.495,-0.465l-0.145,0l0,0.465l-0.2,-0l0,-0.465l-0.145,0l0,-0.16l0.49,0l0,0.16Z" style="fill:#edfdeb;fill-rule:nonzero;"/></g><g transform="matrix(10,0,0,10,79.566,132.387)"><path d="M0.05,-0l0,-0.475l0.2,-0.025l0,0.5l-0.2,-0Zm0.011,-0.532c-0.015,-0.011 -0.022,-0.032 -0.022,-0.062c0,-0.03 0.007,-0.051 0.022,-0.063c0.015,-0.012 0.045,-0.018 0.089,-0.018c0.045,-0 0.074,0.006 0.089,0.018c0.015,0.012 0.023,0.033 0.023,0.063c0,0.03 -0.008,0.051 -0.023,0.062c-0.015,0.011 -0.044,0.017 -0.089,0.017c-0.044,0 -0.074,-0.006 -0.089,-0.017Z" style="fill:#edfdeb;fill-rule:nonzero;"/></g><g transform="matrix(10,0,0,10,82.776,132.387)"><path d="M0.33,-0.35l-0.014,0c-0.015,0 -0.027,0.001 -0.035,0.002c-0.007,0.001 -0.014,0.006 -0.021,0.013c-0.007,0.007 -0.01,0.017 -0.01,0.031l0,0.304l-0.2,0l0,-0.5l0.1,0l0.045,0.046c0.041,-0.041 0.094,-0.061 0.16,-0.061c0.066,0 0.114,0.014 0.143,0.041c0.041,-0.027 0.088,-0.041 0.141,-0.041c0.054,0 0.096,0.01 0.126,0.031c0.03,0.02 0.045,0.048 0.045,0.084l0,0.4l-0.2,-0l-0,-0.35l-0.014,-0c-0.014,-0 -0.025,0.001 -0.033,0.002c-0.008,0.001 -0.015,0.005 -0.022,0.011c-0.007,0.006 -0.01,0.015 -0.011,0.027l0,0.31l-0.2,-0l0,-0.35Z" style="fill:#edfdeb;fill-rule:nonzero;"/></g><g transform="matrix(10,0,0,10,91.526,132.387)"><path d="M0.245,-0.17l0,0.035c0.02,0.002 0.04,0.003 0.06,0.003c0.062,0 0.125,-0.01 0.188,-0.03l0.024,0.147c-0.075,0.02 -0.149,0.03 -0.222,0.03c-0.093,0 -0.161,-0.022 -0.203,-0.065c-0.041,-0.044 -0.062,-0.111 -0.062,-0.2c-0,-0.089 0.021,-0.156 0.062,-0.199c0.042,-0.044 0.109,-0.066 0.202,-0.066c0.093,0 0.158,0.013 0.193,0.038c0.035,0.025 0.053,0.073 0.053,0.142c0,0.059 -0.021,0.101 -0.064,0.127c-0.042,0.025 -0.119,0.038 -0.231,0.038Zm-0,-0.157l-0,0.041l0.041,0c0.024,0 0.041,-0.002 0.052,-0.007c0.011,-0.005 0.017,-0.017 0.017,-0.035l-0,-0.041l-0.041,0c-0.024,0 -0.042,0.003 -0.053,0.008c-0.011,0.005 -0.016,0.016 -0.016,0.034Z" style="fill:#edfdeb;fill-rule:nonzero;"/></g><g transform="matrix(10,0,0,10,76.1821,178.691)"><path d="M0.465,-0.179l0.015,0.168c-0.042,0.017 -0.095,0.026 -0.158,0.026c-0.063,-0 -0.114,-0.007 -0.153,-0.02c-0.038,-0.013 -0.068,-0.034 -0.09,-0.063c-0.022,-0.029 -0.037,-0.062 -0.046,-0.101c-0.009,-0.039 -0.013,-0.086 -0.013,-0.143c-0,-0.057 0.004,-0.104 0.013,-0.143c0.009,-0.039 0.024,-0.073 0.046,-0.102c0.043,-0.055 0.121,-0.083 0.235,-0.083c0.025,0 0.055,0.003 0.089,0.008c0.035,0.005 0.06,0.011 0.077,0.018l-0.03,0.153c-0.043,-0.009 -0.083,-0.014 -0.119,-0.014c-0.036,-0 -0.061,0.003 -0.075,0.01c-0.014,0.007 -0.021,0.02 -0.021,0.04l-0,0.262c0.026,0.005 0.052,0.008 0.079,0.008c0.057,-0 0.107,-0.008 0.151,-0.024Z" style="fill:#edfdeb;fill-rule:nonzero;"/></g><g transform="matrix(10,0,0,10,81.3921,178.691)"><path d="M0.092,-0.05c-0.041,-0.044 -0.062,-0.111 -0.062,-0.2c0,-0.089 0.021,-0.156 0.062,-0.199c0.042,-0.044 0.11,-0.066 0.203,-0.066c0.093,0 0.161,0.022 0.202,0.066c0.042,0.043 0.063,0.11 0.063,0.199c0,0.089 -0.021,0.156 -0.063,0.2c-0.041,0.043 -0.109,0.065 -0.202,0.065c-0.093,-0 -0.161,-0.022 -0.203,-0.065Zm0.153,-0.277l-0,0.196l0.031,0c0.024,0 0.041,-0.002 0.052,-0.007c0.011,-0.005 0.017,-0.017 0.017,-0.035l0,-0.196l-0.031,0c-0.024,0 -0.042,0.003 -0.053,0.008c-0.011,0.005 -0.016,0.016 -0.016,0.034Z" style="fill:#edfdeb;fill-rule:nonzero;"/></g><g transform="matrix(10,0,0,10,87.5021,178.691)"><path d="M0.097,-0.48c0.043,-0.023 0.102,-0.035 0.177,-0.035c0.075,0 0.143,0.01 0.206,0.031l-0.023,0.136c-0.052,-0.015 -0.104,-0.022 -0.156,-0.022c-0.016,0 -0.039,0.001 -0.068,0.004l-0,0.032c0.108,-0 0.181,0.016 0.22,0.048c0.019,0.016 0.033,0.034 0.041,0.053c0.008,0.019 0.012,0.042 0.012,0.069c0,0.027 -0.003,0.051 -0.01,0.072c-0.006,0.021 -0.016,0.038 -0.029,0.051c-0.013,0.013 -0.026,0.023 -0.04,0.031c-0.014,0.008 -0.032,0.014 -0.055,0.017c-0.035,0.005 -0.076,0.008 -0.123,0.008c-0.083,-0 -0.157,-0.01 -0.224,-0.029l0.025,-0.142c0.056,0.017 0.117,0.026 0.182,0.026c0.03,-0 0.057,-0.001 0.082,-0.004l0,-0.032c-0.107,-0 -0.18,-0.014 -0.221,-0.042c-0.04,-0.028 -0.06,-0.074 -0.06,-0.139c0,-0.065 0.021,-0.11 0.064,-0.133Z" style="fill:#edfdeb;fill-rule:nonzero;"/></g><g transform="matrix(10,0,0,10,92.9721,178.691)"><path d="M0.02,-0.371l0,-0.129l0.05,0l0,-0.08l0.2,-0.05l0,0.13l0.069,0l0,0.129l-0.069,0l0,0.228c0.017,0.003 0.037,0.006 0.059,0.007l-0.009,0.147c-0.091,-0 -0.151,-0.005 -0.178,-0.015c-0.034,-0.012 -0.055,-0.028 -0.064,-0.048c-0.005,-0.012 -0.008,-0.026 -0.008,-0.042l0,-0.277l-0.05,0Z" style="fill:#edfdeb;fill-rule:nonzero;"/></g><g opacity="0"><g transform="matrix(1,0,0,1,27.35,191.587)"><clipPath id="_clip12"><rect x="0" y="-0.125" width="104.309" height="0.25" clip-rule="nonzero"/></clipPath><g clip-path="url(#_clip12)"><path d="M0,0l104.309,0l-104.309,0Z" style="fill:none;fill-rule:nonzero;stroke:#131321;stroke-width:0.25px;"/></g></g></g><g transform="matrix(1,0,0,1,21.5114,69.2963)"><path d="M0,0l118.09,0" style="fill:none;fill-rule:nonzero;stroke:#131321;stroke-width:0.25px;"/></g><g transform="matrix(1,0,0,1,21.5114,114.913)"><path d="M0,0l118.09,0" style="fill:none;fill-rule:nonzero;stroke:#131321;stroke-width:0.25px;"/></g><g transform="matrix(1,0,0,1,21.5114,160.53)"><path d="M0,0l118.09,0" style="fill:none;fill-rule:nonzero;stroke:#131321;stroke-width:0.25px;"/></g><g transform="matrix(1,0,0,1,68.4292,127.833)"><path d="M0,3.054l-1.257,-1.257c-0.072,-0.072 -0.112,-0.169 -0.112,-0.27l0,-1.908c0,-0.211 0.171,-0.382 0.382,-0.382c0.211,-0 0.382,0.171 0.382,0.382l0,1.75l1.145,1.145c0.149,0.149 0.149,0.391 0,0.54c-0.149,0.149 -0.391,0.149 -0.54,-0m-0.987,-5.344c-2.108,0 -3.817,1.709 -3.817,3.817c0,2.108 1.709,3.817 3.817,3.817c2.108,-0 3.817,-1.709 3.817,-3.817c-0,-2.108 -1.709,-3.817 -3.817,-3.817" style="fill:#edfdeb;fill-rule:nonzero;"/></g><g transform="matrix(1,0,0,1,68.9432,171.892)"><path d="M0,6.594l0,0.115c0,0.196 -0.158,0.353 -0.353,0.353c-0.195,-0 -0.353,-0.157 -0.353,-0.353l0,-0.131c-0.362,-0.076 -0.661,-0.337 -0.777,-0.702c-0.058,-0.186 0.045,-0.383 0.231,-0.442c0.186,-0.059 0.386,0.045 0.442,0.23c0.045,0.139 0.172,0.233 0.318,0.233l0.433,-0.004c0.226,-0.003 0.412,-0.189 0.412,-0.414c0,-0.231 -0.186,-0.417 -0.417,-0.417l-0.343,-0c-0.619,-0 -1.123,-0.504 -1.123,-1.122c0,-0.511 0.351,-0.944 0.824,-1.076l0,-0.155c0,-0.196 0.158,-0.353 0.353,-0.353c0.195,-0 0.353,0.157 0.353,0.353l0,0.134c0.365,0.078 0.659,0.341 0.772,0.706c0.056,0.186 -0.047,0.383 -0.235,0.442c-0.186,0.057 -0.384,-0.049 -0.441,-0.235c-0.042,-0.139 -0.171,-0.235 -0.317,-0.235l-0.193,0.004c-0.226,0.003 -0.41,0.189 -0.41,0.415c0,0.23 0.186,0.416 0.417,0.416l0.343,-0c0.619,-0 1.123,0.504 1.123,1.123c0,0.593 -0.471,1.08 -1.059,1.115m1.723,-5.18l-4.152,-0c-0.976,0.871 -2.459,2.554 -2.381,4.679c0.045,1.202 1.026,2.146 2.236,2.146l4.442,-0c1.21,-0 2.191,-0.944 2.236,-2.146c0.078,-2.125 -1.405,-3.808 -2.381,-4.679m-3.644,-0.706l3.136,-0l0.528,-1.405c0.04,-0.109 0.025,-0.23 -0.041,-0.325c-0.066,-0.095 -0.174,-0.152 -0.29,-0.152l-0.885,-0c-0.19,-0.284 -0.514,-0.471 -0.88,-0.471c-0.366,-0 -0.69,0.187 -0.88,0.471l-0.885,-0c-0.116,-0 -0.224,0.057 -0.29,0.152c-0.066,0.095 -0.081,0.216 -0.04,0.325l0.527,1.405Z" style="fill:#edfdeb;fill-rule:nonzero;"/></g><g transform="matrix(1,0,0,1,63.6824,35.2845)"><path d="M0,5.87c1.656,0.05 3.022,-1.283 3.026,-2.93c0.003,-1.617 -1.311,-2.936 -2.929,-2.941c-1.646,-0.005 -2.987,1.359 -2.942,3.017c0.042,1.549 1.297,2.807 2.845,2.854m0.552,1.566l-0.925,0c-0.19,0 -0.343,-0.159 -0.33,-0.349l0,-0.005c0.008,-0.101 0.002,-0.204 0.002,-0.294c-1.63,-0.422 -2.645,-1.438 -3.062,-3.062c-0.116,0 -0.236,0.001 -0.356,0c-0.199,-0.001 -0.287,-0.126 -0.289,-0.338c-0.002,-0.296 0.001,-0.606 -0.001,-0.91c-0.001,-0.227 0.092,-0.333 0.295,-0.334l0.351,0c0.419,-1.627 1.435,-2.642 3.062,-3.062l0,-0.343c0,-0.212 0.114,-0.304 0.334,-0.304c0.304,0 0.598,-0.001 0.903,0.001c0.225,-0.002 0.344,0.088 0.345,0.298l0,0.347c1.629,0.423 2.644,1.439 3.062,3.063c0.095,0 0.194,0.006 0.293,-0.002l0.005,0c0.189,-0.013 0.349,0.14 0.349,0.33l0,0.926c0,0.19 -0.159,0.343 -0.349,0.33l-0.005,0c-0.101,-0.008 -0.203,-0.002 -0.293,-0.002c-0.423,1.63 -1.438,2.645 -3.062,3.063c0,0.095 -0.007,0.194 0.001,0.293c0,0.002 0.001,0.003 0.001,0.005c0.013,0.189 -0.141,0.349 -0.331,0.349" style="fill:#edfdeb;fill-rule:nonzero;"/></g><g transform="matrix(1,0,0,1,64.0717,38.521)"><path d="M0,-0.601c0,-0.246 0.002,-0.479 -0.001,-0.711c-0.002,-0.177 -0.133,-0.308 -0.3,-0.308c-0.167,0.001 -0.296,0.133 -0.298,0.311c-0.002,0.2 0,0.399 0,0.599l0,0.101c-0.018,0.004 -0.022,0.006 -0.025,0.006c-0.226,0.001 -0.452,0.001 -0.679,0.002c-0.123,0 -0.219,0.051 -0.278,0.16c-0.108,0.2 0.033,0.434 0.266,0.438c0.236,0.004 0.471,0.001 0.716,0.001l0,0.117c0,0.203 -0.003,0.406 0.001,0.609c0.003,0.157 0.124,0.28 0.275,0.292c0.146,0.012 0.281,-0.087 0.315,-0.236c0.009,-0.041 0.008,-0.085 0.008,-0.128c0.001,-0.216 -0,-0.431 -0,-0.654c0.234,0 0.456,0.001 0.679,0c0.203,0 0.339,-0.12 0.339,-0.298c0.001,-0.179 -0.135,-0.3 -0.337,-0.301l-0.681,0m2.019,0.301c-0,1.279 -1.043,2.32 -2.322,2.318c-1.278,-0.002 -2.318,-1.046 -2.315,-2.325c0.002,-1.275 1.042,-2.313 2.317,-2.314c1.279,0 2.321,1.041 2.32,2.321" style="fill:#edfdeb;fill-rule:nonzero;"/></g></g></g><defs><linearGradient id="_Linear1" x1="0" y1="0" x2="1" y2="0" gradientUnits="userSpaceOnUse" gradientTransform="matrix(1,0,0,-1,0,-5.76211e-06)"><stop offset="0" style="stop-color:#43466e;stop-opacity:1"/><stop offset="1" style="stop-color:#585e81;stop-opacity:1"/></linearGradient><linearGradient id="_Linear2" x1="0" y1="0" x2="1" y2="0" gradientUnits="userSpaceOnUse" gradientTransform="matrix(1,0,0,-1,0,2.40515e-05)"><stop offset="0" style="stop-color:#b2f1e8;stop-opacity:1"/><stop offset="1" style="stop-color:#f7ffec;stop-opacity:1"/></linearGradient><linearGradient id="_Linear3" x1="0" y1="0" x2="1" y2="0" gradientUnits="userSpaceOnUse" gradientTransform="matrix(1,0,0,-1,0,2.40878e-05)"><stop offset="0" style="stop-color:#b2f1e8;stop-opacity:1"/><stop offset="1" style="stop-color:#f7ffec;stop-opacity:1"/></linearGradient><linearGradient id="_Linear4" x1="0" y1="0" x2="1" y2="0" gradientUnits="userSpaceOnUse" gradientTransform="matrix(1,0,0,-1,0,-6.75358e-06)"><stop offset="0" style="stop-color:#43466e;stop-opacity:1"/><stop offset="1" style="stop-color:#585e81;stop-opacity:1"/></linearGradient></defs></svg>