<?xml version="1.0" encoding="UTF-8"?><svg id="Layer_2" xmlns="http://www.w3.org/2000/svg" xmlns:xlink="http://www.w3.org/1999/xlink" viewBox="0 0 287.11 55.79"><defs><linearGradient id="linear-gradient" x1="-532.44" y1="13.17" x2="-464.54" y2="13.17" gradientTransform="translate(-354.89) rotate(-180) scale(1 -1)" gradientUnits="userSpaceOnUse"><stop offset="0" stop-color="#43466e"/><stop offset="1" stop-color="#585e81"/></linearGradient><linearGradient id="linear-gradient-2" x1="1.07" y1="31.1" x2="286.26" y2="31.1" gradientUnits="userSpaceOnUse"><stop offset="0" stop-color="#43466e"/><stop offset=".45" stop-color="#494d74"/><stop offset="1" stop-color="#585e81"/></linearGradient><clipPath id="clippath"><path d="M273.76,23.58c-3.29,0-6.09,2.13-7.09,5.08v-.07h-20v.03c-.73-.95-1.85-1.58-3.13-1.58s-2.42.63-3.15,1.6v-.05h-20v.03c-.73-.95-1.85-1.58-3.13-1.58s-2.42.63-3.15,1.6v-.05h-20v.04c-1.02-2.94-3.8-5.05-7.09-5.05s-6.07,2.11-7.08,5.05v-.04h-20v.03c-.73-.95-1.85-1.58-3.13-1.58s-2.42.63-3.15,1.6v-.05h-20v.03c-.73-.95-1.85-1.58-3.13-1.58s-2.42.63-3.15,1.6v-.05h-20v.04c-1.02-2.94-3.8-5.05-7.09-5.05s-6.09,2.13-7.1,5.09v-.08h-20v.03c-.73-.95-1.85-1.58-3.13-1.58s-2.42.63-3.15,1.6v-.05h-20v.03c-.73-.95-1.85-1.58-3.13-1.58s-2.42.63-3.15,1.6v-.05h-20v.04c-1.02-2.94-3.8-5.05-7.08-5.05-4.14,0-7.5,3.36-7.5,7.5s3.36,7.5,7.5,7.5c3.28,0,6.07-2.11,7.08-5.05v.04h20v-.05c.73.97,1.86,1.6,3.15,1.6s2.4-.62,3.13-1.58v.03h20v-.05c.73.97,1.86,1.6,3.15,1.6s2.4-.62,3.13-1.58v.03h20v-.08c1,2.96,3.8,5.09,7.1,5.09s6.07-2.11,7.09-5.05v.04h20v-.05c.73.97,1.86,1.6,3.15,1.6s2.4-.62,3.13-1.58v.03h20v-.05c.73.97,1.86,1.6,3.15,1.6s2.4-.62,3.13-1.58v.03h20v-.04c1.02,2.94,3.8,5.05,7.08,5.05s6.07-2.11,7.09-5.05v.04h20v-.05c.73.97,1.86,1.6,3.15,1.6s2.4-.62,3.13-1.58v.03h20v-.05c.73.97,1.86,1.6,3.15,1.6s2.4-.62,3.13-1.58v.03h20v-.07c1.01,2.95,3.8,5.08,7.09,5.08,4.14,0,7.5-3.36,7.5-7.5s-3.36-7.5-7.5-7.5Z" fill="none" stroke-width="0"/></clipPath></defs><g id="Timeline"><polygon points="177.55 25.44 169.22 .89 144.8 .89 142.4 .89 117.98 .89 109.65 25.44 177.55 25.44" fill="url(#linear-gradient)" stroke="#6e78b3" stroke-miterlimit="10" stroke-width="1.78"/><path d="M132.35,8.6h-1.17v1.36h-1.8v-5.62h2.83c1.29,0,1.93.69,1.93,2.08,0,.76-.17,1.32-.5,1.69-.13.14-.3.25-.52.35s-.48.14-.77.14ZM131.18,5.78v1.38h.41c.22,0,.37-.02.47-.07s.15-.15.15-.31v-.63c0-.16-.05-.26-.15-.31s-.26-.07-.47-.07h-.41Z" fill="#edfdeb" stroke-width="0"/><path d="M134.87,5.46h.9l.5.5c.35-.32.8-.54,1.33-.64l.11,1.7c-.14,0-.33.04-.56.11-.23.07-.39.15-.47.25v2.57h-1.8v-4.49Z" fill="#edfdeb" stroke-width="0"/><path d="M138.63,9.5c-.37-.39-.56-.99-.56-1.79s.19-1.4.56-1.79c.38-.39.98-.59,1.82-.59s1.45.2,1.82.59c.38.39.56.99.56,1.79s-.19,1.4-.56,1.79c-.37.39-.98.59-1.82.59s-1.45-.2-1.82-.59ZM140,7.02v1.76h.28c.22,0,.37-.02.47-.07s.15-.15.15-.31v-1.76h-.28c-.22,0-.37.02-.47.07-.1.04-.15.15-.15.31Z" fill="#edfdeb" stroke-width="0"/><path d="M142.65,11.44v-1.17l.47-.09c.19-.04.3-.08.36-.15.05-.06.08-.13.08-.21v-4.13l1.8-.22v4.49c0,.49-.12.85-.36,1.11-.24.25-.58.38-1.03.38h-1.3ZM143.65,5.18c-.13-.1-.2-.29-.2-.56s.07-.46.2-.57c.13-.11.4-.16.8-.16s.67.05.8.16c.13.11.2.3.2.57s-.07.46-.2.56c-.13.1-.4.15-.8.15s-.67-.05-.8-.15Z" fill="#edfdeb" stroke-width="0"/><path d="M147.99,8.43v.31c.18.02.36.03.54.03.56,0,1.12-.09,1.69-.27l.22,1.32c-.67.18-1.34.27-2,.27-.84,0-1.45-.2-1.82-.59-.37-.39-.56-.99-.56-1.79s.19-1.4.56-1.79c.38-.39.98-.59,1.82-.59s1.41.11,1.73.34c.32.23.48.65.48,1.28,0,.53-.19.91-.57,1.14s-1.07.35-2.08.35ZM147.99,7.02v.37h.37c.22,0,.37-.02.47-.07s.15-.15.15-.31v-.37h-.37c-.22,0-.37.02-.47.07-.1.04-.15.15-.15.31Z" fill="#edfdeb" stroke-width="0"/><path d="M154.62,8.61l.11,1.29c-.31.13-.71.19-1.2.19-.84,0-1.45-.2-1.82-.59-.37-.39-.56-.99-.56-1.79s.19-1.4.56-1.79c.38-.39.98-.59,1.82-.59.52,0,.92.06,1.2.19l-.22,1.22c-.32-.07-.57-.1-.75-.1-.46,0-.68.16-.68.48v1.61c.17.04.4.05.67.05s.56-.06.88-.17Z" fill="#edfdeb" stroke-width="0"/><path d="M155.17,6.62v-1.16h.45v-.72l1.8-.45v1.17h.62v1.16h-.62v2.05c.16.03.33.05.53.06l-.08,1.32c-.82,0-1.35-.04-1.6-.13-.31-.11-.5-.25-.58-.43-.05-.11-.07-.23-.07-.38v-2.49h-.45Z" fill="#edfdeb" stroke-width="0"/><path d="M130.13,12.97h-1.3v4.18h-1.8v-4.18h-1.3v-1.44h4.4v1.44Z" fill="#edfdeb" stroke-width="0"/><path d="M130.73,12.37c-.13-.1-.2-.29-.2-.56s.07-.46.2-.57c.13-.11.4-.16.8-.16s.67.05.8.16c.13.11.2.3.2.57s-.07.46-.2.56c-.13.1-.4.15-.8.15s-.67-.05-.8-.15ZM130.62,17.15v-4.27l1.8-.22v4.49h-1.8Z" fill="#edfdeb" stroke-width="0"/><path d="M135.84,14h-.13c-.14,0-.24,0-.31.02-.07.01-.13.05-.19.11-.06.06-.09.16-.09.28v2.73h-1.8v-4.49h.9l.41.41c.37-.37.84-.55,1.44-.55s1.02.12,1.29.37c.37-.25.79-.37,1.27-.37s.86.09,1.13.27c.27.18.4.44.4.76v3.59h-1.8v-3.15h-.13c-.13,0-.22,0-.3.02-.07.01-.14.04-.2.1-.06.05-.09.13-.1.24v2.79h-1.8v-3.15Z" fill="#edfdeb" stroke-width="0"/><path d="M142.75,15.62v.31c.18.02.36.03.54.03.56,0,1.12-.09,1.69-.27l.22,1.32c-.67.18-1.34.27-2,.27-.84,0-1.45-.2-1.82-.59-.37-.39-.56-.99-.56-1.79s.19-1.4.56-1.79c.38-.39.98-.59,1.82-.59s1.41.11,1.73.34c.32.23.48.65.48,1.28,0,.53-.19.91-.57,1.14s-1.07.35-2.08.35ZM142.75,14.21v.37h.37c.22,0,.37-.02.47-.07s.15-.15.15-.31v-.37h-.37c-.22,0-.37.02-.47.07-.1.04-.15.15-.15.31Z" fill="#edfdeb" stroke-width="0"/><path d="M147.87,11.17v4.69c.19.04.34.06.44.06l-.08,1.32c-.77,0-1.27-.04-1.52-.13-.31-.11-.5-.26-.57-.43-.05-.11-.07-.23-.07-.38v-5l1.8-.13Z" fill="#edfdeb" stroke-width="0"/><path d="M148.95,12.37c-.13-.1-.2-.29-.2-.56s.07-.46.2-.57c.13-.11.4-.16.8-.16s.67.05.8.16c.13.11.2.3.2.57s-.07.46-.2.56c-.13.1-.4.15-.8.15s-.67-.05-.8-.15ZM148.85,17.15v-4.27l1.8-.22v4.49h-1.8Z" fill="#edfdeb" stroke-width="0"/><path d="M152.44,12.65l.45.45c.56-.39,1.16-.58,1.8-.58.42,0,.75.09.99.27.24.18.36.44.36.76v3.59h-1.8v-3.15h-.28c-.2,0-.36.02-.46.07-.11.04-.16.14-.16.27v2.8h-1.8v-4.49h.9Z" fill="#edfdeb" stroke-width="0"/><path d="M158.64,15.62v.31c.18.02.36.03.54.03.56,0,1.12-.09,1.69-.27l.22,1.32c-.67.18-1.34.27-2,.27-.84,0-1.45-.2-1.82-.59-.37-.39-.56-.99-.56-1.79s.19-1.4.56-1.79c.38-.39.98-.59,1.82-.59s1.41.11,1.73.34c.32.23.48.65.48,1.28,0,.53-.19.91-.57,1.14s-1.07.35-2.08.35ZM158.64,14.21v.37h.37c.22,0,.37-.02.47-.07s.15-.15.15-.31v-.37h-.37c-.22,0-.37.02-.47.07-.1.04-.15.15-.15.31Z" fill="#edfdeb" stroke-width="0"/><path d="M273.76,18.6c-4.86,0-9.07,2.78-11.13,6.84h-13.1c-1.49-1.67-3.62-2.72-5.99-2.72s-4.5,1.05-5.99,2.72h-14.29c-1.49-1.67-3.62-2.72-5.99-2.72s-4.5,1.05-5.99,2.72h-13.1c-2.07-4.05-6.27-6.84-11.13-6.84s-9.07,2.78-11.13,6.84h-13.1c-1.49-1.67-3.62-2.72-5.99-2.72s-4.5,1.05-5.99,2.72h-14.29c-1.49-1.67-3.62-2.72-5.99-2.72s-4.5,1.05-5.99,2.72h-13.11c-2.07-4.05-6.27-6.84-11.13-6.84s-9.07,2.78-11.13,6.84h-13.1c-1.49-1.67-3.62-2.72-5.99-2.72s-4.5,1.05-5.99,2.72h-14.34c-1.49-1.67-3.62-2.72-5.99-2.72s-4.5,1.05-5.99,2.72h-13.06c-2.07-4.05-6.27-6.84-11.13-6.84-6.9,0-12.5,5.6-12.5,12.5s5.6,12.5,12.5,12.5c4.86,0,9.07-2.78,11.13-6.84h13.06c1.49,1.67,3.62,2.72,5.99,2.72s4.5-1.05,5.99-2.72h14.34c1.49,1.67,3.62,2.72,5.99,2.72s4.5-1.05,5.99-2.72h13.1c2.07,4.05,6.27,6.84,11.13,6.84s9.07-2.78,11.13-6.84h13.11c1.49,1.67,3.62,2.72,5.99,2.72s4.5-1.05,5.99-2.72h14.29c1.49,1.67,3.62,2.72,5.99,2.72s4.5-1.05,5.99-2.72h13.1c2.07,4.05,6.27,6.84,11.13,6.84s9.07-2.78,11.13-6.84h13.1c1.49,1.67,3.62,2.72,5.99,2.72s4.5-1.05,5.99-2.72h14.29c1.49,1.67,3.62,2.72,5.99,2.72s4.5-1.05,5.99-2.72h13.1c2.07,4.05,6.27,6.84,11.13,6.84,6.9,0,12.5-5.6,12.5-12.5s-5.6-12.5-12.5-12.5Z" fill="url(#linear-gradient-2)" stroke="#6e78b3" stroke-miterlimit="10" stroke-width="1.7"/><path d="M273.76,23.6c-3.29,0-6.08,2.13-7.09,5.08v-.07h-20v.03c-.73-.95-1.85-1.58-3.13-1.58s-2.42.63-3.15,1.6v-.05h-20v.03c-.73-.95-1.85-1.58-3.13-1.58s-2.42.63-3.15,1.6v-.05h-20v.04c-1.02-2.94-3.8-5.05-7.08-5.05s-6.07,2.11-7.08,5.05v-.04h-20v.03c-.73-.95-1.85-1.58-3.13-1.58s-2.42.63-3.15,1.6v-.05h-20v.03c-.73-.95-1.85-1.58-3.13-1.58s-2.42.63-3.15,1.6v-.05h-20v.04c-1.02-2.94-3.8-5.05-7.08-5.05s-6.09,2.13-7.1,5.09v-.08h-20v.03c-.73-.95-1.85-1.58-3.13-1.58s-2.42.63-3.15,1.6v-.05h-20v.03c-.73-.95-1.85-1.58-3.13-1.58s-2.42.63-3.15,1.6v-.05h-20v.04c-1.02-2.94-3.8-5.05-7.08-5.05-4.14,0-7.5,3.36-7.5,7.5s3.36,7.5,7.5,7.5c3.28,0,6.07-2.11,7.08-5.05v.04h20v-.05c.73.97,1.86,1.6,3.15,1.6s2.4-.62,3.13-1.58v.03h20v-.05c.73.97,1.86,1.6,3.15,1.6s2.4-.62,3.13-1.58v.03h20v-.08c1,2.96,3.8,5.09,7.1,5.09s6.07-2.11,7.08-5.05v.04h20v-.05c.73.97,1.86,1.6,3.15,1.6s2.4-.62,3.13-1.58v.03h20v-.05c.73.97,1.86,1.6,3.15,1.6s2.4-.62,3.13-1.58v.03h20v-.04c1.02,2.94,3.8,5.05,7.08,5.05s6.07-2.11,7.08-5.05v.04h20v-.05c.73.97,1.86,1.6,3.15,1.6s2.4-.62,3.13-1.58v.03h20v-.05c.73.97,1.86,1.6,3.15,1.6s2.4-.62,3.13-1.58v.03h20v-.07c1.01,2.95,3.8,5.08,7.09,5.08,4.14,0,7.5-3.36,7.5-7.5s-3.36-7.5-7.5-7.5Z" fill="#282844" stroke-width="0"/><g clip-path="url(#clippath)"><path id="Timeline_progress-bar-track" d="M6.02,31.11l275.24-.03-275.24.03Z" fill="#fff" opacity="0" stroke-width="0"/><rect id="Timeline_progress-bar" x="6.02" y="23.27" width="275.25" height="17.76" fill="#d076ff" stroke-width="0"/></g><path d="M.35,54.42v-4.38h1.4v4.38H.35Z" fill="#f3edf7" stroke-width="0"/><path d="M3.15,50.92l.35.35c.43-.3.9-.46,1.4-.46.33,0,.58.07.77.21.19.14.28.34.28.59v2.8h-1.4v-2.45h-.22c-.16,0-.28.02-.36.05s-.12.11-.12.21v2.18h-1.4v-3.5h.7Z" fill="#f3edf7" stroke-width="0"/><path d="M6.7,50.7c-.1-.08-.16-.22-.16-.43s.05-.36.16-.44.31-.13.62-.13.52.04.62.13c.11.08.16.23.16.44s-.05.35-.16.43c-.1.08-.31.12-.62.12s-.52-.04-.62-.12ZM6.61,54.42v-3.33l1.4-.17v3.5h-1.4Z" fill="#f3edf7" stroke-width="0"/><path d="M8.5,51.83v-.9h.35v-.56l1.4-.35v.91h.48v.9h-.48v1.6c.12.02.26.04.41.05l-.06,1.03c-.64,0-1.06-.04-1.25-.11-.24-.08-.39-.2-.45-.34-.04-.08-.06-.18-.06-.29v-1.94h-.35Z" fill="#f3edf7" stroke-width="0"/><path d="M11.34,50.7c-.1-.08-.16-.22-.16-.43s.05-.36.16-.44.31-.13.62-.13.52.04.62.13c.11.08.16.23.16.44s-.05.35-.16.43c-.1.08-.31.12-.62.12s-.52-.04-.62-.12ZM11.26,54.42v-3.33l1.4-.17v3.5h-1.4Z" fill="#f3edf7" stroke-width="0"/><path d="M15.02,50.82c1.12,0,1.68.39,1.68,1.16v2.45h-.7l-.4-.4c-.14.16-.32.28-.55.37-.23.09-.45.13-.66.13s-.37-.02-.5-.05c-.13-.03-.25-.09-.37-.17-.27-.17-.4-.48-.4-.94,0-.84.63-1.26,1.9-1.26h.28v-.25c-.15,0-.27-.01-.37-.01-.53,0-.98.06-1.36.19l-.17-1c.47-.14,1.01-.22,1.62-.22ZM14.53,53.22v.29h.29c.21,0,.34-.02.4-.07.06-.05.09-.11.09-.18v-.33h-.29c-.17,0-.29.02-.37.05-.08.04-.12.12-.12.24Z" fill="#f3edf7" stroke-width="0"/><path d="M17.12,51.83v-.9h.35v-.56l1.4-.35v.91h.48v.9h-.48v1.6c.12.02.26.04.41.05l-.06,1.03c-.64,0-1.06-.04-1.25-.11-.24-.08-.39-.2-.45-.34-.04-.08-.06-.18-.06-.29v-1.94h-.35Z" fill="#f3edf7" stroke-width="0"/><path d="M19.96,50.7c-.1-.08-.16-.22-.16-.43s.05-.36.16-.44.31-.13.62-.13.52.04.62.13c.11.08.16.23.16.44s-.05.35-.16.43c-.1.08-.31.12-.62.12s-.52-.04-.62-.12ZM19.88,54.42v-3.33l1.4-.17v3.5h-1.4Z" fill="#f3edf7" stroke-width="0"/><path d="M22.28,54.07c-.29-.31-.44-.77-.44-1.4s.15-1.09.44-1.4.76-.46,1.42-.46,1.13.15,1.42.46.44.77.44,1.4-.15,1.09-.44,1.4-.76.46-1.42.46-1.13-.15-1.42-.46ZM23.34,52.13v1.37h.22c.17,0,.29-.02.37-.05.08-.04.12-.12.12-.24v-1.37h-.22c-.17,0-.29.02-.37.05s-.12.12-.12.24Z" fill="#f3edf7" stroke-width="0"/><path d="M26.81,50.92l.35.35c.43-.3.9-.46,1.4-.46.33,0,.58.07.77.21.19.14.28.34.28.59v2.8h-1.4v-2.45h-.22c-.16,0-.28.02-.36.05s-.12.11-.12.21v2.18h-1.4v-3.5h.7Z" fill="#f3edf7" stroke-width="0"/><path d="M88.67,53.47h-.91v1.06h-1.4v-4.38h2.21c1,0,1.5.54,1.5,1.62,0,.59-.13,1.03-.39,1.32-.1.11-.23.2-.41.27s-.37.11-.6.11ZM87.76,51.27v1.08h.32c.17,0,.29-.02.37-.05s.12-.12.12-.24v-.49c0-.13-.04-.21-.12-.24-.08-.04-.2-.05-.37-.05h-.32Z" fill="#f3edf7" stroke-width="0"/><path d="M91.89,49.87v3.65c.15.03.26.04.34.05l-.06,1.03c-.6,0-.99-.04-1.18-.11-.24-.09-.38-.2-.44-.34-.04-.08-.06-.18-.06-.29v-3.89l1.4-.11Z" fill="#f3edf7" stroke-width="0"/><path d="M94.31,50.92c1.12,0,1.68.39,1.68,1.16v2.45h-.7l-.4-.4c-.14.16-.32.28-.55.37-.23.09-.45.13-.66.13s-.37-.02-.5-.05c-.13-.03-.25-.09-.37-.17-.27-.17-.4-.48-.4-.94,0-.84.63-1.26,1.9-1.26h.28v-.25c-.15,0-.27-.01-.37-.01-.53,0-.98.06-1.36.19l-.17-1c.47-.14,1.01-.22,1.62-.22ZM93.82,53.32v.29h.29c.21,0,.34-.02.4-.07.06-.05.09-.11.09-.18v-.33h-.29c-.17,0-.29.02-.37.05-.08.04-.12.12-.12.24Z" fill="#f3edf7" stroke-width="0"/><path d="M97.32,51.03l.35.35c.43-.3.9-.46,1.4-.46.33,0,.58.07.77.21.19.14.28.34.28.59v2.8h-1.4v-2.45h-.22c-.16,0-.28.02-.36.05-.08.04-.12.11-.12.21v2.18h-1.4v-3.5h.7Z" fill="#f3edf7" stroke-width="0"/><path d="M101.48,51.03l.35.35c.43-.3.9-.46,1.4-.46.33,0,.58.07.77.21.19.14.28.34.28.59v2.8h-1.4v-2.45h-.22c-.16,0-.28.02-.36.05-.08.04-.12.11-.12.21v2.18h-1.4v-3.5h.7Z" fill="#f3edf7" stroke-width="0"/><path d="M105.03,50.8c-.11-.08-.16-.22-.16-.43s.05-.36.16-.44c.1-.08.31-.13.62-.13s.52.04.62.13c.11.08.16.23.16.44s-.05.35-.16.43c-.1.08-.31.12-.62.12s-.52-.04-.62-.12ZM104.95,54.53v-3.33l1.4-.17v3.5h-1.4Z" fill="#f3edf7" stroke-width="0"/><path d="M107.75,51.03l.35.35c.43-.3.9-.46,1.4-.46.33,0,.58.07.77.21.19.14.28.34.28.59v2.8h-1.4v-2.45h-.22c-.16,0-.28.02-.36.05-.08.04-.12.11-.12.21v2.18h-1.4v-3.5h.7Z" fill="#f3edf7" stroke-width="0"/><path d="M111.02,55.47l.18-1.04c.4.13.86.2,1.39.2.16,0,.27,0,.34-.01v-.25c-.42,0-.69-.02-.82-.05-.13-.04-.21-.07-.25-.11-.04-.04-.06-.06-.07-.09,0-.02-.01-.06-.01-.1l.21-.6c-.34-.06-.59-.19-.77-.38s-.26-.49-.26-.9.14-.71.41-.92.72-.31,1.34-.31c.22,0,.42.01.6.04l.61-.47.74.71-.4.47c.06.16.09.37.09.63,0,.37-.09.64-.28.82-.18.18-.51.29-.98.33l-.03.17c.5.03.86.1,1.07.23.21.12.31.35.31.68,0,.56-.27.92-.82,1.05-.27.07-.64.11-1.1.11s-.96-.07-1.51-.21ZM112.28,52.15v.46h.22c.17,0,.29-.02.37-.05.08-.04.12-.12.12-.24v-.46h-.22c-.17,0-.29.02-.37.05-.08.03-.12.12-.12.24Z" fill="#f3edf7" stroke-width="0"/><path d="M174.31,52.77h-1.4v.53h1.71v1.12h-3.12v-4.38h3.08l-.17,1.12h-1.5v.59h1.4v1.01Z" fill="#f3edf7" stroke-width="0"/><path d="M176.37,50.92l.39.87h.04l.36-.87h1.46l-.88,1.79.91,1.71h-1.46l-.43-.95h-.04l-.4.95h-1.46l.91-1.81-.88-1.69h1.46Z" fill="#f3edf7" stroke-width="0"/><path d="M180.37,53.23v.25c.14.01.28.02.42.02.43,0,.87-.07,1.32-.21l.17,1.03c-.52.14-1.04.21-1.55.21-.65,0-1.13-.15-1.42-.46-.29-.31-.44-.77-.44-1.4s.15-1.09.44-1.4c.29-.31.76-.46,1.41-.46s1.1.09,1.35.27.37.51.37.99c0,.41-.15.71-.44.88-.3.18-.84.27-1.62.27ZM180.37,52.13v.29h.29c.17,0,.29-.02.37-.05.08-.04.12-.12.12-.24v-.29h-.29c-.17,0-.29.02-.37.05s-.12.12-.12.24Z" fill="#f3edf7" stroke-width="0"/><path d="M185.53,53.37l.08,1.01c-.24.1-.55.15-.94.15-.65,0-1.13-.15-1.42-.46-.29-.31-.44-.77-.44-1.4s.15-1.09.44-1.4c.29-.31.76-.46,1.42-.46.41,0,.72.05.94.15l-.17.95c-.25-.05-.44-.08-.59-.08-.35,0-.53.12-.53.37v1.25c.14.03.31.04.52.04s.44-.04.68-.13Z" fill="#f3edf7" stroke-width="0"/><path d="M187.5,50.92v2.58h.22c.17,0,.29-.02.37-.05s.12-.12.12-.24v-2.29h1.4v3.5h-.7l-.41-.4c-.28.34-.68.5-1.2.5-.42,0-.72-.09-.91-.27-.19-.18-.29-.47-.29-.89v-2.45h1.4Z" fill="#f3edf7" stroke-width="0"/><path d="M190.09,51.83v-.9h.35v-.56l1.4-.35v.91h.48v.9h-.48v1.6c.12.02.26.04.41.05l-.06,1.03c-.64,0-1.05-.04-1.25-.11-.24-.08-.39-.2-.45-.34-.04-.08-.06-.18-.06-.29v-1.94h-.35Z" fill="#f3edf7" stroke-width="0"/><path d="M192.93,50.7c-.11-.08-.16-.22-.16-.43s.05-.36.16-.44c.1-.08.31-.13.62-.13s.52.04.62.13c.11.08.16.23.16.44s-.05.35-.16.43c-.1.08-.31.12-.62.12s-.52-.04-.62-.12ZM192.85,54.42v-3.33l1.4-.17v3.5h-1.4Z" fill="#f3edf7" stroke-width="0"/><path d="M195.25,54.07c-.29-.31-.44-.77-.44-1.4s.15-1.09.44-1.4c.29-.31.76-.46,1.42-.46s1.13.15,1.42.46c.29.31.44.77.44,1.4s-.15,1.09-.44,1.4c-.29.31-.76.46-1.42.46s-1.13-.15-1.42-.46ZM196.32,52.13v1.37h.22c.17,0,.29-.02.37-.05.08-.04.12-.12.12-.24v-1.37h-.22c-.17,0-.29.02-.37.05s-.12.12-.12.24Z" fill="#f3edf7" stroke-width="0"/><path d="M199.78,50.92l.35.35c.43-.3.9-.46,1.4-.46.33,0,.58.07.77.21s.28.34.28.59v2.8h-1.4v-2.45h-.22c-.16,0-.28.02-.36.05-.08.04-.12.11-.12.21v2.18h-1.4v-3.5h.7Z" fill="#f3edf7" stroke-width="0"/><path d="M265.27,53.17l.1,1.18c-.29.12-.66.18-1.11.18s-.8-.05-1.07-.14c-.27-.09-.48-.24-.63-.44-.15-.2-.26-.44-.32-.71s-.09-.6-.09-1,.03-.73.09-1,.17-.51.32-.71c.3-.39.85-.58,1.65-.58.18,0,.39.02.63.05s.42.08.54.13l-.21,1.07c-.3-.07-.58-.1-.83-.1s-.43.02-.52.07c-.1.05-.15.14-.15.28v1.83c.18.04.37.06.55.06.4,0,.75-.06,1.06-.17Z" fill="#f3edf7" stroke-width="0"/><path d="M267.27,49.77v3.65c.15.03.26.04.34.05l-.06,1.03c-.6,0-.99-.04-1.18-.11-.24-.09-.38-.2-.44-.34-.04-.08-.06-.18-.06-.29v-3.89l1.4-.11Z" fill="#f3edf7" stroke-width="0"/><path d="M268.33,54.07c-.29-.31-.44-.77-.44-1.4s.15-1.09.44-1.4c.29-.31.76-.46,1.42-.46s1.13.15,1.42.46c.29.31.44.77.44,1.4s-.15,1.09-.44,1.4c-.29.31-.76.46-1.42.46s-1.13-.15-1.42-.46ZM269.4,52.13v1.37h.22c.17,0,.29-.02.37-.05.08-.04.12-.12.12-.24v-1.37h-.22c-.17,0-.29.02-.37.05s-.12.12-.12.24Z" fill="#f3edf7" stroke-width="0"/><path d="M272.49,51.06c.3-.16.71-.25,1.24-.25s1,.07,1.44.22l-.16.95c-.36-.1-.73-.15-1.09-.15-.11,0-.27,0-.48.03v.22c.76,0,1.27.11,1.54.34.13.11.23.23.29.37.06.13.08.29.08.48s-.02.36-.07.51c-.04.15-.11.27-.2.36s-.19.16-.28.22c-.1.06-.23.1-.38.12-.25.04-.53.06-.86.06-.58,0-1.1-.07-1.57-.2l.17-.99c.39.12.82.18,1.27.18.21,0,.4,0,.57-.03v-.22c-.75,0-1.26-.1-1.54-.29s-.42-.52-.42-.98.15-.76.45-.93Z" fill="#f3edf7" stroke-width="0"/><path d="M275.92,50.7c-.11-.08-.16-.22-.16-.43s.05-.36.16-.44c.1-.08.31-.13.62-.13s.52.04.62.13c.11.08.16.23.16.44s-.05.35-.16.43c-.1.08-.31.12-.62.12s-.52-.04-.62-.12ZM275.84,54.42v-3.33l1.4-.17v3.5h-1.4Z" fill="#f3edf7" stroke-width="0"/><path d="M278.64,50.92l.35.35c.43-.3.9-.46,1.4-.46.33,0,.58.07.77.21s.28.34.28.59v2.8h-1.4v-2.45h-.22c-.16,0-.28.02-.36.05-.08.04-.12.11-.12.21v2.18h-1.4v-3.5h.7Z" fill="#f3edf7" stroke-width="0"/><path d="M281.92,55.37l.18-1.04c.4.13.86.2,1.39.2.16,0,.27,0,.34-.01v-.25c-.42,0-.69-.02-.82-.05-.13-.04-.21-.07-.25-.11-.04-.04-.06-.06-.07-.09,0-.02-.01-.06-.01-.1l.21-.6c-.34-.06-.59-.19-.77-.38-.18-.19-.26-.49-.26-.9s.14-.71.41-.92.72-.31,1.34-.31c.22,0,.42.01.59.04l.61-.47.73.71-.4.47c.06.16.09.37.09.63,0,.37-.09.64-.28.82s-.51.29-.98.33l-.03.17c.5.03.86.1,1.07.23.21.12.31.35.31.68,0,.56-.27.92-.82,1.05-.27.07-.64.11-1.1.11s-.96-.07-1.51-.21ZM283.18,52.04v.46h.22c.17,0,.29-.02.37-.05s.12-.12.12-.24v-.46h-.22c-.17,0-.29.02-.37.05-.08.03-.12.12-.12.24Z" fill="#f3edf7" stroke-width="0"/></g></svg>