<?xml version="1.0" encoding="UTF-8"?>
<svg xmlns="http://www.w3.org/2000/svg" viewBox="0 0 325.14 417.41">
  <rect x="3" y="39.48" width="319.14" height="374.93" rx="22.64" ry="22.64" fill="#414666" stroke="#6e78b3"
    stroke-miterlimit="10" stroke-width="6" />
  <path d="M235.16,38.52H91.55c5.66-11.84,11.32-23.68,16.98-35.52h110.16c5.49,11.84,10.98,23.68,16.48,35.52Z"
    fill="#414666" stroke="#6e78b3" stroke-miterlimit="10" stroke-width="6" /><text transform="translate(118.61 28.32)"
    fill="#edfdeb" font-family="ChangaOne, &apos;Changa One&apos;" font-size="22.32" letter-spacing=".02em">
    <tspan x="0" y="0">Risk Log</tspan>
  </text>
  <path
    d="M315.54,63.28c0,.46-.37.84-.83.84h-1.79c-.22,0-.43-.09-.59-.24l-1.3-1.3-1.3,1.3c-.16.16-.37.24-.59.24h-1.79c-.46,0-.83-.38-.83-.84,0-.22.09-.43.25-.58l3.19-3.19c.6-.6,1.56-.6,2.16,0l3.19,3.19c.16.16.25.37.25.58h0Z"
    fill="#6e78b3" stroke-width="0" />
  <path
    d="M309.53,63.68l1.49-1.49,1.49,1.49c.11.11.25.17.4.17h1.79c.5,0,.75-.61.4-.96l-3.19-3.19c-.49-.49-1.29-.49-1.78,0l-3.19,3.19c-.36.36-.1.96.4.96h1.79c.15,0,.29-.06.4-.17Z"
    fill="#6e78b3" stroke-width="0" />
  <path
    d="M306.76,388.4c0-.46.37-.84.83-.84h1.79c.22,0,.43.09.59.24l1.3,1.3,1.3-1.3c.16-.16.37-.24.59-.24h1.79c.46,0,.83.38.83.84,0,.22-.09.43-.25.58l-3.19,3.19c-.6.6-1.56.6-2.16,0l-3.19-3.19c-.16-.16-.25-.37-.25-.58h0Z"
    fill="#6e78b3" stroke-width="0" />
  <path
    d="M312.77,387.99l-1.49,1.49-1.49-1.49c-.11-.11-.25-.17-.4-.17h-1.79c-.5,0-.75.61-.4.96l3.19,3.19c.49.49,1.29.49,1.78,0l3.19-3.19c.36-.36.1-.96-.4-.96h-1.79c-.15,0-.29.06-.4.17Z"
    fill="#6e78b3" stroke-width="0" />
</svg>