<?xml version="1.0" encoding="UTF-8"?><svg id="Layer_2" xmlns="http://www.w3.org/2000/svg" xmlns:xlink="http://www.w3.org/1999/xlink" viewBox="0 0 154.36 42.04"><defs><linearGradient id="linear-gradient" x1="89.08" y1="-37.85" x2="69.67" y2="61.34" gradientTransform="translate(0 44) scale(1 -1)" gradientUnits="userSpaceOnUse"><stop offset="0" stop-color="#bdf8c7"/><stop offset="1" stop-color="#d9ffde"/></linearGradient><linearGradient id="linear-gradient-2" x1="88.35" y1="-34.11" x2="70.13" y2="58.98" gradientTransform="translate(0 44) scale(1 -1)" gradientUnits="userSpaceOnUse"><stop offset="0" stop-color="#21cf46"/><stop offset=".99" stop-color="#67ff7d"/></linearGradient></defs><g id="Layer_4"><path d="M154.36,11.61v18.82c0,6.41-5.2,11.61-11.61,11.61H11.61c-6.41,0-11.61-5.2-11.61-11.61V11.61C0,5.2,5.2,0,11.61,0h131.13c6.41,0,11.61,5.2,11.61,11.61h0Z" fill="url(#linear-gradient)" stroke-width="0"/><rect x="2.02" y="2.02" width="150.31" height="38" rx="9.78" ry="9.78" fill="url(#linear-gradient-2)" stroke-width="0"/><g isolation="isolate"><g isolation="isolate"><path d="M52.3,27.93l.63-3.74c1.39.35,2.64.52,3.75.52s2-.04,2.68-.14v-1.13l-2.04-.18c-1.84-.17-3.11-.61-3.79-1.32-.69-.72-1.03-1.78-1.03-3.18,0-1.93.42-3.26,1.26-3.99.84-.72,2.26-1.09,4.27-1.09s3.82.19,5.44.57l-.57,3.62c-1.4-.23-2.53-.34-3.38-.34s-1.56.04-2.15.11v1.11l1.63.16c1.98.2,3.34.67,4.1,1.42.75.75,1.13,1.79,1.13,3.11,0,.95-.13,1.75-.39,2.41-.26.66-.56,1.16-.92,1.49-.35.34-.86.6-1.51.78-.65.18-1.22.29-1.71.33-.49.04-1.14.06-1.96.06-1.96,0-3.78-.2-5.46-.59Z" fill="#f7ffec" stroke-width="0"/><path d="M65.25,19.78v-2.92h1.13v-1.81l4.53-1.13v2.94h1.56v2.92h-1.56v5.16c.39.08.84.13,1.34.16l-.2,3.33c-2.07,0-3.41-.11-4.03-.34-.77-.27-1.25-.63-1.45-1.09-.12-.27-.18-.59-.18-.95v-6.27h-1.13Z" fill="#f7ffec" stroke-width="0"/><path d="M79.54,16.52c3.62,0,5.44,1.25,5.44,3.74v7.93h-2.27l-1.29-1.29c-.44.51-1.03.91-1.79,1.2-.75.29-1.47.43-2.14.43s-1.21-.05-1.62-.16c-.41-.11-.81-.29-1.2-.54-.86-.54-1.29-1.55-1.29-3.04,0-2.72,2.05-4.08,6.16-4.08h.91v-.82c-.48-.03-.88-.04-1.2-.04-1.71,0-3.17.2-4.39.61l-.54-3.24c1.51-.47,3.25-.7,5.23-.7ZM77.96,24.28v.93h.93c.66,0,1.09-.08,1.28-.23.19-.15.28-.35.28-.59v-1.06h-.93c-.54,0-.94.06-1.19.17-.25.11-.37.37-.37.78Z" fill="#f7ffec" stroke-width="0"/><path d="M87.02,16.85h2.26l1.25,1.27c.89-.82,2.01-1.35,3.35-1.61l.27,4.28c-.36.01-.83.11-1.42.27-.58.17-.98.38-1.19.63v6.48h-4.53v-11.32Z" fill="#f7ffec" stroke-width="0"/><path d="M94.83,19.78v-2.92h1.13v-1.81l4.53-1.13v2.94h1.56v2.92h-1.56v5.16c.39.08.84.13,1.34.16l-.2,3.33c-2.07,0-3.41-.11-4.03-.34-.77-.27-1.25-.63-1.45-1.09-.12-.27-.18-.59-.18-.95v-6.27h-1.13Z" fill="#f7ffec" stroke-width="0"/></g><g isolation="isolate"><path d="M52.3,27.93l.63-3.74c1.39.35,2.64.52,3.75.52s2-.04,2.68-.14v-1.13l-2.04-.18c-1.84-.17-3.11-.61-3.79-1.32-.69-.72-1.03-1.78-1.03-3.18,0-1.93.42-3.26,1.26-3.99.84-.72,2.26-1.09,4.27-1.09s3.82.19,5.44.57l-.57,3.62c-1.4-.23-2.53-.34-3.38-.34s-1.56.04-2.15.11v1.11l1.63.16c1.98.2,3.34.67,4.1,1.42.75.75,1.13,1.79,1.13,3.11,0,.95-.13,1.75-.39,2.41-.26.66-.56,1.16-.92,1.49-.35.34-.86.6-1.51.78-.65.18-1.22.29-1.71.33-.49.04-1.14.06-1.96.06-1.96,0-3.78-.2-5.46-.59Z" fill="none" stroke="#282844" stroke-linecap="round" stroke-linejoin="round" stroke-width=".51"/><path d="M65.25,19.78v-2.92h1.13v-1.81l4.53-1.13v2.94h1.56v2.92h-1.56v5.16c.39.08.84.13,1.34.16l-.2,3.33c-2.07,0-3.41-.11-4.03-.34-.77-.27-1.25-.63-1.45-1.09-.12-.27-.18-.59-.18-.95v-6.27h-1.13Z" fill="none" stroke="#282844" stroke-linecap="round" stroke-linejoin="round" stroke-width=".51"/><path d="M79.54,16.52c3.62,0,5.44,1.25,5.44,3.74v7.93h-2.27l-1.29-1.29c-.44.51-1.03.91-1.79,1.2-.75.29-1.47.43-2.14.43s-1.21-.05-1.62-.16c-.41-.11-.81-.29-1.2-.54-.86-.54-1.29-1.55-1.29-3.04,0-2.72,2.05-4.08,6.16-4.08h.91v-.82c-.48-.03-.88-.04-1.2-.04-1.71,0-3.17.2-4.39.61l-.54-3.24c1.51-.47,3.25-.7,5.23-.7ZM77.96,24.28v.93h.93c.66,0,1.09-.08,1.28-.23.19-.15.28-.35.28-.59v-1.06h-.93c-.54,0-.94.06-1.19.17-.25.11-.37.37-.37.78Z" fill="none" stroke="#282844" stroke-linecap="round" stroke-linejoin="round" stroke-width=".51"/><path d="M87.02,16.85h2.26l1.25,1.27c.89-.82,2.01-1.35,3.35-1.61l.27,4.28c-.36.01-.83.11-1.42.27-.58.17-.98.38-1.19.63v6.48h-4.53v-11.32Z" fill="none" stroke="#282844" stroke-linecap="round" stroke-linejoin="round" stroke-width=".51"/><path d="M94.83,19.78v-2.92h1.13v-1.81l4.53-1.13v2.94h1.56v2.92h-1.56v5.16c.39.08.84.13,1.34.16l-.2,3.33c-2.07,0-3.41-.11-4.03-.34-.77-.27-1.25-.63-1.45-1.09-.12-.27-.18-.59-.18-.95v-6.27h-1.13Z" fill="none" stroke="#282844" stroke-linecap="round" stroke-linejoin="round" stroke-width=".51"/></g></g></g></svg>