<?xml version="1.0" encoding="UTF-8"?>
<svg id="Timeline" xmlns="http://www.w3.org/2000/svg" viewBox="0 0 367.24 51.88">
  <polygon points="219.32 23.01 211.85 1 189.12 1 186.89 1 164.16 1 156.75 22.85 219.32 23.01" fill="#414666"
    stroke="#6e78b3" stroke-miterlimit="10" stroke-width="2" />
  <path id="Timeline_progress-bar-track" d="M7.26,30.1l354.02.05-354.02-.05Z" fill="#fff" opacity="0"
    stroke-width="0" />
  <rect id="Timeline_progress-bar" x="7.26" y="23.81" width="354.02" height="13.26" fill="#d076ff" stroke-width="0" />
  <path
    d="M360.17,25.02h-11.85s0,0,0,0c-.7-1.15-1.6-2.16-2.67-2.98-.03-.03-.07-.05-.1-.08-.32-.24-.65-.46-.99-.66-.04-.02-.08-.05-.12-.07-.74-.42-1.53-.76-2.37-.99-.11-.03-.22-.06-.34-.09-.31-.08-.62-.14-.94-.19-.12-.02-.24-.04-.37-.06-.43-.05-.86-.09-1.31-.09s-.88.03-1.31.09c-.12.02-.24.04-.37.06-.32.05-.63.11-.94.19-.11.03-.22.05-.34.09-.84.24-1.63.57-2.37.99-.04.02-.08.05-.12.07-.34.2-.67.42-.99.66-.03.03-.07.05-.1.08-1.07.82-1.97,1.83-2.67,2.98h-42.35c-1.87-3.23-5.36-5.42-9.37-5.42s-7.5,2.18-9.37,5.42h-40.16c-1.88-3.12-5.3-5.21-9.21-5.21s-7.32,2.09-9.21,5.21h-44.89c-1.86-3.24-5.34-5.42-9.33-5.42s-7.48,2.18-9.33,5.42h-48.25c-1.87-3.23-5.36-5.42-9.37-5.42s-7.5,2.18-9.37,5.42h-42.85c-1.87-3.23-5.36-5.42-9.37-5.42s-7.5,2.18-9.37,5.42H7.08c-3.08,0-5.57,2.49-5.57,5.57h-.01c0,3.08,2.49,5.57,5.57,5.57h11.2c1.91,3.06,5.31,5.11,9.18,5.11s7.27-2.04,9.18-5.11h43.23c1.91,3.06,5.31,5.11,9.18,5.11s7.27-2.04,9.18-5.11h48.74c1.91,2.98,5.25,4.96,9.05,4.96s7.14-1.98,9.05-4.96h45.2c1.89,3.1,5.29,5.17,9.18,5.17s7.29-2.07,9.18-5.17h40.39c1.91,3.06,5.31,5.11,9.18,5.11s7.27-2.04,9.18-5.11h42.56c.7,1.14,1.6,2.15,2.66,2.96.04.03.07.05.11.08.32.24.65.46,1,.66.04.02.07.04.11.07.38.22.78.42,1.19.59,0,0,0,0,0,0,.38.16.77.29,1.17.4.11.03.23.06.34.09.31.08.62.14.94.19.12.02.24.04.37.06.43.05.86.09,1.3.09s.87-.03,1.3-.09c.12-.02.24-.04.37-.06.32-.05.63-.11.94-.19.11-.03.23-.06.34-.09.4-.11.79-.24,1.16-.4,0,0,0,0,0,0,.41-.17.8-.37,1.19-.59.04-.02.07-.04.11-.07.35-.2.68-.42,1-.66.04-.03.07-.05.11-.08,1.06-.81,1.96-1.81,2.66-2.96,0,0,0,0,0,0h11.88c3.08,0,5.57-2.49,5.57-5.57s-2.49-5.57-5.57-5.57Z"
    fill="none" stroke="#6e78b3" stroke-miterlimit="10" stroke-width="3" />
  <path
    d="M360.17,25.02h-11.85s0,0,0,0c-.7-1.15-1.6-2.16-2.67-2.98-.03-.03-.07-.05-.1-.08-.32-.24-.65-.46-.99-.66-.04-.02-.08-.05-.12-.07-.74-.42-1.53-.76-2.37-.99-.11-.03-.22-.06-.34-.09-.31-.08-.62-.14-.94-.19-.12-.02-.24-.04-.37-.06-.43-.05-.86-.09-1.31-.09s-.88.03-1.31.09c-.12.02-.24.04-.37.06-.32.05-.63.11-.94.19-.11.03-.22.05-.34.09-.84.24-1.63.57-2.37.99-.04.02-.08.05-.12.07-.34.2-.67.42-.99.66-.03.03-.07.05-.1.08-1.07.82-1.97,1.83-2.67,2.98h-42.35c-1.87-3.23-5.36-5.42-9.37-5.42s-7.5,2.18-9.37,5.42h-40.16c-1.88-3.12-5.3-5.21-9.21-5.21s-7.32,2.09-9.21,5.21h-44.89c-1.86-3.24-5.34-5.42-9.33-5.42s-7.48,2.18-9.33,5.42h-48.25c-1.87-3.23-5.36-5.42-9.37-5.42s-7.5,2.18-9.37,5.42h-42.85c-1.87-3.23-5.36-5.42-9.37-5.42s-7.5,2.18-9.37,5.42H7.08c-3.08,0-5.57,2.49-5.57,5.57h-.01c0,3.08,2.49,5.57,5.57,5.57h11.2c1.91,3.06,5.31,5.11,9.18,5.11s7.27-2.04,9.18-5.11h43.23c1.91,3.06,5.31,5.11,9.18,5.11s7.27-2.04,9.18-5.11h48.74c1.91,2.98,5.25,4.96,9.05,4.96s7.14-1.98,9.05-4.96h45.2c1.89,3.1,5.29,5.17,9.18,5.17s7.29-2.07,9.18-5.17h40.39c1.91,3.06,5.31,5.11,9.18,5.11s7.27-2.04,9.18-5.11h42.56c.7,1.14,1.6,2.15,2.66,2.96.04.03.07.05.11.08.32.24.65.46,1,.66.04.02.07.04.11.07.38.22.78.42,1.19.59,0,0,0,0,0,0,.38.16.77.29,1.17.4.11.03.23.06.34.09.31.08.62.14.94.19.12.02.24.04.37.06.43.05.86.09,1.3.09s.87-.03,1.3-.09c.12-.02.24-.04.37-.06.32-.05.63-.11.94-.19.11-.03.23-.06.34-.09.4-.11.79-.24,1.16-.4,0,0,0,0,0,0,.41-.17.8-.37,1.19-.59.04-.02.07-.04.11-.07.35-.2.68-.42,1-.66.04-.03.07-.05.11-.08,1.06-.81,1.96-1.81,2.66-2.96,0,0,0,0,0,0h11.88c3.08,0,5.57-2.49,5.57-5.57s-2.49-5.57-5.57-5.57ZM359.05,32.01h-13.49c-.66,2.9-3.24,5.06-6.33,5.06-.44,0-.87-.05-1.28-.14-2.6-.42-4.68-2.38-5.27-4.92h-47.83c-.66,2.9-3.24,5.06-6.33,5.06-.44,0-.87-.05-1.28-.14-2.6-.42-4.68-2.38-5.27-4.92h-46.06c-.66,2.9-3.24,5.06-6.33,5.06-.44,0-.87-.05-1.28-.14-2.6-.42-4.68-2.38-5.27-4.92h-50.59c-.73,2.79-3.26,4.85-6.28,4.85-.43,0-.85-.05-1.26-.13-2.54-.4-4.58-2.27-5.24-4.72h-54.12c-.73,2.79-3.26,4.85-6.28,4.85-.43,0-.85-.05-1.26-.13-2.54-.4-4.58-2.27-5.24-4.72h-48.9c-.73,2.79-3.26,4.85-6.28,4.85-.43,0-.85-.05-1.26-.13-2.54-.4-4.58-2.27-5.24-4.72h-11.32c-.21,0-.41-.03-.61-.08-1.05-.15-1.86-.9-1.86-1.83,0-1.03,1-1.86,2.23-1.86h11.66c.87-2.57,3.29-4.43,6.16-4.43.42,0,.83.05,1.22.13,2.41.37,4.38,2.06,5.15,4.3h49.15c.87-2.57,3.29-4.43,6.16-4.43.42,0,.83.05,1.22.13,2.41.37,4.38,2.06,5.15,4.3h54.37c.87-2.57,3.29-4.43,6.16-4.43.42,0,.83.05,1.22.13,2.41.37,4.38,2.06,5.15,4.3h50.97c.92-2.46,3.29-4.22,6.08-4.22.41,0,.81.05,1.2.12,2.34.35,4.27,1.95,5.09,4.1h46.57c.92-2.46,3.29-4.22,6.08-4.22.41,0,.81.05,1.2.12,2.34.35,4.27,1.95,5.09,4.1h48.34c.92-2.46,3.29-4.22,6.08-4.22.41,0,.81.05,1.2.12,2.34.35,4.27,1.95,5.09,4.1h13.52c.21,0,.41.03.61.08,1.05.15,1.86.9,1.86,1.83,0,1.03-1,1.86-2.23,1.86Z"
    fill="#414666" stroke-width="0" />
  <g isolation="isolate"><text transform="translate(12.42 50.62)" fill="#f3edf7"
      font-family="ChangaOne, &apos;Changa One&apos;" font-size="7" isolation="isolate">
      <tspan x="0" y="0">Initiation</tspan>
    </text></g>
  <g isolation="isolate"><text transform="translate(76.43 50.52)" fill="#f3edf7"
      font-family="ChangaOne, &apos;Changa One&apos;" font-size="7" isolation="isolate">
      <tspan x="0" y="0">Concept</tspan>
    </text></g>
  <g isolation="isolate"><text transform="translate(132.62 50.62)" fill="#f3edf7"
      font-family="ChangaOne, &apos;Changa One&apos;" font-size="7" isolation="isolate">
      <tspan x="0" y="0">Preproduction</tspan>
    </text></g>
  <g isolation="isolate"><text transform="translate(201.93 50.52)" fill="#f3edf7"
      font-family="ChangaOne, &apos;Changa One&apos;" font-size="7" isolation="isolate">
      <tspan x="0" y="0">Production</tspan>
    </text></g>
  <g isolation="isolate"><text transform="translate(319.72 50.52)" fill="#f3edf7"
      font-family="ChangaOne, &apos;Changa One&apos;" font-size="7" isolation="isolate">
      <tspan x="0" y="0">Maintenance</tspan>
    </text></g>
  <g isolation="isolate"><text transform="translate(267.14 50.52)" fill="#f3edf7"
      font-family="ChangaOne, &apos;Changa One&apos;" font-size="7" isolation="isolate">
      <tspan x="0" y="0">Launch</tspan>
    </text></g>
  <g isolation="isolate"><text transform="translate(170.68 11.6)" fill="#edfdeb"
      font-family="ChangaOne, &apos;Changa One&apos;" font-size="10" isolation="isolate" letter-spacing=".02em">
      <tspan x="0" y="0">P</tspan>
    </text><text transform="translate(176.79 11.6)" fill="#edfdeb" font-family="ChangaOne, &apos;Changa One&apos;"
      font-size="10" isolation="isolate">
      <tspan x="0" y="0">roject</tspan>
    </text><text transform="translate(167.06 19.6)" fill="#edfdeb" font-family="ChangaOne, &apos;Changa One&apos;"
      font-size="10" isolation="isolate">
      <tspan x="0" y="0">Timeline</tspan>
    </text></g>
</svg>