<?xml version="1.0" encoding="UTF-8"?><svg id="RiskLog_Icon_Cost" xmlns="http://www.w3.org/2000/svg" viewBox="0 0 24 22"><path d="M9.91,7.24h3.96l.67-1.77c.05-.14.03-.29-.05-.41-.08-.12-.22-.19-.37-.19h-1.12c-.24-.36-.65-.59-1.11-.59s-.87.24-1.11.59h-1.12c-.15,0-.28.07-.37.19-.08.12-.1.27-.05.41l.67,1.77ZM14.51,8.13h-5.24c-1.24,1.11-3.14,3.27-3,5.99.08,1.48,1.34,2.63,2.82,2.63h5.61c1.48,0,2.74-1.15,2.82-2.63.14-2.72-1.76-4.88-3-5.99ZM12.34,14.67v.15c0,.25-.2.45-.45.45s-.45-.2-.45-.45v-.17c-.46-.1-.83-.42-.98-.89-.07-.23.06-.48.29-.56s.49.06.56.29c.06.18.22.29.4.29h.55c.29,0,.52-.24.52-.53s-.23-.53-.53-.53h-.43c-.78,0-1.42-.64-1.42-1.42,0-.64.44-1.19,1.04-1.36v-.2c0-.25.2-.45.45-.45s.45.2.45.45v.17c.46.1.83.43.97.89.07.23-.06.48-.3.56-.23.07-.48-.06-.56-.3-.05-.18-.22-.3-.4-.3h-.24c-.29,0-.52.24-.52.53s.23.53.53.53h.43c.78,0,1.42.64,1.42,1.42s-.59,1.36-1.34,1.41Z" fill="#f3edf7" stroke-width="0"/></svg>