<?xml version="1.0" encoding="UTF-8"?><svg id="RiskLog_Icon_Quality" xmlns="http://www.w3.org/2000/svg" viewBox="0 0 24 22"><path d="M11.89,3.72c-.18,0-.37.09-.48.27l-.21.35c-.09.15-.24.25-.41.3,0,0,0,0,0,0-.17.05-.35.03-.51-.05l-.36-.2c-.37-.2-.82.06-.83.48v.41c-.01.18-.09.34-.21.46,0,0,0,0,0,0-.12.12-.29.2-.46.2h-.41c-.42.01-.68.47-.48.83l.2.36c.09.15.1.34.05.51,0,0,0,0,0,0-.05.17-.15.32-.3.41l-.35.21c-.36.22-.36.74,0,.95l.35.21c.15.09.25.24.3.41,0,0,0,0,0,0,.05.17.03.35-.05.51l-.2.36c-.2.37.06.82.48.83h.41c.18,0,.34.09.46.21h0c.12.13.2.29.21.47v.41c.01.42.47.68.83.48l.36-.2c.15-.09.34-.1.51-.05,0,0,0,0,0,0,.17.05.32.15.41.3l.21.35c.22.36.74.36.95,0l.21-.35c.09-.15.24-.25.41-.3,0,0,0,0,0,0,.17-.05.35-.03.51.05l.36.2c.37.2.82-.06.83-.48v-.41c0-.18.09-.34.21-.46h0c.12-.13.29-.21.46-.21h.41c.42-.01.68-.47.48-.83l-.2-.36c-.09-.15-.1-.34-.05-.51,0,0,0,0,0,0,.05-.17.15-.32.3-.41l.35-.21c.36-.22.36-.74,0-.95l-.35-.21c-.15-.09-.25-.24-.3-.41,0,0,0,0,0,0-.05-.17-.03-.35.05-.51l.2-.36c.2-.37-.06-.82-.48-.83h-.41c-.18,0-.34-.09-.46-.21h0c-.12-.13-.2-.29-.2-.47v-.41c-.01-.42-.47-.68-.83-.48l-.36.2c-.15.09-.34.1-.51.05,0,0,0,0,0,0-.17-.05-.32-.15-.41-.3l-.21-.35c-.11-.18-.29-.27-.48-.27ZM8.24,13.28l-1.11,2.66,1.95-.17,1.3,1.53,1.08-2.58c-.37-.11-.7-.35-.91-.69l-.05-.09-.09.05c-.23.13-.49.2-.76.2-.62,0-1.16-.37-1.41-.9ZM15.54,13.28c-.25.53-.79.9-1.41.9-.26,0-.53-.07-.76-.2l-.09-.05-.05.09c-.21.35-.53.59-.91.69l1.08,2.58,1.3-1.53,1.95.17-1.11-2.66Z" fill="#f3edf7" stroke-width="0"/></svg>