<?xml version="1.0" encoding="UTF-8"?><svg id="RiskLog_Hire" xmlns="http://www.w3.org/2000/svg" xmlns:xlink="http://www.w3.org/1999/xlink" viewBox="0 0 133 23"><defs><linearGradient id="linear-gradient" x1="111.92" y1="4.16" x2="106.97" y2="18.27" gradientUnits="userSpaceOnUse"><stop offset="0" stop-color="#3d2c98" stop-opacity="0"/><stop offset=".33" stop-color="rgba(89,79,142,.41)" stop-opacity=".41"/><stop offset=".63" stop-color="rgba(111,106,135,.73)" stop-opacity=".73"/><stop offset=".86" stop-color="rgba(124,123,131,.93)" stop-opacity=".93"/><stop offset="1" stop-color="#828282"/></linearGradient></defs><rect x="17.17" y="3.95" width="99.24" height="14.9" rx="7.45" ry="7.45" fill="#151523" opacity=".38" stroke-width="0"/><rect x="102.08" y="3.95" width="14.33" height="14.9" rx="7.16" ry="7.16" transform="translate(218.49 22.81) rotate(-180)" fill="#151523" opacity=".38" stroke-width="0"/><text transform="translate(26.54 15.36)" fill="#f3edf7" font-size="11.29"><tspan x="0" y="0" font-family="Lato-Bold, Lato" font-weight="700" letter-spacing="0em">Respond: </tspan><tspan x="50.19" y="0" font-family="Lato-Regular, Lato" letter-spacing=".01em">Hire</tspan></text><path d="M107.89,17.38h-.16c-.22-.08-.32-.24-.31-.47.01-.23,0-.47,0-.7v-.62s-.06,0-.09.01c-.41.07-.82.12-1.23.21-.47.09-.94-.25-.92-.8.01-.53,0-1.07,0-1.6v-.13c-.25,0-.49,0-.72,0-.21,0-.37-.13-.39-.33,0-.09.02-.19.07-.28.33-.67.67-1.34,1-2,.03-.06.04-.13.05-.2.02-.39,0-.79.06-1.18.15-1.15.69-2.11,1.59-2.84,1.01-.82,2.16-1.15,3.46-.97,1,.14,1.85.57,2.56,1.28.69.69,1.1,1.52,1.25,2.49.12.79.03,1.55-.25,2.29-.19.5-.48.93-.8,1.35-.26.34-.39.73-.39,1.16,0,.73,0,1.46,0,2.18,0,.22-.12.37-.33.41-1.22.2-2.44.41-3.66.61-.26.04-.52.09-.78.14Z" fill="url(#linear-gradient)" stroke-width="0"/></svg>