<?xml version="1.0" encoding="UTF-8"?><svg id="RiskLog_Agile" xmlns="http://www.w3.org/2000/svg" xmlns:xlink="http://www.w3.org/1999/xlink" viewBox="0 0 132.62 23"><defs><linearGradient id="linear-gradient" x1="-241.43" y1="445.61" x2="-243.95" y2="432.74" gradientTransform="translate(-131.97 449.06) rotate(-180)" gradientUnits="userSpaceOnUse"><stop offset="0" stop-color="#3d2c98" stop-opacity="0"/><stop offset=".33" stop-color="rgba(89,79,142,.41)" stop-opacity=".41"/><stop offset=".63" stop-color="rgba(111,106,135,.73)" stop-opacity=".73"/><stop offset=".86" stop-color="rgba(124,123,131,.93)" stop-opacity=".93"/><stop offset="1" stop-color="#828282"/></linearGradient><filter id="outer-glow-1" filterUnits="userSpaceOnUse"><feOffset dx="0" dy="0"/><feGaussianBlur result="blur" stdDeviation="5"/><feFlood flood-color="#4f4e4f" flood-opacity=".3"/><feComposite in2="blur" operator="in"/><feComposite in="SourceGraphic"/></filter></defs><rect x="14.98" y="3.82" width="103.24" height="14.9" rx="7.45" ry="7.45" fill="#151523" opacity=".38" stroke-width="0"/><rect x="103.89" y="3.82" width="14.33" height="14.9" rx="7.16" ry="7.16" transform="translate(222.11 22.53) rotate(-180)" fill="#151523" opacity=".38" stroke-width="0"/><text transform="translate(24.35 15.22)" fill="#f3edf7" font-size="11.29" letter-spacing="0em"><tspan x="0" y="0" font-family="Lato-Bold, Lato" font-weight="700">Respond: </tspan><tspan x="50.19" y="0" font-family="Lato-Regular, Lato">Agile</tspan></text><path d="M111.74,15.56l4.9-3.85c.29-.22.29-.66,0-.88l-4.9-3.85c-.37-.29-.91-.03-.91.44v1.9c-1.24.06-3.43.26-5.12.87-.31.11-.51.41-.51.74v.7c0,.33.2.63.51.74,1.7.61,3.88.8,5.12.87v1.9c0,.47.54.73.91.44Z" fill="url(#linear-gradient)" filter="url(#outer-glow-1)" stroke-width="0"/></svg>