<?xml version="1.0" encoding="UTF-8"?><svg id="RiskLog_Mitigate" xmlns="http://www.w3.org/2000/svg" xmlns:xlink="http://www.w3.org/1999/xlink" viewBox="0 0 134.5 23"><defs><linearGradient id="RiskLog_Gradient-Mitigate" x1="115.46" y1="11.54" x2="123.97" y2="11.54" gradientUnits="userSpaceOnUse"><stop offset="0" stop-color="#3d2c98"/><stop offset=".01" stop-color="#3e2c99"/><stop offset=".35" stop-color="#7838c3"/><stop offset=".64" stop-color="#a140e2"/><stop offset=".86" stop-color="#bb46f5"/><stop offset="1" stop-color="#c548fd"/></linearGradient><filter id="outer-glow-1" filterUnits="userSpaceOnUse"><feOffset dx="0" dy="0"/><feGaussianBlur result="blur" stdDeviation="5"/><feFlood flood-color="#c322ff" flood-opacity=".75"/><feComposite in2="blur" operator="in"/><feComposite in="SourceGraphic"/></filter></defs><rect x="7.92" y="4.09" width="119.24" height="14.9" rx="7.45" ry="7.45" fill="#151523" opacity=".38" stroke-width="0"/><rect x="112.83" y="4.09" width="14.33" height="14.9" rx="7.16" ry="7.16" transform="translate(239.99 23.09) rotate(180)" fill="#151523" opacity=".38" stroke-width="0"/><text transform="translate(17.29 15.49)" fill="#f3edf7"><tspan x="0" y="0" font-family="Lato-Bold, Lato" font-size="11.29" font-weight="700" letter-spacing="0em">Respond: </tspan><tspan x="50.19" y="0" font-family="Lato-Regular, Lato" font-size="11.29" letter-spacing=".01em">Mitigate</tspan></text><path d="M115.52,13.93c-.13-.76-.06-1.61.29-2.32.67-1.37,1.43-2.42,2.4-3.16.14.44.27.88.41,1.33.05.06.09.08.13.07.13-.04.1-.61-.08-1.71.03-.02.07-.04.1-.06,1.41-.83,4.12-1.52,5.2-2.15-.28,1.23-.3,2.62-.42,4-.02.2-.04.41-.06.62-.3.18-.51.26-.66.3-.07.02-.23.06-.25.14,0,.03.02.06.03.07.11.14.7.07.81.06-.33,2.34-1.09,4.78-3.1,5.45-1.09.36-2.11-.07-3.19.61-.24-.86-1.42-2.14-1.61-3.24Z" fill="url(#RiskLog_Gradient-Mitigate)" fill-rule="evenodd" filter="url(#outer-glow-1)" stroke-width="0"/></svg>