<?xml version="1.0" encoding="UTF-8"?><svg id="RiskLog" xmlns="http://www.w3.org/2000/svg" xmlns:xlink="http://www.w3.org/1999/xlink" viewBox="0 0 353 158"><defs><linearGradient id="RiskLog_Gradient-Avoid" x1="244.71" y1="55.99" x2="242.44" y2="44.36" gradientUnits="userSpaceOnUse"><stop offset="0" stop-color="#fa6b49"/><stop offset="1" stop-color="#feb749"/></linearGradient><filter id="outer-glow-1" filterUnits="userSpaceOnUse"><feOffset dx="0" dy="0"/><feGaussianBlur result="blur" stdDeviation="5"/><feFlood flood-color="#f4b414" flood-opacity=".75"/><feComposite in2="blur" operator="in"/><feComposite in="SourceGraphic"/></filter></defs><rect x="41.61" y="31.59" width="282.49" height="98.49" rx="20" ry="20" fill="#282844" opacity=".38" stroke-width="0"/><text id="RiskLog_Size" transform="translate(56.55 103.81)" fill="#f3edf7" font-family="Lato-Regular, Lato" font-size="13.23" letter-spacing="0em"><tspan x="0" y="0">Risk Size: 0</tspan></text><text id="RiskLog_Middle" transform="translate(56.26 87.81)" fill="#f3edf7" font-family="Lato-Regular, Lato" font-size="13.23" letter-spacing="0em"><tspan x="0" y="0">Probability: #1, Impact: #2</tspan></text><text id="RiskLog_Title" transform="translate(56.25 71.84)" fill="#f3edf7" font-family="Lato-Bold, Lato" font-size="13.23" font-weight="700" letter-spacing="0em"><tspan x="0" y="0">Budget Restriction</tspan></text><g id="RiskLog_Bottom"><path d="M105.39,110.47c-.18,0-.37.09-.48.27l-.21.35c-.09.15-.24.25-.41.3,0,0,0,0,0,0-.17.05-.35.03-.51-.05l-.36-.2c-.37-.2-.82.06-.83.48v.41c-.01.18-.09.34-.21.46,0,0,0,0,0,0-.12.12-.29.2-.46.2h-.41c-.42.01-.68.47-.48.83l.2.36c.09.15.1.34.05.51,0,0,0,0,0,0-.05.17-.15.32-.3.41l-.35.21c-.36.22-.36.74,0,.95l.35.21c.15.09.25.24.3.41,0,0,0,0,0,0,.05.17.03.35-.05.51l-.2.36c-.2.37.06.82.48.83h.41c.18,0,.34.09.46.21h0c.12.13.2.29.21.47v.41c.01.42.47.68.83.48l.36-.2c.15-.09.34-.1.51-.05,0,0,0,0,0,0,.17.05.32.15.41.3l.21.35c.22.36.74.36.95,0l.21-.35c.09-.15.24-.25.41-.3,0,0,0,0,0,0,.17-.05.35-.03.51.05l.36.2c.37.2.82-.06.83-.48v-.41c0-.18.09-.34.21-.46h0c.12-.13.29-.21.46-.21h.41c.42-.01.68-.47.48-.83l-.2-.36c-.09-.15-.1-.34-.05-.51,0,0,0,0,0,0,.05-.17.15-.32.3-.41l.35-.21c.36-.22.36-.74,0-.95l-.35-.21c-.15-.09-.25-.24-.3-.41,0,0,0,0,0,0-.05-.17-.03-.35.05-.51l.2-.36c.2-.37-.06-.82-.48-.83h-.41c-.18,0-.34-.09-.46-.21h0c-.12-.13-.2-.29-.2-.47v-.41c-.01-.42-.47-.68-.83-.48l-.36.2c-.15.09-.34.1-.51.05,0,0,0,0,0,0-.17-.05-.32-.15-.41-.3l-.21-.35c-.11-.18-.29-.27-.48-.27ZM101.75,120.04l-1.11,2.66,1.95-.17,1.3,1.53,1.08-2.58c-.37-.11-.7-.35-.91-.69l-.05-.09-.09.05c-.23.13-.49.2-.76.2-.62,0-1.16-.37-1.41-.9ZM109.04,120.04c-.25.53-.79.9-1.41.9-.26,0-.53-.07-.76-.2l-.09-.05-.05.09c-.21.35-.53.59-.91.69l1.08,2.58,1.3-1.53,1.95.17-1.11-2.66Z" fill="#f3edf7" stroke-width="0"/><path d="M207.51,113.88h3.96l.67-1.77c.05-.14.03-.29-.05-.41-.08-.12-.22-.19-.37-.19h-1.12c-.24-.36-.65-.59-1.11-.59s-.87.24-1.11.59h-1.12c-.15,0-.28.07-.37.19-.08.12-.1.27-.05.41l.67,1.77ZM212.11,114.77h-5.24c-1.24,1.11-3.14,3.27-3,5.99.08,1.48,1.34,2.63,2.82,2.63h5.61c1.48,0,2.74-1.15,2.82-2.63.14-2.72-1.76-4.88-3-5.99ZM209.94,121.31v.15c0,.25-.2.45-.45.45s-.45-.2-.45-.45v-.17c-.46-.1-.83-.42-.98-.89-.07-.23.06-.48.29-.56s.49.06.56.29c.06.18.22.29.4.29h.55c.29,0,.52-.24.52-.53s-.23-.53-.53-.53h-.43c-.78,0-1.42-.64-1.42-1.42,0-.64.44-1.19,1.04-1.36v-.2c0-.25.2-.45.45-.45s.45.2.45.45v.17c.46.1.83.43.97.89.07.23-.06.48-.3.56-.23.07-.48-.06-.56-.3-.05-.18-.22-.3-.4-.3h-.24c-.29,0-.52.24-.52.53s.23.53.53.53h.43c.78,0,1.42.64,1.42,1.42s-.59,1.36-1.34,1.41Z" fill="#f3edf7" stroke-width="0"/><path d="M61.35,111.65c-4.2-.93-7.87,2.73-6.93,6.93.47,2.12,2.18,3.83,4.3,4.3,4.2.93,7.87-2.73,6.93-6.93-.47-2.12-2.18-3.83-4.3-4.3ZM63.25,116.16l-3.63,3.63c-.09.09-.21.14-.34.14s-.25-.05-.34-.14l-1.66-1.66c-.19-.19-.19-.49,0-.68s.49-.19.68,0l1.32,1.32,3.29-3.29c.19-.19.49-.19.68,0s.19.49,0,.68Z" fill="#f3edf7" stroke-width="0"/><path d="M153.68,111.99c-4.23-.94-7.91,2.75-6.97,6.97.47,2.13,2.19,3.85,4.32,4.32,4.23.94,7.91-2.75,6.97-6.97-.47-2.13-2.19-3.85-4.32-4.32ZM153.85,119.96l-1.91-1.91c-.11-.11-.17-.26-.17-.41v-2.9c0-.32.26-.58.58-.58h0c.32,0,.58.26.58.58v2.66l1.74,1.74c.23.23.23.59,0,.82h0c-.23.23-.59.23-.82,0Z" fill="#f3edf7" stroke-width="0"/><text transform="translate(68.15 122.07)" fill="#ff3347" font-family="Lato-Bold, Lato" font-size="13.23" font-weight="700" letter-spacing=".02em"><tspan x="0" y="0">-5%,</tspan></text><text transform="translate(112.09 122.35)" fill="#ff3347" font-family="Lato-Bold, Lato" font-size="13.23" font-weight="700" letter-spacing=".02em"><tspan x="0" y="0">-5%,</tspan></text><text transform="translate(160.83 122.21)" fill="#ff3347" font-family="Lato-Bold, Lato" font-size="13.23" font-weight="700" letter-spacing=".02em"><tspan x="0" y="0">-10%,</tspan></text><text transform="translate(217.89 122.35)" fill="#f3edf7" font-family="Lato-Bold, Lato" font-size="13.23" font-weight="700" letter-spacing=".02em"><tspan x="0" y="0">0%</tspan></text></g><g id="RiskLog_Top"><rect x="54.87" y="41.09" width="83.14" height="14.9" rx="7.45" ry="7.45" fill="#387741" stroke-width="0"/><text transform="translate(63.49 52.5)" fill="#f3edf7" font-family="Lato-Regular, Lato" font-size="11.29" letter-spacing=".01em"><tspan x="0" y="0">Management</tspan></text><rect x="143.32" y="41.09" width="107.25" height="14.9" rx="7.45" ry="7.45" fill="#151523" opacity=".38" stroke-width="0"/><rect x="236.06" y="41.09" width="14.33" height="14.9" rx="7.16" ry="7.16" transform="translate(486.44 97.09) rotate(180)" fill="#151523" opacity=".38" stroke-width="0"/><text transform="translate(152.69 52.5)" fill="#f3edf7" font-size="11.29"><tspan x="0" y="0" font-family="Lato-Bold, Lato" font-weight="700" letter-spacing="0em">Respond: </tspan><tspan x="50.19" y="0" font-family="Lato-Regular, Lato" letter-spacing="-.03em">A</tspan><tspan x="57.52" y="0" font-family="Lato-Regular, Lato" letter-spacing="0em">v</tspan><tspan x="63.26" y="0" font-family="Lato-Regular, Lato" letter-spacing="0em">oid</tspan></text><path d="M245.34,44.84l-6.62.92,2.2,1.3-4.07,1.48,4.29,1.26-2.42,1.66,6.69.8c2.23.27,4.18-1.47,4.18-3.71h0c0-2.27-2.01-4.02-4.26-3.7Z" fill="url(#RiskLog_Gradient-Avoid)" filter="url(#outer-glow-1)" stroke-width="0"/></g></svg>