<?xml version="1.0" encoding="UTF-8"?>
<svg id="RiskLog_Category_External" xmlns="http://www.w3.org/2000/svg"
  viewBox="0 0 66.19 15.83">
  <g id="RiskLog_Impact">
    <path
      d="M8.51,2.66c.25,0,.49,0,.74,0,.2.02.39.04.59.07,1.12.17,2.11.6,2.95,1.28,1.01.83,1.65,1.85,1.89,3.07.04.19.06.39.09.59v.67c-.02.13-.03.25-.05.38-.18,1.16-.71,2.18-1.62,3.01-1.51,1.37-3.33,1.88-5.43,1.5-1.43-.26-2.59-.94-3.47-2-.98-1.17-1.36-2.49-1.15-3.95.17-1.17.72-2.17,1.63-3.01.88-.82,1.94-1.33,3.19-1.52.21-.03.43-.06.65-.08ZM5.95,11.06c.16,0,.27-.07.38-.17,1.91-1.74,3.82-3.47,5.73-5.2.03-.03.07-.06.1-.09.19-.23.07-.56-.23-.64-.19-.05-.35.02-.49.14-1.92,1.74-3.83,3.48-5.75,5.22-.03.02-.05.05-.08.07-.11.13-.13.28-.06.43.08.15.22.23.4.23ZM10.57,8.03c-.91,0-1.67.69-1.67,1.52,0,.83.77,1.52,1.68,1.52.91,0,1.67-.7,1.66-1.52,0-.83-.76-1.51-1.68-1.51ZM8.83,6.45c0-.83-.75-1.51-1.66-1.51-.92,0-1.67.68-1.67,1.52,0,.83.76,1.51,1.67,1.5.91,0,1.66-.68,1.66-1.51Z"
      fill="#f3edf7" stroke-width="0" />
    <path d="M9.89,9.55c0-.34.32-.62.69-.62.37,0,.68.28.68.62,0,.34-.32.63-.69.62-.37,0-.68-.29-.68-.62Z" fill="#f3edf7"
      stroke-width="0" />
    <path d="M7.85,6.46c0,.34-.3.62-.68.62-.38,0-.69-.28-.69-.62,0-.34.32-.62.69-.62.37,0,.67.28.67.62Z" fill="#f3edf7"
      stroke-width="0" />
    <rect x=".74" y=".71" width="64.77" height="14.53" rx="7.26" ry="7.26" fill="none" stroke="#f3edf7"
      stroke-miterlimit="10" stroke-width=".75" /><text transform="translate(17.01 12.08) scale(1.1 1)" fill="#f3edf7"
      font-family="Lato-Regular, Lato" font-size="10.92" letter-spacing="0em">
      <tspan x="0" y="0">Medium</tspan>
    </text>
  </g>
</svg>