<?xml version="1.0" encoding="UTF-8"?>
<svg id="Layer_2" data-name="Layer 2" xmlns="http://www.w3.org/2000/svg" xmlns:xlink="http://www.w3.org/1999/xlink" viewBox="0 0 367.24 51.77">
  <defs>
    <style>
      .cls-1, .cls-2, .cls-3, .cls-4 {
        isolation: isolate;
      }

      .cls-1, .cls-3, .cls-4 {
        font-family: ChangaOne, 'Changa One';
      }

      .cls-1, .cls-4 {
        fill: #edfdeb;
        font-size: 10px;
      }

      .cls-3 {
        fill: #f3edf7;
        font-size: 7px;
      }

      .cls-5 {
        fill: url(#linear-gradient);
        stroke-width: 1.78px;
      }

      .cls-5, .cls-6 {
        stroke: #6e78b3;
        stroke-miterlimit: 10;
      }

      .cls-6 {
        fill: none;
        stroke-width: 3px;
      }

      .cls-4 {
        letter-spacing: .02em;
      }

      .cls-7 {
        fill: url(#linear-gradient-2);
        stroke-width: 0px;
      }
    </style>
    <linearGradient id="linear-gradient" x1="-5754.47" y1="42.1" x2="-5691.9" y2="42.1" gradientTransform="translate(-5535.15 54) rotate(-180)" gradientUnits="userSpaceOnUse">
      <stop offset="0" stop-color="#43466e"/>
      <stop offset="1" stop-color="#585e81"/>
    </linearGradient>
    <linearGradient id="linear-gradient-2" x1="1.5" y1="30.36" x2="365.74" y2="30.36" gradientTransform="matrix(1,0,0,1,0,0)" xlink:href="#linear-gradient"/>
  </defs>
  <g id="Layer_2-2" data-name="Layer 2">
    <polygon class="cls-5" points="219.32 22.9 211.85 .89 189.12 .89 186.89 .89 164.16 .89 156.75 22.74 219.32 22.9"/>
    <path class="cls-6" d="M360.17,24.91h-11.85s0,0,0,0c-.7-1.15-1.6-2.16-2.67-2.98-.03-.03-.07-.05-.1-.08-.32-.24-.65-.46-.99-.66-.04-.02-.08-.05-.12-.07-.74-.42-1.53-.76-2.37-.99-.11-.03-.22-.06-.34-.09-.31-.08-.62-.14-.94-.19-.12-.02-.24-.04-.37-.06-.43-.05-.86-.09-1.31-.09s-.88.03-1.31.09c-.12.02-.24.04-.37.06-.32.05-.63.11-.94.19-.11.03-.22.05-.34.09-.84.24-1.63.57-2.37.99-.04.02-.08.05-.12.07-.34.2-.67.42-.99.66-.03.03-.07.05-.1.08-1.07.82-1.97,1.83-2.67,2.98h-42.35c-1.87-3.23-5.36-5.42-9.37-5.42s-7.5,2.18-9.37,5.42h-40.16c-1.88-3.12-5.3-5.21-9.21-5.21s-7.32,2.09-9.21,5.21h-44.89c-1.86-3.24-5.34-5.42-9.33-5.42s-7.48,2.18-9.33,5.42h-48.25c-1.87-3.23-5.36-5.42-9.37-5.42s-7.5,2.18-9.37,5.42h-42.85c-1.87-3.23-5.36-5.42-9.37-5.42s-7.5,2.18-9.37,5.42H7.08c-3.08,0-5.57,2.49-5.57,5.57h-.01c0,3.08,2.49,5.57,5.57,5.57h11.2c1.91,3.06,5.31,5.11,9.18,5.11s7.27-2.04,9.18-5.11h43.23c1.91,3.06,5.31,5.11,9.18,5.11s7.27-2.04,9.18-5.11h48.74c1.91,2.98,5.25,4.96,9.05,4.96s7.14-1.98,9.05-4.96h45.2c1.89,3.1,5.29,5.17,9.18,5.17s7.29-2.07,9.18-5.17h40.39c1.91,3.06,5.31,5.11,9.18,5.11s7.27-2.04,9.18-5.11h42.56c.7,1.14,1.6,2.15,2.66,2.96.04.03.07.05.11.08.32.24.65.46,1,.66.04.02.07.04.11.07.38.22.78.42,1.19.59,0,0,0,0,0,0,.38.16.77.29,1.17.4.11.03.23.06.34.09.31.08.62.14.94.19.12.02.24.04.37.06.43.05.86.09,1.3.09s.87-.03,1.3-.09c.12-.02.24-.04.37-.06.32-.05.63-.11.94-.19.11-.03.23-.06.34-.09.4-.11.79-.24,1.16-.4,0,0,0,0,0,0,.41-.17.8-.37,1.19-.59.04-.02.07-.04.11-.07.35-.2.68-.42,1-.66.04-.03.07-.05.11-.08,1.06-.81,1.96-1.81,2.66-2.96,0,0,0,0,0,0h11.88c3.08,0,5.57-2.49,5.57-5.57s-2.49-5.57-5.57-5.57Z"/>
    <path class="cls-7" d="M360.17,24.91h-11.85s0,0,0,0c-.7-1.15-1.6-2.16-2.67-2.98-.03-.03-.07-.05-.1-.08-.32-.24-.65-.46-.99-.66-.04-.02-.08-.05-.12-.07-.74-.42-1.53-.76-2.37-.99-.11-.03-.22-.06-.34-.09-.31-.08-.62-.14-.94-.19-.12-.02-.24-.04-.37-.06-.43-.05-.86-.09-1.31-.09s-.88.03-1.31.09c-.12.02-.24.04-.37.06-.32.05-.63.11-.94.19-.11.03-.22.05-.34.09-.84.24-1.63.57-2.37.99-.04.02-.08.05-.12.07-.34.2-.67.42-.99.66-.03.03-.07.05-.1.08-1.07.82-1.97,1.83-2.67,2.98h-42.35c-1.87-3.23-5.36-5.42-9.37-5.42s-7.5,2.18-9.37,5.42h-40.16c-1.88-3.12-5.3-5.21-9.21-5.21s-7.32,2.09-9.21,5.21h-44.89c-1.86-3.24-5.34-5.42-9.33-5.42s-7.48,2.18-9.33,5.42h-48.25c-1.87-3.23-5.36-5.42-9.37-5.42s-7.5,2.18-9.37,5.42h-42.85c-1.87-3.23-5.36-5.42-9.37-5.42s-7.5,2.18-9.37,5.42H7.08c-3.08,0-5.57,2.49-5.57,5.57h-.01c0,3.08,2.49,5.57,5.57,5.57h11.2c1.91,3.06,5.31,5.11,9.18,5.11s7.27-2.04,9.18-5.11h43.23c1.91,3.06,5.31,5.11,9.18,5.11s7.27-2.04,9.18-5.11h48.74c1.91,2.98,5.25,4.96,9.05,4.96s7.14-1.98,9.05-4.96h45.2c1.89,3.1,5.29,5.17,9.18,5.17s7.29-2.07,9.18-5.17h40.39c1.91,3.06,5.31,5.11,9.18,5.11s7.27-2.04,9.18-5.11h42.56c.7,1.14,1.6,2.15,2.66,2.96.04.03.07.05.11.08.32.24.65.46,1,.66.04.02.07.04.11.07.38.22.78.42,1.19.59,0,0,0,0,0,0,.38.16.77.29,1.17.4.11.03.23.06.34.09.31.08.62.14.94.19.12.02.24.04.37.06.43.05.86.09,1.3.09s.87-.03,1.3-.09c.12-.02.24-.04.37-.06.32-.05.63-.11.94-.19.11-.03.23-.06.34-.09.4-.11.79-.24,1.16-.4,0,0,0,0,0,0,.41-.17.8-.37,1.19-.59.04-.02.07-.04.11-.07.35-.2.68-.42,1-.66.04-.03.07-.05.11-.08,1.06-.81,1.96-1.81,2.66-2.96,0,0,0,0,0,0h11.88c3.08,0,5.57-2.49,5.57-5.57s-2.49-5.57-5.57-5.57ZM359.05,31.9h-13.49c-.66,2.9-3.24,5.06-6.33,5.06-.44,0-.87-.05-1.28-.14-2.6-.42-4.68-2.38-5.27-4.92h-47.83c-.66,2.9-3.24,5.06-6.33,5.06-.44,0-.87-.05-1.28-.14-2.6-.42-4.68-2.38-5.27-4.92h-46.06c-.66,2.9-3.24,5.06-6.33,5.06-.44,0-.87-.05-1.28-.14-2.6-.42-4.68-2.38-5.27-4.92h-50.59c-.73,2.79-3.26,4.85-6.28,4.85-.43,0-.85-.05-1.26-.13-2.54-.4-4.58-2.27-5.24-4.72h-54.12c-.73,2.79-3.26,4.85-6.28,4.85-.43,0-.85-.05-1.26-.13-2.54-.4-4.58-2.27-5.24-4.72h-48.9c-.73,2.79-3.26,4.85-6.28,4.85-.43,0-.85-.05-1.26-.13-2.54-.4-4.58-2.27-5.24-4.72h-11.32c-.21,0-.41-.03-.61-.08-1.05-.15-1.86-.9-1.86-1.83,0-1.03,1-1.86,2.23-1.86h11.66c.87-2.57,3.29-4.43,6.16-4.43.42,0,.83.05,1.22.13,2.41.37,4.38,2.06,5.15,4.3h49.15c.87-2.57,3.29-4.43,6.16-4.43.42,0,.83.05,1.22.13,2.41.37,4.38,2.06,5.15,4.3h54.37c.87-2.57,3.29-4.43,6.16-4.43.42,0,.83.05,1.22.13,2.41.37,4.38,2.06,5.15,4.3h50.97c.92-2.46,3.29-4.22,6.08-4.22.41,0,.81.05,1.2.12,2.34.35,4.27,1.95,5.09,4.1h46.57c.92-2.46,3.29-4.22,6.08-4.22.41,0,.81.05,1.2.12,2.34.35,4.27,1.95,5.09,4.1h48.34c.92-2.46,3.29-4.22,6.08-4.22.41,0,.81.05,1.2.12,2.34.35,4.27,1.95,5.09,4.1h13.52c.21,0,.41.03.61.08,1.05.15,1.86.9,1.86,1.83,0,1.03-1,1.86-2.23,1.86Z"/>
    <g class="cls-2">
      <text class="cls-3" transform="translate(12.42 50.51)"><tspan x="0" y="0">Initiation</tspan></text>
    </g>
    <g class="cls-2">
      <text class="cls-3" transform="translate(76.43 50.41)"><tspan x="0" y="0">Concept</tspan></text>
    </g>
    <g class="cls-2">
      <text class="cls-3" transform="translate(132.62 50.51)"><tspan x="0" y="0">Preproduction</tspan></text>
    </g>
    <g class="cls-2">
      <text class="cls-3" transform="translate(201.93 50.41)"><tspan x="0" y="0">Production</tspan></text>
    </g>
    <g class="cls-2">
      <text class="cls-3" transform="translate(319.72 50.41)"><tspan x="0" y="0">Maintenance</tspan></text>
    </g>
    <g class="cls-2">
      <text class="cls-3" transform="translate(267.14 50.41)"><tspan x="0" y="0">Launch</tspan></text>
    </g>
    <g class="cls-2">
      <text class="cls-4" transform="translate(170.68 11.49)"><tspan x="0" y="0">P</tspan></text>
      <text class="cls-1" transform="translate(176.79 11.49)"><tspan x="0" y="0">roject</tspan></text>
      <text class="cls-1" transform="translate(167.06 19.49)"><tspan x="0" y="0">Timeline</tspan></text>
    </g>
  </g>
</svg>